<svg xmlns="http://www.w3.org/2000/svg" viewBox="0 0 1200 144">
<style>
	.city {fill: white;}
</style>
<g>
	<path class="city" d="M1133.6,128.8c-0.7,0-1.3,0-2,0.1c0.7-4.1,1-8.3,1.1-12.5v0c0.2,0.1,0.4,0.3,0.6,0.4
		C1133.5,120.8,1133.6,124.8,1133.6,128.8 M1130.8,128.9c-1.1,0-2.3,0.1-3.4,0.1c0.5-5,0.9-10,1.1-15c0.4,0.2,0.7,0.4,1.1,0.5
		C1130.2,119.4,1130.6,124.1,1130.8,128.9 M1126.9,129.1c-0.5,0-1,0-1.6,0.1c-0.6-5.7-1.1-11.3-1.5-17c0.6,0.2,1.1,0.4,1.7,0.7
		C1126.2,118.2,1126.7,123.6,1126.9,129.1 M1113,117.1c-1.5,0-2.9,0-4.4,0.2c0.1-2.8,0.3-5.6,0.6-8.4c0.6,0.1,1.3,0.2,1.9,0.2
		C1111.7,111.8,1112.3,114.4,1113,117.1C1113,117.1,1113,117.1,1113,117.1 M1107.3,117.4c-1.1,0.1-2.2,0.3-3.3,0.5
		c-0.2-3.1-0.3-6.3-0.2-9.4c0.5,0,1.1,0.1,1.6,0.1C1106.2,111.5,1106.7,114.4,1107.3,117.4 M1103.5,118c-0.9,0.2-1.8,0.4-2.6,0.7
		c-0.6-3.5-1-6.9-1.3-10.2c0.4,0,0.8,0,1.2,0C1102,111.5,1102.8,114.7,1103.5,118 M1061,133.3c-0.6,0-1.1-0.1-1.7-0.1
		c0.3-4.6,0.4-9.2,0.6-13.8C1060.2,124.1,1060.6,128.7,1061,133.3 M1059,133.2c-1.4-0.1-2.8-0.1-4.2-0.1c0.1-4.9,0.7-9.7,0.9-14.6
		c0.4-0.2,0.9-0.4,1.3-0.5C1058.2,123,1058.8,128.1,1059,133.2 M1054.3,133.2c-0.7,0-1.4,0-2.1,0.1c-0.3-4.3-0.6-8.5-0.9-12.8
		c0.3-0.1,0.5-0.3,0.8-0.4C1053.1,124.4,1053.8,128.8,1054.3,133.2 M1050.8,128.8c0.3,1.4,0.4,3,0.6,4.4c-1.1,0.1-2.1,0.1-3.1,0.3
		c0.4-3.1,0.7-6.2,0.9-9.4c0.2,0.5,0.4,1,0.6,1.5C1050.1,126.7,1050.5,127.8,1050.8,128.8 M977.7,129.8c-1.7,0.3-3.4,0.5-5.1,0.8
		c0.3-7,0.4-14,0.3-21c0-0.6,0-1.2,0-1.8c0.8,0,1.7,0,2.5,0C975.8,115.1,976.6,122.5,977.7,129.8 M939,131.7c-0.2,0-1.3,0.1-2.6,0.3
		c0-0.1,0-0.2,0-0.3c-0.2-6.1-0.3-12.3-0.5-18.4c0.9-0.1,1.9-0.2,2.9-0.2C938.6,119.3,938.7,125.5,939,131.7 M933.1,132.4
		c-2.6,0.3-5,0.5-5,0.5c0.6-5.9,0.3-11.9,0.6-17.8c1.3-0.1,2.5-0.2,3.8-0.2C932.8,120.7,933,126.5,933.1,132.4 M895.9,102.5
		c-0.1,7.5-0.3,14-0.6,14c-3.1,0.5-6.1,0.9-9.2,1.4c0-1.3-0.1-2.6-0.1-4C889.2,110.1,892.5,106.2,895.9,102.5 M891.6,102.4
		c-0.4,0.2-0.8,0.4-1.2,0.7c-0.8,0.6-1.5,1.4-2.2,2.2c-0.8,1-1.7,2-2.5,3c-0.1-1.9-0.2-3.9-0.3-5.8
		C887.5,102.5,889.6,102.4,891.6,102.4 M848.8,112c-0.5,0.1-1.1,0.1-1.6,0.2c-0.6-1.8-1.1-3.5-1.7-5.3c0.8-0.2,1.7-0.3,2.6-0.5
		C848.2,109.6,848.4,112,848.8,112 M844.7,112.4c-1.5,0.1-3,0.3-4.5,0.4c0-1.6-0.1-3.2-0.2-4.8c1-0.2,2.1-0.5,3.1-0.7
		C843.7,109,844.2,110.7,844.7,112.4 M825.3,131.9c-3.2-0.1-6.5-0.2-9.7-0.4c-0.1-1.4-0.1-2.8-0.2-4.2c3.1,0.4,6.3,1.1,9.4,1.6
		C825,129.9,825.2,130.9,825.3,131.9 M824.6,126.9c-2.1-0.3-4.1-0.7-6.2-1c-1-0.1-2-0.2-3-0.3c-0.1-2.9-0.2-5.8-0.3-8.7
		c0.8,0.7,1.6,1.5,2.4,2.2c2,1.7,4.3,2.8,6.7,4C824.3,124.3,824.4,125.6,824.6,126.9 M823.8,118.2c-1.5-1.3-3-2.6-4.2-4.2
		c1.3-0.5,2.7-1,4.1-1.4c0,0,0,0.1,0,0.1C823.6,114.6,823.7,116.4,823.8,118.2 M602.2,119.8c-3.2-0.4-6.4-0.4-9.7,0.1
		c-0.1-3.4-0.1-6.7-0.2-10.1c3.3,1.6,6.5,3.2,9.8,4.9C602.1,116.5,602.2,118.1,602.2,119.8 M601.9,106c-0.4-0.2-0.7-0.5-1.1-0.7
		c0.4-1.9,0.7-3.8,1-5.7C601.8,101.8,601.8,103.9,601.9,106 M600.5,105.2c-1.1-0.7-2.2-1.3-3.3-1.9c0.9-3.8,1.4-7.6,1.6-11.5
		c0.3,0.4,0.7,0.7,1,1.1C600.7,96.9,601,101.1,600.5,105.2 M596.9,103.1c-1-0.5-1.9-1.1-2.9-1.6c1.4-3.9,2.3-8,2.6-12.1
		c0.2,0.2,0.4,0.4,0.6,0.6C598.2,94.3,597.7,98.8,596.9,103.1 M593.6,101.4c-0.5-0.3-1-0.5-1.5-0.8c0-2.2-0.1-4.3-0.1-6.5
		c0.5-2.6,0.9-5.3,1.1-8c0.3,0.3,0.6,0.5,0.8,0.8C594.8,91.7,594.7,96.6,593.6,101.4 M591.4,89.9c-1,0-2.1-0.1-3.1-0.1
		c0.6-2.2,1-4.5,1.4-6.8c0.5,0.4,1,0.9,1.5,1.3c0.2,0.6,0.3,1.2,0.4,1.8C591.7,87.4,591.6,88.6,591.4,89.9 M587.2,89.8
		c-1,0-2.1,0-3.1,0.1c0.6-3.4,1.1-6.9,1.5-10.4c0.4,0.3,0.8,0.7,1.2,1C587.3,83.6,587.4,86.7,587.2,89.8 M583.5,89.9
		c-0.5,0-1,0.1-1.4,0.1c-0.1,0-0.2,0.1-0.4,0.2c-0.1,0.1-0.3,0-0.3-0.1c0-0.1,0.1-0.1,0.2-0.1c-0.3-2.2-0.6-4.3-0.8-6.5
		c-0.2-2.8-0.3-5.5-0.5-8.3c0.9,0.7,1.9,1.5,2.8,2.2C583.6,81.6,583.7,85.8,583.5,89.9 M545.8,56.4c-0.1,10.3-0.3,20.7-0.7,31.1
		c-0.7,0-1.3-0.1-2-0.1c1.1-8.8,1.7-17.7,1.7-26.6c0-1.5-0.1-3.2-0.6-4.6C544.8,56.3,545.2,56.4,545.8,56.4 M542.6,87.4
		c-1.4-0.1-2.7-0.1-4.1-0.1c1.3-10.4,1-21,0.6-31.5c0.2,0,0.4,0,0.6,0C542.9,65.8,543.1,76.7,542.6,87.4 M538.1,87.2
		c-0.5,0-1,0-1.5,0c0.1-6.3,0.1-12.6-0.1-18.9c-0.9,0.1-1.8,0.1-2.8,0.2c-0.1-4.3-0.3-8.5-0.5-12.8c0.4,0,0.8,0,1.2,0
		c0.8,1.1,1.2,2.5,1.4,3.9C537.5,68.7,538.3,77.9,538.1,87.2 M532,68.6c-1,0.1-2,0.2-3,0.3c-0.3-4.2-0.8-8.4-1.4-12.6
		c0.1,0,0.3,0,0.4-0.1C530.3,60,531.5,64.3,532,68.6 M525.9,61c1,2.6,1.6,5.3,2.1,8.1c-1.3,0.2-2.5,0.3-3.7,0.5
		c-0.6-4.1-1.3-8.1-2.2-12.1c0.5-0.1,1-0.2,1.5-0.4C524.7,58.1,525.4,59.6,525.9,61 M521.3,64.5c0.5,1.8,1,3.6,1.4,5.4
		c-0.7,0.1-1.4,0.3-2.2,0.4c0.6,5.9,1.1,11.8,1.4,17.8c-0.8,0.1-1.6,0.2-2.4,0.3c0.1-9.8-0.8-19.6-2.7-29.2c0.7-0.3,1.3-0.5,2-0.7
		C520,60.2,520.7,62.4,521.3,64.5 M514.2,60.2c2.7,9.2,4.4,18.6,5.1,28.2c-1.5,0.2-3,0.5-4.5,0.8c0.1-9.6-0.3-19.1-1.2-28.6
		C513.7,60.5,514,60.3,514.2,60.2 M509.7,62.5c1.6,8.9,3.2,17.8,4.6,26.8c-1.6,0.3-3.2,0.6-4.7,1c-0.5-9-0.9-18.1-1-27.1
		C508.9,62.9,509.3,62.7,509.7,62.5 M510,98.7c4-0.8,8.1-1.1,12.2-0.9c0.2,9.4,0.1,18.9,0,28.4c-3.4,0.3-7.1,0.1-10.6,0.4
		C511.2,117.3,510.6,107.9,510,98.7 M474.5,99.6c0,1.6,0,3.1,0,4.6c-2.3,1.3-4.5,2.7-6.7,4.2c0.2-0.3,0.4-0.6,0.6-0.9
		C470.4,104.9,472.4,102.2,474.5,99.6 M432.3,121.3c-3,0.2-6.3,0.4-9.3,0.3c-0.3-5.9-0.7-11.8-1-17.8c-0.1-1.3-0.1-2.6-0.2-3.9
		c3.1,0.6,6.1,1.5,9.1,2.6C431.3,108.9,431.8,115.1,432.3,121.3 M376.2,121c-0.1,2.5,1,9.6-0.3,11.5c-0.7,1-7.7,1.5-7.7,1
		c-0.4-4-0.7-8-1-12.1c2.5-3.9,5.6-7.5,9.2-10.7C376.3,114.2,376.3,117.6,376.2,121 M315.4,131.9c-2.6,0.4-5.5,0.1-8.1,0
		c0.8-8.4,1.1-16.3,1.2-24.4c2.1-0.2,4.2-0.4,6.3-0.6C315.2,115.2,315.7,123.5,315.4,131.9 M282.2,135.2c-2.4-0.4-5.2-0.5-7.7-0.1
		c-0.4-3.8-0.9-7.3-1-11c-0.1-3.7-0.1-7.5-0.1-11.3c2.7-0.6,5.5-1.1,8.2-1.6C281.8,119.3,282,127.2,282.2,135.2 M67.6,128.8
		c-0.7,0-1.3,0-2,0.1c0.7-4.1,1-8.3,1.1-12.5v0c0.2,0.1,0.4,0.3,0.6,0.4C67.5,120.8,67.6,124.8,67.6,128.8 M64.8,128.9
		c-1.1,0-2.3,0.1-3.4,0.1c0.5-5,0.9-10,1.1-15c0.4,0.2,0.7,0.4,1.1,0.5C64.2,119.4,64.6,124.1,64.8,128.9 M60.9,129.1
		c-0.5,0-1,0-1.6,0.1c-0.6-5.7-1.1-11.3-1.5-17c0.6,0.2,1.1,0.4,1.7,0.7C60.2,118.2,60.7,123.6,60.9,129.1 M47,117.1
		c-1.5,0-2.9,0-4.4,0.2c0.1-2.8,0.3-5.6,0.6-8.4c0.6,0.1,1.3,0.2,1.9,0.2C45.7,111.8,46.3,114.4,47,117.1
		C47,117.1,47,117.1,47,117.1 M41.3,117.4c-1.1,0.1-2.2,0.3-3.3,0.5c-0.2-3.1-0.3-6.3-0.2-9.4c0.5,0,1.1,0.1,1.6,0.1
		C40.2,111.5,40.7,114.4,41.3,117.4 M37.5,118c-0.9,0.2-1.8,0.4-2.6,0.7c-0.6-3.5-1-6.9-1.3-10.2c0.4,0,0.8,0,1.2,0
		C36,111.5,36.8,114.7,37.5,118 M1200,23.9c-5.9,3.2-10.1,9.2-12.3,15.6c-2.5,7.2-2.8,15-3.2,22.7c-1.2-7-2.4-14-5.2-20.6
		c-2.7-6.6-7.1-12.6-13.3-16.1c-0.7-0.4-1.4-0.7-2.2-0.6c-1,0.2-1.6,1.2-2.1,2.1c-4.2,8.6-5.1,17.3-4.8,26.7
		c0.1,2.2-0.3,15.6-0.9,21.9c-4.4-5.5-9.3-10.8-14.2-15.9c2.7,6.5,5.1,13.3,6.9,20.1c-1.9,0.2-3.7,0.3-5.6,0.3
		c0.6,6.7,1.2,13.4,1.8,20.2c0.2,1.6-9,0.9-12,0.7c-3.3-2-6.8-3.6-10.3-4.9c0-1-0.1-2-0.1-3c-0.5-11.3,0.2-22.7-1.2-33.9
		c3.8-1.6,7.7-3.3,10.9-6c3.3-2.6,5.9-6.3,6.4-10.3c0.7-5.4-2.4-10.4-6.3-14c-1.1-1-2.3-1.9-3.7-2.3c-1-0.3-2-0.3-3-0.3
		c-4.5-0.1-9-0.2-13.4,0.6c-4.5,0.8-8.9,2.5-12.2,5.6c-1.5,1.3-2.7,2.9-3.7,4.6c-1.5,2.4-2.7,5.1-3,7.9c-0.7,5.2,1.5,10.5,5.4,13.8
		c3.9,3.3,10.4,4.3,15.5,3.2c-0.6,1.6-0.5,3.4-0.4,5.1c0.1,2.3,0.8,4.5,0.9,6.8c0.5,6.6-0.1,13.2-0.7,19.9
		c-5.1-1.1-10.4-1.5-15.6-1.4c-0.1-1.5-0.2-3-0.3-4.6c-0.4-4.7-0.7-9.2,0-13.9c-7.7-0.9-14.3-1.6-22-2.2c0,0,0-0.1,0-0.1
		c-0.1,0-0.2,0.2-0.2,0.3c-0.5,7-0.5,13.9,0,20.8c0.2,0,0.3-0.1,0.4-0.1c0.1,0.1-0.3,0.1-0.4,0.2c0,0,0,0,0-0.1
		c-5.8,1.4-11.7,2.7-17.6,3.8c0.1,2.3,0.2,4.6,0.3,7c-3.4,2.2-6.4,4.9-9.2,7.8c0.2-17.9-1.1-35.8,0.9-53.6c0.1-1.2,0.3-2.5,0.8-3.6
		c-5.1-0.3-10.2,0.9-15.2,0.5c-5.8-0.4,6.2-20.8-12.5-17L1017.2,0c0.2,10.1,3,24.3-1.6,33.4c-1.2,2.4-4.8,2.5-6.2,5.4
		c-2.1,4.5-0.5,13.9-0.6,18.9c-4.5,1.1-9.2,1.8-13.8,2.1c-0.2,3.5-0.4,7-0.6,10.6c-0.1,2.8-0.8,5.9-0.3,8.6c-3.9,0.9-7.9,1.5-12,1.7
		c-1,5.4-0.1,10.8,0.2,16.2c0,0.5,0,1.1,0.1,1.6c-3.2,0.6-6.4,1.2-9.7,1.7c0-0.3,0-0.7,0-1c0-0.7,0-8.1,0.6-8.3
		c-4.2,1-8.4,2.1-12.5,3.5c-0.1-5.6,0-11.3,0.2-16.9c0.1-1.2,1.6-12.8,1.2-12.8c-3.5,0.5-7.1,0.5-10.6,0
		c-0.3,10.4-1.9,20.8-0.6,31.1c-1,0.3-12,2.1-12,1.7c-0.1,2.2-0.2,4.4-0.3,6.6c-3.3,0.4-6.6,0.6-10,0.5c-0.2-4.7-0.9-9.4-1.1-14
		c-0.4-7.4-0.7-14.8-0.8-22.3c-0.1-3.7-0.1-7.4-0.1-11.1c0-1-0.5-10.1,0.1-10.3c-7.5,2.8-14.3,7.5-19.6,13.5
		c-1.6,1.9-3.1,3.9-4.6,5.9c-3.4,4.6-6.8,8.2-6.7,14.1c0,1.7,0,10.9-0.2,19.6c-3.6-0.4-7.2-0.7-10.8-0.9c-0.1-1.4-0.2-2.7-0.4-4.1
		c-4.5,0.4-8.8,1.7-13.4,1.8c0.3-10.4,2.3-20.7,3.3-31.1c0.2-2.6,0.4-5.2,0.5-7.9c0.1-1.3,0.7-5.9-0.3-6.6c-1-0.7-6,0.9-7.3,1.1
		c-2.3,0.4-4.7,0.8-7,1.3c-4.5,0.9-9.9,1.3-14.1,2.6c1.7,9.3,1.5,18.8,1.4,28.3c0,1.3-0.1,9.5,0.1,16.6c-2.8,0.5-5.6,1-8.4,1.6
		c-0.1-0.7-0.1-1.3-0.2-2c-0.4-2.7,0-5.3-0.5-7.9c-1.4,0.2-15.5,3-15.7,1.9c0.8,4.1,0.7,8.1,0.6,12.1c-3,0.9-5.9,2-8.8,3.1
		c-0.2-9.5-0.2-19,0-28.5c0-1,0-2-0.2-3c-0.3-0.9-0.8-1.8-1.4-2.6c-5.7-7.9-13-15-19.4-22.5c-3.2,8.6-7.4,16.8-12.5,24.5
		c-0.3,6.1,0.9,12.2,0.6,18.2c-0.3,6.9-0.5,13.8-0.8,20.8c-0.6,0.1-9.1,1-9.1,1.1c-1.2-6.1-0.3-12.9-0.1-19.1
		c-2.2,0.2-4.4,0.2-6.6,0.2c-0.2-1.7-0.5-3.3-0.7-5c-1.4,1.1-3.7,0.4-4.9-0.9c-1.3-1.3-1.9-3.1-2.9-4.7c-2.8-4.2-8.4-6.2-13.2-4.7
		c-4.8,1.5-8.3,6.3-8.2,11.4l-4.2,0.6c0.3,1.4,0.4,2.9,0.3,4.3c-1.8,0.9-3.9,1.1-5.8,0.6c0.2,1.3,0.8,14-0.2,14.2
		c-2.8,0.6-5.6,1-8.5,1.2c-0.8-3.2-2.1-41.4,0.6-41.3c-9.1-0.2-18.2,0.2-27.3,1.1c-0.5-12.8-1-25.7-1.5-38.5
		c-4.9,0.5-9.7,0.9-14.6,1c0.2,6.1,0.3,12.2,0.5,18.4c-3.9,0.3-7.8,0.1-11.7-0.5c0.2,5,0.4,10.1,0.6,15.1c-3.9,0.6-7.8,0.8-11.7,0.6
		c0,4.5,0,8.9,0,13.4c-3.7,0.5-7.3,0.9-11,1.4c0.3,5.8,0.6,11.5,0.9,17.3c-6.3,0.7-10.2,0.9-11.9-4.6c-1.6-5,0-12.5-0.1-17.8
		c-0.2-5.7-0.3-11.5-1.5-17.1c-0.6-3-1.9-6.3-4.6-7.6c-2.2-1-5-0.7-7.4-0.7c-0.9-9.4-1.8-18.9-2.6-28.3c-0.7,9.9-1,19.7-1,29.6
		c-3.2,1-6.4,2.5-8.8,5c-3.1,3.2-2.9,7.7-2.8,11.9c0.1,5.2,0.2,10.4,0.3,15.6c-4.7-6-10.6-11.3-16.5-16.1c-1.7-1.4-3.3-2.7-5-4
		c-0.3-4.8-0.6-9.5-0.8-14.3c-4.1,0.2-8.2,0.2-12.3,0.5c-0.6-12.8-0.5-26-0.1-38.9c-6.8,0.8-14.5,1.1-21.3,1.6
		c0.3,11.1,0.3,22.1,0.2,33.1c-2-0.4-4-0.7-6-0.9c-10.8-0.9-21.7,2.1-31.3,7.3c0-5.7,0.2-11.4,0.6-17.1c-11.8,1.1-24.3,2-36.1,3.1
		c0.7,5.5,0.7,11.6,1,17.1c0.5,9.2,0.5,18.5,0.5,27.8c-0.3,0.4-0.6,0.8-1,1.2c-3.4,4.4-6.8,8.9-10,13.4c0-2.8,0-5.5-0.1-8.3
		c-0.1-3.7-0.2-7.4-0.3-11.1c-0.1-3.7-0.3-7.4-0.5-11.1c-0.8-15-3.2-29.4-1.4-44.5c-5.7,4-9.5,10.8-15.9,13.4
		c-6.2-2.8-11.9-6.5-17-10.9c0.4,20.8,0.8,41.5,2,62.3c-3-0.7-5.9-1.3-9-1.8c-0.6-10.5-1.9-21-2.8-31.4c-3.9,0.4-7.7,0.8-11.6,1.3
		c0.4,3.7,0.5,7.4,0.3,11.1c-1.1,0-12.1,0.8-12.2,0c-1-7-1.3-14.2-1-21.3c0-1.1,0.1-2.2-0.2-3.2c-0.4-1.6-9.9-11.7-9.4-12.3
		c-2.8,3.1-5.7,6.3-8.5,9.4c-0.7,0.8-1.4,1.5-1.7,2.5c-0.4,1.1-0.3,2.3-0.2,3.4c1.2,15,1.9,29.9,2.2,44.9c-3.4,1.2-6.8,2.5-10.1,4
		c-0.4-12.1-0.5-24.3-0.6-36.3c-0.7,0.1-2.1,0.1-2.8,0.2c-5.9,0.4-11.8,1.3-17.7,2.5c-0.2,0-0.4,0.1-0.4,0.2c-0.1,0.1,0,0.3,0.1,0.3
		c-0.6,0.2-0.6,0.8-0.5,1.4c0.9,9.6,1,19.2,0.4,28.9c0.3,0.1,0.3,0.1,0,0.3c-0.3,0.2-0.6,0.2-0.9,0.2c-2.5-0.1-4.9-0.6-7.4-0.4
		c0.1-7.4,1.2-14.8,1.3-22.2c0.1-7.4-0.2-14.9-0.8-22.3c-1.5,0.2-2.9,0-4.4,0.1c-1.2,0.1-2.4,0.1-3.6,0.2c-2-10.5-3-21.2-2.9-31.9
		c-1.4,10.7-2.2,21.5-2.5,32.3c-0.1,0-0.1,0-0.2,0c-1.1,0.1-2.2,0.2-3.3,0.3c-2.3,0.2-4.6,0.4-6.8,0.8c-0.3,15.6,0.3,30.9,1.2,46.4
		c0,0.5,0.1,1.1,0.1,1.6c-2,0.5-4,0.7-6.1,0.9c0-3.6-0.1-7.2-0.1-10.9c-0.1-3.5-0.2-7.2-1.8-10.3c-1.4-2.8-3.4-3.8-6-5.1
		c0.1-2.3-0.4-4.6-1.4-6.7c-0.5,0-1,0-1.6,0c1.2-5.6,0.2-11.6-0.1-17.3c-0.1-2.4-0.2-4.8-0.3-7.2c-1.2,8.4-2.7,16.7-3.6,25.1
		c-0.9,0.6-2,1.1-3.1,1.3c-0.2,2-0.5,4-0.7,6c-0.1,0.4-0.1,0.9-0.3,1.2c-0.8,1.5-3.6,2.3-4.8,3.8c-1.3,1.7-2.3,3.7-2.8,5.8
		c-0.6,2.5-0.5,5.1-0.5,7.6c0.1,2.7,0.1,5.3,0.2,7.9c-2.7,0.3-5.4,0.6-8.1,1.1c0-9.1,0.1-18.3,0.1-27.4c-3.4,0-6.9,0.1-10.3,0.1
		c-0.3-2.5-0.3-5.4-0.2-8c0.1-1.7,0.4-3.4,0.5-5.1c0.1-2.7-0.1-5.4-0.4-8.1c-5.6-0.4-11.3,0.4-16.8,1.3c-1.9,0.3-3.9,0.7-5.8,1
		c-0.3,5.5-0.6,10.4-0.6,15.9c-2,0.6-4.6,0.6-6.6,0.8c-0.7,15.5-0.3,30.4,0.4,45.8c0.2,0.2-1,0.4-1.4,0.4c-2.5,0.2-5.1,0.2-7.6-0.1
		c-0.5-3.1-0.7-6.5-0.5-9.7c0.2-1.9,0.4-3.8,0.5-5.6c0.4-5.3-0.4-10.6,0-15.9c-7.1-1.1-14.7-0.9-21.9,0.4c0,6.6,0.7,12.1,0.7,18.7
		c0,6.9,0,13.8-0.5,20.7v0.1c-2.2,0.4-4.4,0.6-6.6,0.6c-1.7-3.1-1.6-6.9-1.6-10.5c0.3-15.1,0-29.9-0.6-44.9
		c-4.9,0.4-9.8,0.8-14.8,1.4c-0.3,9.4-0.4,18.2-0.7,27.6c-3.7,1.1-7.5,2-11.3,2.6c0.5-10.1,1.3-20,0.8-30.1
		c-5.1,1.1-10.6,0.9-15.8,1c0.3,7.9,0.5,15.8,0.8,23.6h-5.1c-0.2-13.6-0.4-27.2-0.6-40.9c-0.2-14.1-1.1-29.9-11.3-39.7
		c-7.1,2.7-12.2,9.5-14.7,16.7c-2.5,7.2-2.8,15-3.2,22.7c-1.2-7-2.4-14-5.2-20.6c-2.7-6.6-7.1-12.6-13.3-16.1
		c-0.7-0.4-1.4-0.7-2.2-0.6c-1,0.2-1.6,1.2-2.1,2.1c-4.2,8.6-5.1,17.3-4.8,26.7c0.1,2.2-0.3,15.6-0.9,21.9
		c-4.4-5.5-9.3-10.8-14.2-15.9c2.7,6.5,5.1,13.3,6.9,20.1c-1.9,0.2-3.7,0.3-5.6,0.3c0.6,6.7,1.2,13.4,1.8,20.2c0.2,1.6-9,0.9-12,0.7
		c-3.3-2-6.8-3.6-10.3-4.9c0-1-0.1-2-0.1-3c-0.5-11.3,0.2-22.7-1.2-33.9c3.8-1.6,7.7-3.3,10.9-6c3.3-2.6,5.9-6.3,6.4-10.3
		c0.7-5.4-2.4-10.4-6.3-14c-1.1-1-2.3-1.9-3.7-2.3c-1-0.3-2-0.3-3-0.3c-4.5-0.1-9-0.2-13.4,0.6c-4.5,0.8-8.9,2.5-12.2,5.6
		c-1.5,1.3-2.7,2.9-3.7,4.6c-1.5,2.4-2.7,5.1-3,7.9c-0.7,5.2,1.5,10.5,5.4,13.8c3.9,3.3,10.4,4.3,15.5,3.2c-0.6,1.6-0.5,3.4-0.4,5.1
		c0.1,2.3,0.8,4.5,0.9,6.8c0.5,6.6-0.1,13.2-0.7,19.9c-5.1-1.1-10.4-1.5-15.6-1.4c-0.1-1.5-0.2-3-0.3-4.6c-0.4-4.7-0.7-9.2,0-13.9
		c-7.7-0.9-14.3-1.6-22-2.2c0,0,0-0.1,0-0.1c-0.1,0-0.2,0.2-0.2,0.3c-0.5,7-0.5,13.9,0,20.8c0.2,0,0.3-0.1,0.4-0.1
		c0.1,0.1-0.3,0.1-0.4,0.2c0,0,0,0,0-0.1C6.8,93.4,3.4,94.2,0,94.9V144h1200V23.9z"/>
</g>
</svg>
