<svg xmlns="http://www.w3.org/2000/svg" viewBox="0 0 320 63">
<style type="text/css">
	.st0{fill:#FFFFFF;}
</style>
<g>
	<path class="st0" d="M40.6,47.5c1.4-0.3,2.7-0.5,4.1-0.8c0.1,4,0.2,8,0.3,11.9c-1.2-0.2-2.6-0.2-3.8,0c-0.2-1.9-0.4-3.6-0.5-5.5
		C40.6,51.2,40.6,49.3,40.6,47.5 M57.5,56.9c0.4-4.2,0.6-8.1,0.6-12.1c1-0.1,2.1-0.2,3.1-0.3c0.2,4.1,0.5,8.3,0.3,12.4
		C60.2,57.2,58.8,57,57.5,56.9 M87.3,51.8c1.3-2,2.8-3.7,4.6-5.3c0,1.7,0,3.4-0.1,5.1c0,1.2,0.5,4.8-0.2,5.7
		c-0.3,0.5-3.8,0.7-3.9,0.5C87.6,55.8,87.4,53.8,87.3,51.8 M114.5,41.1c1.5,0.3,3.1,0.8,4.5,1.3c0.2,3.1,0.4,6.2,0.7,9.3
		c-1.5,0.1-3.1,0.2-4.6,0.1c-0.2-2.9-0.3-5.9-0.5-8.8C114.6,42.4,114.5,41.7,114.5,41.1 M137.3,45.3c0.1-0.1,0.2-0.3,0.3-0.4
		c1-1.3,2-2.7,3-4c0,0.8,0,1.5,0,2.3C139.5,43.9,138.4,44.5,137.3,45.3 M157.6,22.8c0.2-0.1,0.4-0.2,0.6-0.3
		c0.8,4.4,1.6,8.9,2.3,13.3c-0.8,0.1-1.6,0.3-2.3,0.5C157.9,31.8,157.7,27.3,157.6,22.8 M158.4,40.4c2-0.4,4-0.5,6.1-0.4
		c0.1,4.7,0.1,9.4,0,14.1c-1.7,0.1-3.5,0.1-5.2,0.2C158.9,49.7,158.6,45,158.4,40.4 M164.7,26.1c-0.4,0.1-0.7,0.1-1.1,0.2
		c0.3,2.9,0.5,5.9,0.7,8.8c-0.4,0-0.8,0.1-1.2,0.2c0-4.9-0.4-9.8-1.3-14.5c0.3-0.1,0.7-0.3,1-0.4c0.6,0.9,0.9,2,1.2,3
		C164.2,24.3,164.4,25.2,164.7,26.1 M165.5,26c-0.3-2-0.7-4-1.1-6c0.3-0.1,0.5-0.1,0.8-0.2c0.5,0.5,0.9,1.2,1.1,1.9
		c0.5,1.3,0.8,2.6,1.1,4C166.7,25.8,166.1,25.9,165.5,26 M167.8,25.6c-0.2-2.1-0.4-4.2-0.7-6.3c0.1,0,0.1,0,0.2,0
		c1.1,1.8,1.7,4,2,6.1C168.8,25.5,168.3,25.6,167.8,25.6 M169.9,19c0.2,0,0.4,0,0.6,0c0.4,0.5,0.6,1.3,0.7,1.9
		c0.9,4.5,1.2,9.2,1.1,13.8c-0.2,0-0.5,0-0.7,0c0.1-3.1,0-6.3-0.1-9.4c-0.5,0-0.9,0.1-1.4,0.1C170.1,23.3,170,21.2,169.9,19
		 M172.5,34.7c0.7-5.2,0.5-10.4,0.3-15.7c0.1,0,0.2,0,0.3,0c1.6,5,1.7,10.4,1.5,15.7C173.9,34.8,173.2,34.7,172.5,34.7 M174.8,34.8
		c0.6-4.4,0.9-8.8,0.9-13.2c0-0.8,0-1.6-0.3-2.3c0.3,0,0.5,0.1,0.8,0.1c-0.1,5.1-0.2,10.3-0.3,15.5
		C175.5,34.9,175.1,34.8,174.8,34.8 M160.4,21.3c1.3,4.6,2.2,9.3,2.5,14c-0.8,0.1-1.5,0.2-2.2,0.4c0.1-4.8-0.1-9.5-0.6-14.2
		C160.2,21.4,160.3,21.4,160.4,21.3 M193.3,28.8c0.5,0.4,0.9,0.7,1.4,1.1c0.2,2.1,0.3,4.1,0.2,6.2c-0.2,0-0.5,0-0.7,0.1
		c-0.1,0-0.1,0.1-0.2,0.1c-0.1,0-0.2,0-0.2,0c0,0,0.1-0.1,0.1,0c-0.2-1.1-0.3-2.1-0.4-3.2C193.5,31.5,193.4,30.1,193.3,28.8
		 M195.2,36c0.3-1.7,0.6-3.4,0.8-5.2c0.2,0.2,0.4,0.3,0.6,0.5c0.2,1.5,0.3,3.1,0.2,4.6C196.2,36,195.7,36,195.2,36 M197.3,36
		c0.3-1.1,0.5-2.2,0.7-3.4c0.2,0.2,0.5,0.4,0.7,0.7c0.1,0.3,0.1,0.6,0.2,0.9c0.1,0.6,0,1.2-0.1,1.9C198.3,36,197.8,36,197.3,36
		 M199.1,38.1c0.3-1.3,0.5-2.6,0.5-4c0.1,0.1,0.3,0.3,0.4,0.4c0.4,2.4,0.4,4.8-0.2,7.2c-0.2-0.1-0.5-0.3-0.7-0.4
		C199.2,40.3,199.1,39.2,199.1,38.1 M199.3,46c1.6,0.8,3.3,1.6,4.9,2.5c0,0.8,0,1.7,0.1,2.5c-1.6-0.2-3.2-0.2-4.8,0
		C199.4,49.3,199.3,47.6,199.3,46 M204.1,44.1c-0.2-0.1-0.4-0.2-0.6-0.3c0.2-0.9,0.4-1.9,0.5-2.9C204,42,204,43,204.1,44.1
		 M203.4,43.7c-0.5-0.3-1.1-0.7-1.7-1c0.4-1.9,0.7-3.8,0.8-5.7c0.2,0.2,0.3,0.4,0.5,0.5C203.5,39.5,203.6,41.6,203.4,43.7
		 M201.6,42.6c-0.5-0.3-1-0.5-1.4-0.8c0.7-1.9,1.1-4,1.3-6c0.1,0.1,0.2,0.2,0.3,0.3C202.2,38.3,202,40.5,201.6,42.6 M310.1,49.5
		c0.4,0.4,0.8,0.7,1.2,1.1c1,0.8,2.2,1.4,3.3,2c0.1,0.6,0.1,1.3,0.2,1.9c-1-0.1-2-0.3-3.1-0.5c-0.5-0.1-1-0.1-1.5-0.2
		C310.2,52.3,310.1,50.9,310.1,49.5 M310.3,54.7c1.6,0.2,3.1,0.6,4.7,0.8c0.1,0.5,0.1,1,0.2,1.5c-1.6-0.1-3.2-0.1-4.8-0.2
		C310.3,56.1,310.3,55.4,310.3,54.7 M314.4,50.1c-0.8-0.6-1.5-1.3-2.1-2.1c0.7-0.2,1.3-0.5,2-0.7c0,0,0,0,0,0.1
		C314.3,48.3,314.4,49.2,314.4,50.1 M0,63h320V37.9c-2.3,0.4-5.8,1-5.9,0.6c0.4,2,0.4,4,0.3,6c-1.5,0.5-2.9,1-4.4,1.5
		c-0.1-4.7-0.1-9.5,0-14.2c0-0.5,0-1-0.1-1.5c-0.1-0.5-0.4-0.9-0.7-1.3c-2.8-3.9-6.5-7.5-9.6-11.2c-1.6,4.3-3.7,8.4-6.2,12.2
		c-0.1,3,0.4,6,0.3,9.1c-0.1,3.4-0.3,6.9-0.4,10.3c-0.3,0-4.5,0.5-4.5,0.6c-0.6-3-0.1-6.4-0.1-9.5c-1.1,0.1-2.2,0.1-3.3,0.1
		c-0.1-0.8-0.2-1.7-0.4-2.5c-0.7,0.6-1.8,0.2-2.4-0.5c-0.6-0.7-1-1.6-1.5-2.3c-1.4-2.1-4.2-3.1-6.5-2.3c-2.4,0.7-4.1,3.2-4.1,5.6
		l-2.1,0.3c0.1,0.7,0.2,1.4,0.1,2.2c-0.9,0.4-1.9,0.5-2.9,0.3c0.1,0.7,0.4,7-0.1,7.1c-1.4,0.3-2.8,0.5-4.2,0.6
		c-0.4-1.6-1-20.6,0.3-20.6c-4.5-0.1-9.1,0.1-13.6,0.6c-0.2-6.4-0.5-12.8-0.7-19.1c-2.4,0.3-4.8,0.4-7.3,0.5c0.1,3,0.2,6.1,0.2,9.1
		c-1.9,0.1-3.9,0.1-5.8-0.2c0.1,2.5,0.2,5,0.3,7.5c-1.9,0.3-3.9,0.4-5.8,0.3c0,2.2,0,4.4,0,6.7c-1.8,0.2-3.7,0.5-5.5,0.7
		c0.2,2.9,0.3,5.7,0.5,8.6c-3.1,0.3-5.1,0.5-5.9-2.3c-0.8-2.5,0-6.2,0-8.8c-0.1-2.9-0.2-5.7-0.8-8.5c-0.3-1.5-0.9-3.1-2.3-3.8
		c-1.1-0.5-2.5-0.3-3.7-0.4c-0.4-4.7-0.9-9.4-1.3-14.1c-0.4,4.9-0.5,9.8-0.5,14.7c-1.6,0.5-3.2,1.3-4.4,2.5
		c-1.6,1.6-1.4,3.9-1.4,5.9c0.1,2.6,0.1,5.2,0.2,7.8c-2.3-3-5.3-5.6-8.2-8c-0.8-0.7-1.7-1.3-2.5-2c-0.1-2.4-0.3-4.7-0.4-7.1
		c-2,0.1-4.1,0.1-6.1,0.2c-0.3-6.4-0.2-12.9,0-19.3c-3.4,0.4-7.2,0.5-10.6,0.8c0.1,5.5,0.2,11,0.1,16.5c-1-0.2-2-0.4-3-0.4
		c-5.4-0.4-10.8,1-15.6,3.6c0-2.8,0.1-5.7,0.3-8.5c-5.9,0.6-12.1,1-18,1.6c0.3,2.7,0.4,5.8,0.5,8.5c0.3,4.6,0.3,9.2,0.2,13.8
		c-0.2,0.2-0.3,0.4-0.5,0.6c-1.7,2.2-3.4,4.4-5,6.7c0-1.4,0-2.8,0-4.1c0-1.8-0.1-3.7-0.2-5.5c-0.1-1.8-0.2-3.7-0.3-5.5
		c-0.4-7.5-1.6-14.6-0.7-22.1c-2.9,2-4.7,5.4-7.9,6.7c-3.1-1.4-5.9-3.2-8.4-5.4c0.2,10.3,0.4,20.7,1,31c-1.5-0.4-3-0.7-4.5-0.9
		c-0.3-5.2-0.9-10.4-1.4-15.6c-1.9,0.2-3.9,0.4-5.8,0.6c0.2,1.8,0.2,3.7,0.1,5.5c-0.5,0-6,0.4-6.1,0c-0.5-3.5-0.6-7.1-0.5-10.6
		c0-0.5,0.1-1.1-0.1-1.6c-0.2-0.8-4.9-5.8-4.7-6.1c-1.4,1.6-2.8,3.1-4.2,4.7c-0.3,0.4-0.7,0.8-0.9,1.2c-0.2,0.5-0.2,1.1-0.1,1.7
		c0.6,7.4,1,14.9,1.1,22.3c-1.7,0.6-3.4,1.2-5,2c-0.2-6-0.3-12.1-0.3-18c-0.4,0-1,0.1-1.4,0.1c-2.9,0.2-5.9,0.6-8.8,1.3
		c-0.1,0-0.2,0-0.2,0.1c0,0.1,0,0.2,0.1,0.2c-0.3,0.1-0.3,0.4-0.3,0.7c0.5,4.8,0.5,9.6,0.2,14.4c0.2,0,0.1,0.1,0,0.2
		c-0.1,0.1-0.3,0.1-0.5,0.1C74.4,40.2,73.2,40,72,40c0-3.7,0.6-7.4,0.7-11c0.1-3.7-0.1-7.4-0.4-11.1c-0.7,0.1-1.4,0-2.2,0
		c-0.6,0-1.2,0.1-1.8,0.1c-1-5.2-1.5-10.5-1.4-15.9c-0.7,5.3-1.1,10.7-1.2,16.1c0,0-0.1,0-0.1,0c-0.5,0.1-1.1,0.1-1.6,0.1
		c-1.1,0.1-2.3,0.2-3.4,0.4c-0.2,7.7,0.2,15.4,0.6,23.1c0,0.3,0,0.5,0,0.8c-1,0.2-2,0.4-3,0.4c0-1.8,0-3.6-0.1-5.4
		c0-1.8-0.1-3.6-0.9-5.1c-0.7-1.4-1.7-1.9-3-2.5c0-1.1-0.2-2.3-0.7-3.3c-0.3,0-0.5,0-0.8,0c0.6-2.8,0.1-5.8,0-8.6
		c0-1.2-0.1-2.4-0.1-3.6c-0.6,4.2-1.4,8.3-1.8,12.5c-0.5,0.3-1,0.5-1.6,0.7c-0.1,1-0.2,2-0.4,3c0,0.2-0.1,0.4-0.1,0.6
		c-0.4,0.8-1.8,1.1-2.4,1.9c-0.7,0.9-1.2,1.8-1.4,2.9c-0.3,1.3-0.3,2.5-0.2,3.8c0,1.3,0.1,2.6,0.1,4c-1.4,0.1-2.7,0.3-4,0.5
		c0-4.5,0-9.1,0.1-13.6c-1.7,0-3.5,0.1-5.1,0c-0.2-1.3-0.2-2.7-0.1-4c0.1-0.8,0.2-1.7,0.2-2.5c0.1-1.3-0.1-2.7-0.2-4
		c-2.8-0.2-5.6,0.2-8.4,0.7c-1,0.2-1.9,0.3-2.9,0.5c-0.2,2.8-0.3,5.2-0.3,7.9c-1,0.3-2.3,0.3-3.3,0.4c-0.3,7.7-0.2,15.1,0.2,22.8
		c0.1,0.1-0.5,0.2-0.7,0.2c-1.3,0.1-2.5,0.1-3.8-0.1c-0.2-1.5-0.3-3.2-0.2-4.8c0.1-0.9,0.2-1.9,0.3-2.8c0.2-2.6-0.2-5.3,0-7.9
		c-3.5-0.5-7.3-0.5-10.9,0.2c0,3.3,0.3,6,0.3,9.3c0,3.4,0,6.9-0.3,10.3V57c-1.1,0.2-2.2,0.3-3.3,0.3c-0.8-1.6-0.8-3.4-0.8-5.2
		c0.1-7.5,0-14.8-0.3-22.3c-0.4,0-0.9,0.1-1.3,0.1V63z"/>
</g>
</svg>
