<svg version="1.1" class="logo" xmlns="http://www.w3.org/2000/svg" viewBox="0 0 269.7 164.3" aria-labelledby="title">
	<title id="title">Tina Boone</title>
<path d="M29.2,80.4c-3.2-0.2-6-0.9-8-3.4c-3.1-4-1.7-15.2-1.7-15.2L35.7,61l0.6-7.6l-16.7,0.5l0.8-53.7L9.6,0L9,54.7l-8.1,0.2
	L0,63.2l8.9-0.4c0,0,0,6.7,0.3,10.1c0.3,2.7,0.7,5.4,2,7.8c2.3,4.4,7.2,7,12.1,7.8s9.9,0.1,14.9-0.6l0.5-8.9
	C35.6,79.8,32.4,80.6,29.2,80.4z M52,24.8v-9.6l-8.5,0.2l0.1,9.8L52,24.8z M90.8,87.6l10.8,0c0,0,1.8-21-0.4-31.3
	c-0.6-2.9-2.1-5.7-4.5-7.8c0,0-0.1-0.1-0.1-0.1c-3.7-3.1-9.3-5-13.2-4.5c-4.5,0.5-11.8,6.5-11.8,6.5l0.2-5.4l-9.1-0.1l-1.4,44.5
	h10.1l0.3-20.7l0.1-9.4c0,0,3.3-2.3,4.8-3.1c2.5-1.4,5.6-2.5,8.4-2.1c4,0.5,6.5,6.1,6.6,8.8C91.6,71.2,90.8,87.6,90.8,87.6z
	 M138,86.7c2.4,2.8,8.7,6.6,8.7,6.6l6.6-5.8c0,0-4.6-2.3-5.3-4.7c-0.8-2.4-0.3-7.5-0.3-7.5l0.9-18.2c0,0,0.3-8.2-1-11.9
	c-1.6-4.4-4.1-6.7-8.6-8.3c-4.4-1.6-9.3-1.8-13.9-1.2c-3.1,0.4-9.8,1.5-9.8,1.5l-0.2,8.9c0,0,13.3-3,19.9-1.3
	c0.9,0.2,1.9,0.5,2.5,1.2c0.8,0.9,0.8,2.2,0.7,3.3c-0.1,3.4-0.2,6.8-0.3,10.2c-6.3-6.2-17.7-5.9-23.9,0.5
	c-6.1,6.4-6.1,17.6-0.2,24.1C119.8,90.6,130.7,91.7,138,86.7z M119.4,66.5c1.3-1.6,3.4-3,5.9-3.3c3.1-0.4,6.4,1,8.6,2
	c1.3,0.6,4,1.9,4,1.9l0.3,10.2c0,0-0.9,0.9-1.5,1.2c-2.6,1.2-5.2,2.5-8,2.8c-2.8,0.3-7.1-0.1-8.8-2.4c-1.3-1.6-2.1-4.1-2.3-6.4
	C117.5,70.4,118,68.3,119.4,66.5z M73,117.6c-4.5-1.9-9.1-1.6-13.8-0.8c-2.1,0.4-7.1,3.8-7.1,3.8l0.8-19.9v0l0.3-9.5l0.4-17.7
	L53.3,38h-9.2l-0.7,71.1L42,135.4l-0.7,25.5l10.6-0.3c0,0,0-3.5,0-4.8c7,4,14.1,4.4,21.3,0.7c7.2-3.7,12.2-11.5,12.3-19.6
	C85.5,128.8,80.5,120.8,73,117.6z M75.9,139.4c-0.1,1.9-1.3,4.2-2.3,5.8c-1.2,1.8-3.5,3.8-5.6,4.4c-7.3,2.2-16.4-1.4-16.4-1.4
	l0.9-18c0,0,4.6-4.8,8.5-5.6c2.2-0.5,4.6-0.4,6.9,0.1c0.7,0.2,1.4,0.4,2.1,0.7c2.8,1.3,5,4,5.5,7.1
	C75.8,134.8,76.1,137.2,75.9,139.4z M114.2,114.9c-2.7-0.5-5.5-0.5-8.2,0.1c-7.4,1.8-12.5,8.8-14.8,16c-1.6,5-2.3,10.5-0.7,15.5
	c2.7,8.8,12.1,14.7,21.3,14c9.1-0.7,17.3-7.5,20.4-16.1c2.1-5.8,2-12.5-0.8-17.9C128,120.1,121.2,116.1,114.2,114.9z M124.5,134.1
	c-0.1,4.2-1.1,8.5-3.6,11.9c-2.5,3.4-6.7,5.7-10.9,5.2c-4-0.4-7.5-3.4-9-7c-1.6-3.7-1.4-8-0.1-11.7c0.5-1.2,1-2.5,1.7-3.6
	c1.3-2.1,3-4,5.2-5.1c3.2-1.6,7.1-1.4,10.5-0.3c1.1,0.3,2.2,0.8,3.1,1.5C124,127.1,124.6,130.8,124.5,134.1z M171.4,119.1
	c-4.1-3.5-9.6-5.4-14.9-4.7c-5.7,0.8-10.8,4.4-13.9,9.2c-3.2,4.8-4.5,10.6-4.5,16.4c0,3.5,0.5,7.1,2.3,10.2c1,1.8,2.5,3.3,4.1,4.6
	c7.2,5.9,18.3,6.9,26,1.7c7.3-5,10.5-14.8,8.8-23.6C178.1,127.6,175.5,122.6,171.4,119.1z M167.4,146.9c-0.1,0.1-0.1,0.2-0.2,0.3
	c-3.6,5.5-16,5.6-19.6-3c-0.5-1.3-0.7-2.7-0.7-4c0-4,1.3-7.9,3.5-11.1c3.4-4.9,15.1-7.5,18.1-0.1c0.8,2,1.3,4.2,1.4,6.4
	C170.2,138.3,168.9,144.4,167.4,146.9z M215.6,112.3c-2.3-1-4.4-1.6-6.7-1.7c-6.9-0.2-15.1,7.8-15.1,7.8l0.1-6l-9-0.2l-0.4,45
	l9.7-0.1c0,0,0.1-8.7,0.2-14.4c0.1-3.5-0.1-7.4-0.1-7.4l0.1-7.6c0,0,2.4-2.1,4-3.6c1.3-1.2,2.4-2.1,4.1-2.8c2.2-0.9,4.7-0.9,6.9,0.1
	c2.8,1.3,4.9,4.5,5.2,7.5c1,9.5-0.1,28.8-0.1,28.8l10.6-0.2c0,0,0.2-20.6-1-30.9C223.4,121.1,221.2,114.7,215.6,112.3z M243.1,133.1
	c8.3-0.2,24.4-0.6,26.4-0.7c0.1,0,0.2,0,0.2,0s-1.4-13.9-6.8-19.3c-4.7-4.7-11.8-6.9-18.3-5.3c-7.5,1.9-12.8,8.1-15.4,15.1
	c-1.5,3.9-2.2,8.1-2.2,12.4c0,5.1,0.9,10.2,3.1,14.8c4,8.5,9.8,13.6,19.1,14.1c4.6,0.3,16.8-2.2,16.8-2.2l0.3-11c0,0-7.3,2.5-12,2.9
	c-2.2,0.2-5.5,0.1-7.7-0.6c-10.5-3.5-9.4-19.9-9.4-19.9S240.2,133.2,243.1,133.1z M244.8,116.8c2.5-0.8,5.3-0.8,7.6,0.5
	c2.3,1.3,5.3,4.1,5.4,7.5c-4.3,0.2-16.4,0.7-20,0.9C238.1,122.7,241,118,244.8,116.8z"/>
</svg>
