<?xml version="1.0" encoding="utf-8"?>
<!-- Generator: Adobe Illustrator 17.1.0, SVG Export Plug-In . SVG Version: 6.00 Build 0)  -->
<!DOCTYPE svg PUBLIC "-//W3C//DTD SVG 1.1//EN" "http://www.w3.org/Graphics/SVG/1.1/DTD/svg11.dtd">
<svg version="1.1" id="stamp" xmlns="http://www.w3.org/2000/svg" xmlns:xlink="http://www.w3.org/1999/xlink" x="0px" y="0px"
	 width="1186.6px" height="16.1px" viewBox="0 0 1186.6 16.1" style="enable-background:new 0 0 1186.6 16.1;" xml:space="preserve"
	>
<style type="text/css">
	.st0{fill:#FFFFFF;}
</style>
<path class="st0" d="M750.7,0c-8.9,0-16.1,7.2-16.1,16.1c0,0,0,0,0,0.1h32.1c0,0,0,0,0-0.1C766.8,7.2,759.6,0,750.7,0z M803.2,0
	c-8.9,0-16.1,7.2-16.1,16.1c0,0,0,0,0,0.1h32.1c0,0,0,0,0-0.1C819.3,7.2,812.1,0,803.2,0z M698.2,0c-8.9,0-16.1,7.2-16.1,16.1
	c0,0,0,0,0,0.1h32.1c0,0,0,0,0-0.1C714.3,7.2,707.1,0,698.2,0z M645.8,0c-8.9,0-16.1,7.2-16.1,16.1c0,0,0,0,0,0.1h32.1
	c0,0,0,0,0-0.1C661.8,7.2,654.6,0,645.8,0z M855.7,0c-8.9,0-16.1,7.2-16.1,16.1c0,0,0,0,0,0.1h32.1c0,0,0,0,0-0.1
	C871.7,7.2,864.5,0,855.7,0z M1013.1,0c-8.9,0-16.1,7.2-16.1,16.1c0,0,0,0,0,0.1h32.1c0,0,0,0,0-0.1C1029.2,7.2,1022,0,1013.1,0z
	 M1170.5,0c-8.9,0-16.1,7.2-16.1,16.1c0,0,0,0,0,0.1h32.1c0,0,0,0,0-0.1C1186.6,7.2,1179.4,0,1170.5,0z M1065.6,0
	c-8.9,0-16.1,7.2-16.1,16.1c0,0,0,0,0,0.1h32.1c0,0,0,0,0-0.1C1081.6,7.2,1074.4,0,1065.6,0z M960.6,0c-8.9,0-16.1,7.2-16.1,16.1
	c0,0,0,0,0,0.1h32.1c0,0,0,0,0-0.1C976.7,7.2,969.5,0,960.6,0z M908.1,0c-8.9,0-16.1,7.2-16.1,16.1c0,0,0,0,0,0.1h32.1
	c0,0,0,0,0-0.1C924.2,7.2,917,0,908.1,0z M593.3,0c-8.9,0-16.1,7.2-16.1,16.1c0,0,0,0,0,0.1h32.1c0,0,0,0,0-0.1
	C609.4,7.2,602.2,0,593.3,0z M1118,0c-8.9,0-16.1,7.2-16.1,16.1c0,0,0,0,0,0.1h32.1c0,0,0,0,0-0.1C1134.1,7.2,1126.9,0,1118,0z
	 M121,0c-8.9,0-16.1,7.2-16.1,16.1c0,0,0,0,0,0.1h32.1c0,0,0,0,0-0.1C137.1,7.2,129.9,0,121,0z M173.5,0c-8.9,0-16.1,7.2-16.1,16.1
	c0,0,0,0,0,0.1h32.1c0,0,0,0,0-0.1C189.6,7.2,182.4,0,173.5,0z M226,0c-8.9,0-16.1,7.2-16.1,16.1c0,0,0,0,0,0.1H242c0,0,0,0,0-0.1
	C242,7.2,234.8,0,226,0z M540.8,0c-8.9,0-16.1,7.2-16.1,16.1c0,0,0,0,0,0.1h32.1c0,0,0,0,0-0.1C556.9,7.2,549.7,0,540.8,0z M16.1,0
	C7.2,0,0,7.2,0,16.1c0,0,0,0,0,0.1h32.1c0,0,0,0,0-0.1C32.1,7.2,24.9,0,16.1,0z M68.5,0c-8.9,0-16.1,7.2-16.1,16.1c0,0,0,0,0,0.1
	h32.1c0,0,0,0,0-0.1C84.6,7.2,77.4,0,68.5,0z M488.3,0c-8.9,0-16.1,7.2-16.1,16.1c0,0,0,0,0,0.1h32.1c0,0,0,0,0-0.1
	C504.4,7.2,497.2,0,488.3,0z M435.9,0c-8.9,0-16.1,7.2-16.1,16.1c0,0,0,0,0,0.1h32.1c0,0,0,0,0-0.1C451.9,7.2,444.7,0,435.9,0z
	 M330.9,0c-8.9,0-16.1,7.2-16.1,16.1c0,0,0,0,0,0.1H347c0,0,0,0,0-0.1C347,7.2,339.8,0,330.9,0z M383.4,0c-8.9,0-16.1,7.2-16.1,16.1
	c0,0,0,0,0,0.1h32.1c0,0,0,0,0-0.1C399.5,7.2,392.3,0,383.4,0z M278.4,0c-8.9,0-16.1,7.2-16.1,16.1c0,0,0,0,0,0.1h32.1
	c0,0,0,0,0-0.1C294.5,7.2,287.3,0,278.4,0z"/>
</svg>
