<svg xmlns="http://www.w3.org/2000/svg" viewBox="0 0 320 7.9">
<style type="text/css">
	.st0{fill:#FFFFFF;}
</style>
<g>
	<path class="st0" d="M312.9,7.9h7.1V0.1C316.1,0.6,313,3.9,312.9,7.9 M0,7.9h7.1C7,3.9,3.9,0.6,0,0.1V7.9z M25.8,0
		c-4.4,0-8,3.5-8.2,7.9H34C33.8,3.5,30.2,0,25.8,0 M52.6,0c-4.4,0-8,3.5-8.2,7.9h16.4C60.7,3.5,57.1,0,52.6,0 M79.5,0
		c-4.4,0-8,3.5-8.2,7.9h16.4C87.5,3.5,83.9,0,79.5,0 M106.3,0c-4.4,0-8,3.5-8.2,7.9h16.4C114.3,3.5,110.8,0,106.3,0 M133.2,0
		c-4.4,0-8,3.5-8.2,7.9h16.4C141.2,3.5,137.6,0,133.2,0 M160,0c-4.4,0-8,3.5-8.2,7.9h16.4C168,3.5,164.4,0,160,0 M186.8,0
		c-4.4,0-8,3.5-8.2,7.9H195C194.9,3.5,191.3,0,186.8,0 M213.7,0c-4.4,0-8,3.5-8.2,7.9h16.4C221.7,3.5,218.1,0,213.7,0 M240.5,0
		c-4.4,0-8,3.5-8.2,7.9h16.4C248.5,3.5,245,0,240.5,0 M267.4,0c-4.4,0-8,3.5-8.2,7.9h16.4C275.4,3.5,271.8,0,267.4,0 M294.2,0
		c-4.4,0-8,3.5-8.2,7.9h16.4C302.2,3.5,298.6,0,294.2,0"/>
</g>
</svg>
