<svg class="icon" xmlns="http://www.w3.org/2000/svg" viewBox="0 0 34 34" aria-labelledby="title">
    <title id="title">Twitter</title>
<path class="icon-twitter" d="M23.3,3.6c-3.7,0-6.7,3-6.7,6.8c0,0.5,0.1,1,0.2,1.5c-5.6-0.3-10.5-3-13.8-7.1C2.4,5.8,2,7,2,8.2
	c0,2.3,1.2,4.4,3,5.6c-1.1,0-2.1-0.3-3-0.8c0,0,0,0.1,0,0.1c0,3.3,2.3,6,5.4,6.6C6.8,19.9,6.2,20,5.6,20c-0.4,0-0.9,0-1.3-0.1
	c0.9,2.7,3.3,4.6,6.3,4.7c-2.3,1.8-5.2,2.9-8.3,2.9c-0.5,0-1.1,0-1.6-0.1c3,1.9,6.5,3,10.3,3C23.3,30.4,30,20.1,30,11.1
	c0-0.3,0-0.6,0-0.9c1.3-1,2.4-2.1,3.3-3.5c-1.2,0.5-2.5,0.9-3.9,1.1c1.4-0.8,2.4-2.2,2.9-3.7c-1.3,0.8-2.7,1.3-4.3,1.6
	C27,4.4,25.2,3.6,23.3,3.6"/>
</svg>
