<svg xmlns="http://www.w3.org/2000/svg" viewBox="0 0 1200 102">
<style type="text/css">
	.st0{fill: white;}
</style>
<path class="st0" d="M355.8,83.7l2.7,0l-2.7-5.1L355.8,83.7z M479.8,71.7l-0.5,0.4l0.4,0.7l-0.3,0l-0.1,0.6l0.2,0.9l2.2-0.2l0.3-0.6
	l-0.5-0.5l-0.2-0.5l0.2-0.7l-0.4-0.4l-0.6-0.3L479.8,71.7z M415.7,69.9l-0.7,0.5l-0.3,0.9l0,0l-0.2,0.8l0,0.8l0.5,0.7l0.4,0.8
	l0.9-0.2l0.7-0.2l0.9-0.2l0.4-0.8l0.2-0.9l-0.4-0.8l-0.2-0.9l-1-0.2l-0.7-0.2L415.7,69.9z M642.9,61.2l-0.2,0l-0.1-0.3l-0.4,0.2
	l-0.1,0.7l0.3,0.3l0.2,0.4L643,62l0.2,0l0.6,0.3l0.3-0.6l0-0.5l-0.5-0.1l-0.3-0.3L642.9,61.2z M67.2,58.8l0.5,2l2.2,0.1l-0.5-2.3
	L67.2,58.8z M927.8,58.8l0.5,2l2.2,0.1l-0.5-2.3L927.8,58.8z M44.9,55l-0.7,1.7l0.4,0.8l0.3,0.8l0.9-0.1l0.7,0.1l0.7,0l0.1,0.2
	l0.7-0.3l0.6-0.6l0-0.9l0.1-1L48,55.3L47.3,55l-0.8-0.6L44.9,55z M905.5,55l-0.7,1.7l0.4,0.8l0.3,0.8l0.9-0.1l0.7,0.1l0.7,0l0.1,0.2
	l0.7-0.3l0.6-0.6l0-0.9l0.1-1l-0.8-0.4L908,55l-0.8-0.6L905.5,55z M702.2,56.3l1.1,0.6l0.8,0.2l1.8-0.2l-0.1-0.1l0.7-1.8l-0.3-1.6
	l-1.4-1L702.2,56.3z M66.6,87.7l-1.1-2.3l0.7-0.8l0.2-0.8l0.7-0.5l0.6-0.6l0-0.2l-1.4-1.1l-0.4-1.7l0-1.2l0.8-0.8l0.6-1l1.3-0.3
	l0.7,0.6l0.5,0.2l0.3,0.4l0.8,0.4l0.1-1.2l1.5-0.3l-0.2,4.4l-1.6,0v-0.8l-0.2-0.6L70.2,79L70,78.4l-0.7-0.2l-0.7,0.3l-0.8-0.4
	l-0.5,0.5L67,79.2l-0.1,0.7l0.4,0.8l0.6,0.5l0.5,0.5l0.7,0.5l1-0.3l-0.3,1.5l-0.7-0.1l-0.6,0.6l-0.8,0.3l-0.4,0.7L67,85.6l0.1,0.7
	l0.4,0.4l0.3,0.7l0.8-0.1l1.1-0.1l0.4-0.9l0.4-0.8l0.2-1l1.4,0l0,0.3l-0.2,0.3l0.2,1.4l-0.5,1.3l-1.4,0.3l-1.2,0.6L66.6,87.7z
	 M67.5,71.3l1.7-1.6l1.7,1.6l-1.7,1.5V73L67.5,71.3z M69,57.8l-1-2.8l1.4,0.1l0.7,2.8l2.4,0.2l0.2,0.7l-2.1,0.2l0.6,1.7l2.2,0.2
	l0.1,1.2l-2.4-0.1l0.7,3.2l-0.8,0.1l-0.7-3.5l-2.1,0.2l0.9,3.2l-1.1,0L67,61.8l-2.6-0.2L64,60.8l2.7,0.2l-0.8-1.9L63.4,59l-0.3-1.6
	l2.6,0.3l-0.7-2.6l1.1,0l0.5,2.8L69,57.8z M61.5,49.7l-0.2,8.8l0.3,8.6l-0.2,8.6l0.6,8.6l0,8.5l4.8,0.1l-1.3,9.3h6.8l1.1-9.2l3.6,0
	l0.1-8.6l-0.2-8.6L77,67l-0.5-8.6l0-8.4l-7.4-0.4L61.5,49.7z M273.8,79.1l-0.7-0.1l0.1-1.5l2.8,0.1l-0.2,1.1l-0.6,0.2l1.3,5.8l1-5.9
	l-0.8,0l0.3-1.2l2.6,0l-0.1,1l-0.5,0.1l-1.7,7.2l-1.8,0.2L273.8,79.1z M274.5,71.1l1.7-1.6l1.7,1.6l-1.7,1.5v0.3L274.5,71.1z
	 M271.7,54l3.3,0.5l0,1.2l-1.2,0.1l1.9,8.7l1.7-8.5l-1.5,0l0.3-1.8l3.5,0.1l0,1.7l-1.1,0l-2.1,10.1l-1.6,0.2l-1.9-10.5l-1.5,0.1
	L271.7,54z M268.4,49.7l-0.2,8.8l0.3,8.6l-0.2,8.6l0.6,8.6l0,8.5l4.8,0.1l-1.3,9.3h6.8l1.1-9.2l3.6,0l0.1-8.6l-0.2-8.6L284,67
	l-0.5-8.6l0-8.4l-7.4-0.4L268.4,49.7z M353.2,83.8l1-0.2l0-6.7l2.3,0l3.3,6.8l0,1.3l-3.9-0.1l0,2.1l0.8,0.1l0.3,1.5l-3.6,0l0.2-1.5
	l1.2,0l0-2.2l-1.6,0.1L353.2,83.8z M354.5,71.3l1.7-1.5v-0.3l1.7,1.7l-1.7,1.6L354.5,71.3z M355.2,56.5l0.4-0.4l0.3-2.2l1-0.1
	l-0.4,2.3l1.9,0.5l0.5,1.7l-0.2,1.1l-0.6,0.7l-0.9,0.4l-1.1,0.2l-0.4,0.6l-0.3,0.4l-0.8,0l0.2,0.7h-0.1l0.2,1l1.1,0.4l0.8-0.4
	l0.8-0.4l-0.1-0.9l0.3-0.9l0.8,0.3l0.2,2.9l-0.7-0.1l-0.1-0.8l-0.8,0.4l0,0.6l0.1,2.5l-1.7-0.1l0.3-2.3l-1.7-0.7l-0.5-1.6l0.4-0.9
	l0.3-0.8l0.6-0.8l1.2,0.1l0.6-0.3l0.6-0.2l0.4-0.4l-0.2-0.7l-0.4-0.6l-0.7-0.3l-0.9-0.1l-0.1,0.8l-0.6,0.5l-0.2,0.6l-1.3,0.3
	l0.1-3.5l1.2,0l-0.1,1.1L355.2,56.5z M348.5,49.7l-0.2,8.8l0.3,8.6l-0.2,8.6l0.6,8.6l0,8.5l4.8,0.1l-1.3,9.3h6.8l1.1-9.2l3.6,0
	l0.1-8.6l-0.2-8.6l0.3-8.6l-0.5-8.6l0-8.4l-7.4-0.4L348.5,49.7z M564.9,78.1l-0.6-0.2l-0.1-1.1l2.9-0.3l0.3,1.6l-0.9,0.1l-1.9,2.8
	l1.6,3l0.7,0.1l0.1,1.1l-2.8-0.3l-0.3-1.1l0.6,0.1l-0.7-1.9l-1.2,1.9l0.6,0.2l0.3,1.1l-2.8-0.1l-0.4-1.1l0.8-0.1l1.8-2.8l-1.5-3
	l-0.8,0l0-1.3l2.8,0.2l0.1,1.1l-0.3,0l0.6,1.9L564.9,78.1z M561.5,71.1l1.7-1.5v-0.3l1.7,1.7l-1.7,1.6L561.5,71.1z M561.9,60.3
	l-2.3-4.3l-0.9-0.2l-0.1-1.4l3.5-0.3l-0.2,1.8l-1,0.1l1.7,3.3l1.6-3.3L563,56l0.1-1.8l3.6,0.1l-0.1,1.7l-1.1-0.1l-2.3,4.4l2.4,4.4
	l0.8,0.1l0.3,1.5l-3.7,0l0.2-1.5l1.1-0.1l-1.7-3.5l-1.6,3.5L562,65l0.3,1.6l-3.7-0.1l-0.1-1.8l1.4,0.2L561.9,60.3z M555.5,49.7
	l-0.2,8.8l0.3,8.6l-0.2,8.6l0.6,8.6l0,8.5l4.8,0.1l-1.3,9.3h6.8l1.1-9.2l3.6,0l0.1-8.6l-0.2-8.6l0.3-8.6l-0.5-8.6l0-8.4l-7.4-0.4
	L555.5,49.7z M644.7,86.9l-0.2-1.1l-0.6-0.8l-0.9-0.5l-0.7-0.8l-1.1-0.2l-0.8-0.8l-0.1-1.2l-0.2-1.2l0.2-1.2l0.2-1.1l0.9-0.6
	l1.1-0.8l0.8,0.1l0.6,0.4l0.4,0.6l0.6,0.5l0-1.3l1.2,0.1l0,4.1l-1.4,0.3l0.1-1.3l-0.4-0.9l-0.7-0.7l-1.1-0.3l-0.7,0.5l-0.2,0.6
	l-0.3,0.5l-0.4,0.7l0.7,0.8l0.2,0.9l0.7,0.7l1.2,0.2l0.7,1l0.8,1l0.5,1.4l0.2,1.9l-6.2,0.3l0.3-3.2l1-0.1l0,1.8L644.7,86.9z
	 M641.7,71.3l1.7-1.6l1.7,1.6l-1.7,1.5V73L641.7,71.3z M640.8,62.6l-1.2-0.5L639,61l-0.3-1.3l0.3-1.9l0.9-1.4l1.4-0.9l1.9,0l1.8,0.4
	l1.1,1.2l0.9,1.4l0.4,1.8h0l-0.4,1.8l-1,1.5l-1.3,1.2l-1.9,0.2l-1.4,0.3l-1.4-0.7l0.8-0.5l0.8,0.5l1.1,0.2l1.6-0.6l1.4-0.8l0.3-1.6
	l0.3-1.5l-0.1-1.5l-0.4-1.4l-1.1-0.9l-1.6-0.4l-2.7,0.7l-0.6,2.7l0.4,0.6l-0.3,0.7l0.4,0.5l0.5,0.5l0.3,0.2l0.3-0.2l-0.3-1.3
	l0.1-1.3l0.4-0.6l-0.2-0.7l0.7,0l0.7,0l0.4-0.4l0.2,0.4l0.3,0.2l0.2,0.3l0-0.7l1.1-0.1l-0.4,1.7l-0.7,0.1l0.1-0.3l-0.6-0.2l-0.2-0.3
	l-0.3-0.1l-0.2,0.1l-0.2,0.3l-0.3,0.4l0.4,0.3l0.2,0.2l0,0.3l0.3-0.3l0.6,0.3l0.7-0.1l0,0.8l0.3,0.5l-0.2,0.5l0,0.5l-0.3,0.4
	l-0.6,0.1l-0.7-0.2l-0.7-0.4l0.1,0.7L640.8,62.6z M635.6,49.7l-0.2,8.8l0.3,8.6l-0.2,8.6l0.6,8.6l0,8.5l4.8,0.1l-1.3,9.3h6.8
	l1.1-9.2l3.6,0l0.1-8.6l-0.2-8.6l0.3-8.6l-0.5-8.6l0-8.4l-7.4-0.4L635.6,49.7z M851.9,78.1l-0.4,0l0.2-1.3l2.5-0.1l0,1.3l-1,0
	l-0.9,7.2l-2.1,0.1l-0.4-6l-0.8,5.9l-1.5-0.1l-1-7.2l-0.8,0l0.1-1.2l2.2,0.1l0.1,1.1l-0.9,0l1,5.4l0.6-5.4l0.1,0l0-1l1.8,0.1l0.2,1
	l-0.5,0l1.1,5.3L851.9,78.1z M848.7,71.1l1.7-1.6l1.7,1.6l-1.7,1.5v0.3L848.7,71.1z M845.7,55.8l-0.6-0.1l0-1.2l2.8,0.1l0.2,1.1
	l-0.8,0.1l1,8.1l0.9-7.8l-0.4-0.1l0.3-1.3l2.5,0l0,1.4l-0.7,0.1l1.6,8.3l0.2-8.4l-0.1-0.2l0-1.3l2.9,0l0,1.3l-0.9,0.1l-1,10.1
	l-1.9-0.1l-1.3-7.8l-1.2,8l-2,0.1L845.7,55.8z M842.6,49.7l-0.2,8.8l0.3,8.6l-0.2,8.6l0.6,8.6l0,8.5l4.8,0.1l-1.3,9.3h6.8l1.1-9.2
	l3.6,0l0.1-8.6l-0.2-8.6l0.3-8.6l-0.5-8.6l0-8.4l-7.4-0.4L842.6,49.7z M927.2,87.7l-1.1-2.3l0.7-0.8l0.2-0.8l0.7-0.5l0.6-0.6l0-0.2
	l-1.4-1.1l-0.4-1.7l0.1-1.2l0.8-0.8l0.6-1l1.3-0.3l0.7,0.6l0.5,0.2l0.3,0.4l0.8,0.4l0.1-1.2l1.5-0.3l-0.2,4.4l-1.6,0l0-0.8l-0.2-0.6
	l-0.3-0.6l-0.3-0.6l-0.7-0.2l-0.7,0.3l-0.8-0.4l-0.5,0.5l-0.3,0.6l-0.1,0.7l0.4,0.8l0.6,0.5l0.5,0.5l0.7,0.5l1-0.3l-0.3,1.5
	l-0.7-0.1l-0.6,0.6l-0.8,0.3l-0.4,0.7l-0.3,0.8l0.1,0.7l0.4,0.4l0.3,0.7l0.8-0.1l1.1-0.1l0.4-0.9l0.4-0.8l0.2-1l1.4,0l0,0.3
	l-0.2,0.3l0.2,1.4l-0.5,1.3l-1.4,0.3l-1.2,0.6L927.2,87.7z M928.1,71.3l1.7-1.6l1.7,1.6l-1.7,1.5V73L928.1,71.3z M929.6,57.8l-1-2.8
	l1.4,0.1l0.7,2.8l2.4,0.2l0.2,0.7l-2.1,0.2l0.6,1.7l2.2,0.2l0.1,1.2l-2.4-0.1l0.7,3.2l-0.8,0.1l-0.7-3.5l-2.1,0.2l0.9,3.2l-1.1,0
	l-0.9-3.5l-2.6-0.2l-0.4-0.8l2.7,0.2l-0.8-1.9L924,59l-0.3-1.6l2.6,0.3l-0.7-2.6l1.1,0l0.5,2.8L929.6,57.8z M922.1,49.7l-0.2,8.8
	l0.3,8.6l-0.2,8.6l0.6,8.6l0,8.5l4.8,0.1L926,102h6.8l1.1-9.2l3.6,0l0.1-8.6l-0.2-8.6l0.3-8.6l-0.5-8.6l0-8.4l-7.4-0.4L922.1,49.7z
	 M1134.4,79.1l-0.7-0.1l0.1-1.5l2.8,0.1l-0.2,1.1l-0.6,0.2l1.3,5.8l1-5.9l-0.8,0l0.3-1.2l2.6,0l-0.1,1l-0.5,0.1l-1.7,7.2l-1.8,0.2
	L1134.4,79.1z M1135.1,71.1l1.7-1.6l1.7,1.6l-1.7,1.5v0.3L1135.1,71.1z M1132.3,54l3.3,0.5l0,1.2l-1.2,0.1l1.9,8.7l1.7-8.5l-1.5,0
	l0.3-1.8l3.5,0.1l0,1.7l-1.1,0l-2.1,10.1l-1.6,0.2l-1.9-10.5l-1.5,0.1L1132.3,54z M1129,49.7l-0.2,8.8l0.3,8.6l-0.2,8.6l0.6,8.6
	l0,8.5l4.8,0.1l-1.3,9.3h6.8l1.1-9.2l3.6,0l0.1-8.6l-0.2-8.6l0.3-8.6l-0.5-8.6l0-8.4l-7.4-0.4L1129,49.7z M46.6,49.6L46,49.8
	l-0.8,0.1l-0.4,0.7l-0.2,0.8L45,52l0.2,0.7l0.9,0l0.6,0.1l0.6,0l0.6-0.2l0.3-0.6l0,0l0.2-0.7l0-0.8l-0.5-0.6l-0.4-0.7L46.6,49.6z
	 M907.2,49.6l-0.6,0.2l-0.8,0.1l-0.4,0.7l-0.2,0.8l0.4,0.7l0.2,0.7l0.9,0l0.6,0.1l0.6,0l0.6-0.2l0.3-0.6l0,0l0.2-0.7l0-0.8l-0.5-0.6
	l-0.4-0.7L907.2,49.6z M703.8,48.4l-0.6,0.3l-0.7,0.6l0.1,0.7l0.3,0.6l0.7,0.2l0.7,0.4l0.1-1.1l0.3,0.1l0.3-0.8l0-0.5l-0.4-0.3
	l-0.2-0.5L703.8,48.4z M619.9,48.4l-0.5,0.6l-0.5,0.8l-0.5,1l-0.1,1l-0.1,0.8l-0.1,0.8l0.4,0.9l0.6,0.9l-0.1,1.1l0.7,0.6l0.9,0.3
	l1-0.3l-0.1-0.1l0.7-0.6l0.5-0.9l0.1-1l0.4-0.9l-0.5-0.8l-0.1-0.8l0.4-1l-0.2-1l-0.4-1l-0.9-0.5l-0.9-0.4L619.9,48.4z M130.2,78.7
	l0.3-0.3l0.2-0.4l-0.3-0.4l-0.3-2.9l0.1-3.1l2.1,0.2l0.5,1.3l-1.2-0.1l-0.1,2.3l0.5,2.2l-0.3,0.6l-0.1,0.6l-0.3,0.6l0,0l-0.3,0.4
	l-0.4,0.2l-0.5,0.3l-0.5-0.3l-0.8,0.2l-0.6-0.4l-0.5-0.7l0.1,1.1l-2.1-0.2l-0.1-1l1.4-0.1l-0.7-7.1l2.6-0.1l-0.1,1.6l-0.9-0.1l0,1.9
	l0,1.8l-0.1,0.7l0.4,0.6l0.7,0.2l0.4,0.7L130.2,78.7z M127.9,64.3l1.7-1.5v-0.3l1.7,1.7l-1.7,1.6L127.9,64.3z M128.2,59l-0.7-1.1
	l-0.6-1.1l-0.3-1.3l-0.4-1.3l0.1-1.3l-0.6-4.4l-0.9,0l0.3-1.7l3.3,0.2l0.1,1.5l-1.1,0l-0.2,4.4l0.2,0.8l0.4,1l-0.4,1.1l0.4,0.9
	l0.6,0.8l1,0.3l0.7-0.5l0.3-0.6l0.4-0.6l0.5-0.8l-0.5-0.8l0.4-0.7l0.1-2.5L131,49l-0.8-0.3l0.2-1.6l3.3,0.1l0.1,1.5l-0.9,0.1
	l-0.3,2.3l0.3,2.4l-0.3,1.1l0.2,0l-0.2,1.2l-0.4,1.1l-0.4,1l-1,0.5l-1,0.7L128.2,59z M121.9,42.7l-0.2,8.8L122,60l-0.2,8.6l0.6,8.6
	l0,8.5l2.9,0l0.5,8.8l0.7,7.4h6.8l-0.4-7.5l-0.9-8.7l5.4,0.1l0.1-8.7l-0.2-8.6l0.3-8.6l-0.5-8.6l0-8.4l-7.4-0.4L121.9,42.7z
	 M193.9,74.1l1.1-2l1.2,0.3l-1.7,1.9L193.9,74.1z M193,62.7l1.6,1.7l-1.6,1.7l-1.5-1.7h-0.3L193,62.7z M195,52.3l0.5,0.2l0.6,0.3
	l0.7,0.1l0.6,0.3l-0.3,0.2l-0.7,1.3l0-0.4l-0.5-0.2l-0.4-0.5l-0.6,0.3l-0.6,0.2l-0.9-0.1l-0.7,0.3l-0.6,0l-0.6,0.1l-0.5-0.5l-0.9,0
	l-0.5-0.7l0.7-1l0.4,0.4l0.4,0.2l0.4,0.2l0.5,0.3l0.8-0.4l0.5-0.7l0.9,0.1L195,52.3z M185.2,42.7l-0.2,8.8l0.3,8.6l-0.2,8.6l0.6,8.6
	l-0.1,8.4l5.6,0.1l-1.2,8.8l-0.7,7.4h6.8l1-7.4l0.7-8.8l2.7,0l0.1-8.6l-0.2-8.6l0.3-8.6l-0.5-8.6l0-8.4l-7.4-0.4L185.2,42.7z
	 M217.9,80.2l-0.3-1.2l0.8,0l0.3-10.4l2.3,0.2l-0.1,1l-0.8,0.2l-0.1,8.9l0.6,0.1l0.2,1.3L217.9,80.2z M218.8,62.7l1.6,1.7l-1.6,1.7
	l-1.5-1.7h-0.3L218.8,62.7z M219.1,58.1l-0.1-8.4l-0.8-0.2l-0.1-1.1l3.4,0.1l0.1,1.1l-1.2,0l0.6,8.5l1-0.1l-0.3,1.7l-6.4,0l0.1-3.1
	l1.1-0.1l0,2.1L219.1,58.1z M211.1,42.7l-0.2,8.8l0.3,8.6l-0.2,8.6l0.6,8.6l0,8.5l2.9,0l0.5,8.8l0.7,7.4h6.8l-0.4-7.5l-0.9-8.7
	l5.4,0.1l0.1-8.7l-0.2-8.6l0.3-8.6l-0.5-8.6l0-8.4l-7.4-0.4L211.1,42.7z M415.2,79.9l-0.7-0.9l-1-0.8l-0.4-1.2l0.3-1.3l0-1.2
	l0.1-1.3l-0.2-1.4l0.5-1.3l0-1.4l1-0.9l1.5-0.2l1.4,0.6l1,0.8l0.6,1.3l0,1.5l0,1.2l-0.3,1.3l-1.3,0.4l-1.2,0.3l-1-0.3l-0.8-0.6
	l-0.1,0.4l0.2,0.3l-0.1,0.6l-0.3,0.8l0.7,0.6l0,0.8l0.4,0.6l0.8-0.3l0.6,0.1l0.4-0.4l0.4-0.5l0.1-0.6l1.5,0l-0.6,1.2l-0.4,1l0,0
	l-0.9,0.6l-1.1,0.2L415.2,79.9z M415,64.3l1.7-1.5v-0.3l1.7,1.7l-1.7,1.6L415,64.3z M415.2,59.3l1.2-1.1l1-1.6l0.3-1.9l0.4-1.8
	l-0.7-1.7l-0.5-1.7l-0.8-1.6l-1-1.4l0.2-1.2l1.2,0.8l0.9,1.2l1,1.2l0.9,1.3l-0.2,1.6l0.2,1.5h0.1l-0.2,1.5l-0.4,1.5l-0.4,1.5l-1,1.2
	l-0.6,1.4l-1.6,0.8L415.2,59.3z M409,42.7l-0.2,8.8l0.3,8.6l-0.2,8.6l0.6,8.6l0,8.5l2.9,0l0.5,8.8l0.7,7.4h6.8l-0.4-7.5l-0.9-8.7
	l5.4,0.1l0.1-8.7l-0.2-8.6l0.3-8.6l-0.5-8.6l0-8.4l-7.4-0.4L409,42.7z M477.9,73.8h0.1l0.2-1.4l0.4-1l0.6-0.8l1.3,0l1-0.3l0.8,0.5
	l0.1,1l0.3,0.8l0.1,0.9l0.3,0.8l-0.2,0.9l0.4,1.1l-0.3,1l-0.6,0.8l-0.9,0.4l-1,0.3l-0.9-0.3l-0.5-0.7l-0.6-0.7l-0.4-1.3l1.5,0.5
	l0,0.3l0.2,0.5l0.4,0.4l0.6-0.1l0.2-0.3l0.3-0.2l0.5-0.3l-0.4-0.6l0.4-0.5l0-0.6l-3.6,0.4L477.9,73.8z M478.4,64.3l1.7-1.6l1.7,1.6
	l-1.7,1.5v0.3L478.4,64.3z M477.2,51.2l0.1-2.9l6.7-0.1l0,1.5l-1.1,0l-0.1,8.7l1.1,0l0,1.2l-6.8,0.3l0-3.5l1.2,0.2l0.1,1.9l3.5,0.1
	l-0.2-4l-2.5-0.4l-0.3-1.2l2.4,0.1l0.1-3.5l-3-0.2l-0.2,1.8L477.2,51.2z M472.3,42.7l-0.2,8.8l0.3,8.6l-0.2,8.6l0.6,8.6l-0.1,8.4
	l5.6,0.1l-1.2,8.8l-0.7,7.4h6.8l1-7.4l0.7-8.8l2.7,0l0.1-8.6l-0.2-8.6l0.3-8.6l-0.5-8.6l0-8.4l-7.4-0.4L472.3,42.7z M505.7,76.8
	l0.4,0.2l-0.2,0.6l0.1,0.3l-0.1,0.3l0,0.4l-0.4,0l-0.3,0.6l-0.5-0.1l-0.3-0.4l0-0.5l-0.1-0.4h0l0.2-0.3l0.2-0.2l0.2-0.3l0.4,0.2
	L505.7,76.8z M505.9,62.7l1.6,1.7l-1.6,1.7l-1.5-1.7h-0.3L505.9,62.7z M501.3,54.4l-0.1-1.1l6.7-4l0.5,1.1l-5.5,3.3l5.8,2.8
	l-0.9,1.5L501.3,54.4z M498.2,42.7l-0.2,8.8l0.3,8.6l-0.2,8.6l0.6,8.6l0,8.5l2.9,0l0.5,8.8l0.7,7.4h6.8l-0.4-7.5l-0.9-8.7l5.4,0.1
	l0.1-8.7l-0.2-8.6l0.3-8.6l-0.5-8.6l0-8.4l-7.4-0.4L498.2,42.7z M707,68.5l0.1,3.2l-1.4-0.1l0-1.6l-3.7,0.1l2.9,8.5l0.8,0.1l0.3,1.5
	l-3.6,0l0.2-1.5l1.2-0.2l-2.7-8.5l-0.2-1.3l5.9,0.1L707,68.5z M702.1,64.3l1.7-1.5v-0.3l1.7,1.7l-1.7,1.6L702.1,64.3z M703.6,52.1
	l-1-0.6l-0.9-0.4l0-1l-0.2-0.8l0.2-0.9l0.4-0.7l0.5-0.8l1-0.4l1.5,0.6l0.5,1.4l0.7,0.9l-0.5,1.1l-0.6,1l1.3,0.4l0.6,1.1l0.5,1
	l0.1,1.2l-0.6,2.1l0,0l-1.8,1.2l-0.6,0.1l-0.6,0.2l-0.7-0.3l-0.8,0.3l-0.7-0.3l-0.6-0.8l-0.5,1l-1-0.8l0.7-1.4l-0.2-0.9l-0.9-0.8
	l-0.3-1l0-1l1.6-0.3l0.2,1.3l0.6,1.3L703.6,52.1z M696.1,42.7l-0.2,8.8l0.3,8.6l-0.2,8.6l0.6,8.6l0,8.5l2.9,0l0.5,8.8l0.7,7.4h6.8
	l-0.4-7.5l-0.9-8.7l5.4,0.1l0.1-8.7l-0.2-8.6l0.3-8.6l-0.5-8.6l0-8.4l-7.4-0.4L696.1,42.7z M764.7,70.3l1.4-0.2l0.2,0.9l0.6-0.4
	l0.7-0.2l0.9,0.2l0.5,0.7l0.7,0.7l0.7,0.8l-0.4,1.1l0.1,0.9l-0.1,0.9l-0.2,0.9l0,1l-0.3,0.9l-0.9,0.5l-1.1-0.2l-1.3,0.1l-0.6-1.1
	l-0.3-1.2l-0.4-1.5l1.4,0.3l0.1,0.7l0.1,0.7l0.4,0.6l0.6,0l0.7,0.2l0.2-0.6l0.4-0.6l-0.3-0.7l0.1-0.6l0-0.5h0.1l0.1-0.5l0-0.6
	l-0.3-0.7l0-0.7l-0.7-0.2l-0.3-0.1l-0.7-0.2l-0.4,0.6l-0.3,0.7l0.3,0.5l-1.1,0L764.7,70.3z M765.5,64.3l1.7-1.6l1.7,1.6l-1.7,1.5
	v0.3L765.5,64.3z M763.6,47.9l1.4,0l0.2,1.3l0.9-0.7l1.1-0.5l1.2,0.5l1.3,0.4l0.7,1.1l0.4,1.3l0.2,1.4l0,1.3l-0.2,1.2l-0.3,1.3
	l-0.3,1.3l-0.9,0.9l-0.7,1.1l-1.4,0.4l-1.5-0.8l-1-0.9l-0.5-1.4l-0.5-1.5l1.2,0.2l0.5,0.7l0.3,0.9l0.5,0.7l0.9,0.5l0.9-0.3l0.7-0.6
	l0.6-0.8l0.1-1.1l-0.2-1l0.6-0.8l-0.1-0.9l-0.1-1l-0.3-1l-0.7-0.7l-0.8-0.4l-0.7-0.3l-0.7-0.2l-0.2,0.7l-0.6,0.2l-0.4,0.5l0.2,0.7
	l-0.4,0.6l-1.4,0L763.6,47.9z M759.4,42.7l-0.2,8.8l0.3,8.6l-0.2,8.6l0.6,8.6l-0.1,8.4l5.6,0.1l-1.2,8.8l-0.7,7.4h6.8l1-7.4l0.7-8.8
	l2.7,0l0.1-8.6l-0.2-8.6L775,60l-0.5-8.6l0-8.4l-7.4-0.4L759.4,42.7z M794.6,76.7l0.1-0.4l0-2.9l-0.3-3l2.3-0.3l0.2,1.7l-1.1-0.1
	l0.5,2.4l-0.3,2.3l-0.1,0.6l0.4,0.7l-0.4,0.5l-0.3,0.5l-0.5,0.3l0,0l-0.6,0l-0.5-0.2l-0.6-0.1l-0.3-0.6l-0.5-0.2l-0.1,1.5l-2.4-0.5
	l0-1l1.4-0.2l-0.4-7l2,0.3l0.3,1.2l-0.8,0.1l0,1.6l-0.2,1.8l0.1,0.6l0.2,0.7l0.3,0.7l0.8,0l0.2-0.4l0.6,0.1L794.6,76.7z M791.2,64.3
	l1.7-1.5v-0.3l1.7,1.7l-1.7,1.6L791.2,64.3z M792.1,60l-0.7-1.1l-0.6-1.1l-0.3-1.3l-0.4-1.3l0.1-1.3l-0.6-4.4l-0.9,0l0.3-1.7
	l3.3,0.2l0.1,1.5l-1.1,0l-0.2,4.4l0.2,0.8l0.4,1l-0.4,1.1l0.4,0.9l0.6,0.8l1,0.3l0.7-0.5l0.3-0.6l0.4-0.6l0.5-0.8l-0.5-0.8l0.4-0.7
	l0.1-2.5l-0.5-2.3l-0.8-0.3l0.2-1.6l3.3,0.1l0.1,1.5l-0.9,0.1l-0.3,2.3l0.3,2.4l-0.3,1.1l0.2,0l-0.2,1.2L796,58l-0.4,1l-0.9,0.5
	l-1,0.7L792.1,60z M785.3,42.7l-0.2,8.8l0.3,8.6l-0.2,8.6l0.6,8.6l0,8.5l2.9,0l0.5,8.8l0.7,7.4h6.8l-0.4-7.5l-0.9-8.7l5.4,0.1
	l0.1-8.7l-0.2-8.6l0.3-8.6l-0.5-8.6l0-8.4l-7.4-0.4L785.3,42.7z M990.8,78.7l0.3-0.3l0.2-0.4l-0.3-0.4l-0.3-2.9l0.1-3.1l2.1,0.2
	l0.6,1.3l-1.2-0.1l-0.1,2.3l0.5,2.2l-0.3,0.6l-0.1,0.6l-0.3,0.6l0,0l-0.3,0.4l-0.4,0.2l-0.5,0.3l-0.5-0.3l-0.8,0.2l-0.6-0.4
	l-0.5-0.7l0.1,1.1l-2.1-0.2l-0.1-1l1.4-0.1l-0.7-7.1l2.6-0.1l-0.1,1.6l-0.9-0.1l0,1.9l0,1.8l-0.1,0.7l0.4,0.6l0.7,0.2l0.4,0.7
	L990.8,78.7z M988.5,64.3l1.7-1.5v-0.3l1.7,1.7l-1.7,1.6L988.5,64.3z M988.8,59l-0.7-1.1l-0.6-1.1l-0.3-1.3l-0.4-1.3l0.1-1.3
	l-0.6-4.4l-0.9,0l0.3-1.7l3.3,0.2l0.1,1.5l-1.1,0l-0.2,4.4l0.2,0.8l0.4,1l-0.4,1.1l0.4,0.9l0.6,0.8l1,0.3l0.7-0.5l0.3-0.6l0.4-0.6
	l0.5-0.8l-0.5-0.8l0.4-0.7l0.1-2.5l-0.5-2.3l-0.8-0.3l0.2-1.6l3.3,0.1l0.1,1.5l-0.9,0.1l-0.3,2.3l0.3,2.4l-0.3,1.1l0.2,0l-0.2,1.2
	l-0.4,1.1l-0.4,1l-1,0.5l-1,0.7L988.8,59z M982.5,42.7l-0.2,8.8l0.3,8.6l-0.2,8.6l0.6,8.6l0,8.5l2.9,0l0.5,8.8l0.7,7.4h6.8l-0.4-7.5
	l-0.9-8.7l5.4,0.1l0.1-8.7l-0.2-8.6l0.3-8.6l-0.5-8.6l0-8.4l-7.4-0.4L982.5,42.7z M1054.5,74.1l1.1-2l1.2,0.3l-1.7,1.9L1054.5,74.1z
	 M1053.6,62.7l1.6,1.7l-1.6,1.7l-1.5-1.7h-0.3L1053.6,62.7z M1055.6,52.3l0.5,0.2l0.6,0.3l0.7,0.1l0.6,0.3l-0.3,0.2l-0.7,1.3l0-0.4
	l-0.5-0.2l-0.4-0.5l-0.6,0.3l-0.6,0.2l-0.9-0.1l-0.7,0.3l-0.6,0l-0.6,0.1l-0.5-0.5l-0.9,0l-0.5-0.7l0.7-1l0.4,0.4l0.4,0.2l0.4,0.2
	l0.5,0.3l0.8-0.4l0.5-0.7l0.9,0.1L1055.6,52.3z M1045.8,42.7l-0.2,8.8l0.3,8.6l-0.2,8.6l0.6,8.6l-0.1,8.4l5.6,0.1l-1.2,8.8l-0.7,7.4
	h6.8l1-7.4l0.7-8.8l2.7,0l0.1-8.6l-0.2-8.6l0.3-8.6l-0.5-8.6l0-8.4l-7.4-0.4L1045.8,42.7z M1078.5,80.2l-0.3-1.2l0.8,0l0.3-10.4
	l2.3,0.2l-0.1,1l-0.8,0.2l-0.1,8.9l0.6,0.1l0.2,1.3L1078.5,80.2z M1079.4,62.7l1.6,1.7l-1.6,1.7l-1.5-1.7h-0.3L1079.4,62.7z
	 M1079.7,58.1l-0.1-8.4l-0.8-0.2l-0.1-1.1l3.4,0.1l0.1,1.1l-1.2,0l0.6,8.5l1-0.1l-0.3,1.7l-6.4,0l0.1-3.1l1.1-0.1l0,2.1L1079.7,58.1
	z M1071.7,42.7l-0.2,8.8l0.3,8.6l-0.2,8.6l0.6,8.6l0,8.5l2.9,0l0.5,8.8l0.7,7.4h6.8l-0.4-7.5l-0.9-8.7l5.4,0.1l0.1-8.7l-0.2-8.6
	l0.3-8.6l-0.5-8.6l0-8.4l-7.4-0.4L1071.7,42.7z M436.8,40.2l-0.5,0.3l0,0.6l-0.3,0.5l0.6,1.5l0,1.6l-0.1,0.4l0,0.6l0.4,0.4l0.5,0.2
	l0.6,0l0.2-0.6l-0.1-0.6l0.6-0.4l0-0.6l-0.1,0l0.1-0.5l0.1-0.5l-0.2-0.7l0.1-0.8l-0.7-0.5l-0.3-0.4l-0.4-0.6L436.8,40.2z M26.1,38.2
	l-0.6,0.2l0.3,0.7l0.1,0.4l-0.1,0.7l0.5,0.3l0.6,0.2l0.5-0.3l0.6,0l0-0.7l0.1-0.3l-0.1-0.8l0.2-0.1l-0.9-0.5l-0.6,0L26.1,38.2z
	 M886.7,38.2l-0.6,0.2l0.3,0.7l0.1,0.4l-0.1,0.7l0.5,0.3l0.6,0.2l0.5-0.3l0.6,0l0-0.7l0.1-0.3l-0.1-0.8l0.2-0.1l-0.9-0.5l-0.6,0
	L886.7,38.2z M545.7,36.4l-0.6,0.2l0.3,0.7l0.1,0.4l-0.1,0.7l0.5,0.3l0.5,0.2l0.5-0.3l0.6,0l0-0.7l0.1-0.3l-0.1-0.8l0.2-0.1
	l-0.9-0.5l-0.6,0L545.7,36.4z M235.7,59.7l1.2-0.1l5.1,12l-1.1,0.1L235.7,59.7z M237.5,55.4l1.6-1.7l1.5,1.7h0.3L239,57L237.5,55.4z
	 M239.5,48.2l0.4,0.3l0.2,0.5l-0.1,0.5l0,0.4l0,0l-0.3,0.2l-0.3,0.1l-0.3,0.2l-0.3-0.3l-0.6,0.2l-0.3-0.4l0.4-0.5l0.1-0.3l0.2-0.2
	l0.1-0.4l0.4,0.1L239.5,48.2z M238.5,47.9l-0.1-1.7l-1.5-0.5l-1.2-0.8l0-1.5l-0.2-1.4l0.2-1.3l0.5-1l0.7-1l1.4-0.5l0.8,0.2l0.4,0.6
	l0.8,0.1l0.2,0.8l0.1-1.3l1.3,0l-0.3,4.1l-1.1-0.2l-0.2-0.7l-0.2-1l-1-0.4l-0.8-0.2l-0.9-0.2l-0.5,0.7l-0.4,0.8l0.2,0.8l-0.1,1
	l0.9,0.7l0.5,0.7l0.7,0.4l0.7,0.1l-0.2,2.9L238.5,47.9z M231.3,33.7l-0.2,8.8l0.3,8.6l-0.2,8.6l0.6,8.6l-0.1,8.4l5.8,0.1l-1.3,8.9
	l-1,8.8l-0.9,7.5h6.9l0.8-7.5l0.7-8.9l1.5-8.8l2.6,0l0.1-8.6l-0.2-8.6l0.3-8.6l-0.5-8.6l0-8.4l-7.4-0.4L231.3,33.7z M524.5,63.3
	l0.8-0.3l0.3,0.7l0.5-0.2l0.6-0.2l0.7,0.2l0.8,0.2l0.3,0.7l0.7,0.7l-0.1,0.9l-0.4,0.7l-0.6,0.4l-0.7,0.5l-0.6,0.3l-0.7,0.3l-0.3,0.7
	l0.2,0.7l-0.5,0.4l0.2,0.3l0.3,0.3l0.4,0.1l0.3-0.4l0-0.3l0.2-0.2l0.4-0.3l-0.5-0.2l0.3-0.2l1.5,0l0.5,2.8l-1.4,0l-0.2-0.7l-0.6,0.5
	l-0.7,0.2l-0.9,0l-0.5-0.8l-0.6-0.5l0-0.8l-0.3-0.9l0.3-0.7l0.5-0.6l0.7-0.5l0.6-0.2l0.7-0.3l0.1-0.8l-0.1-0.6l0.6-0.4l-0.5-0.2
	l-0.1-0.4l-0.4,0.3l-0.6-0.4l-0.2,0.5l-0.3,0.3l0.1,0.5h0l-0.1,0.2l-1.3,0.2L524.5,63.3z M524.5,55.4l1.7-1.6l1.7,1.6l-1.7,1.5v0.3
	L524.5,55.4z M523.2,38.5l1.2-0.2l0,1.4l0.3-0.6l0.5-0.4l0.6-0.2l0.7,0.1l1.3-0.2L529,39l0.1,1.3l0.5,1.2l-0.4,0.9l0,0.9l-0.9,0.2
	l-0.5,0.6l-0.8,0.2l-0.8,0.5l-0.7,0.5l-0.6,0.5l-0.5,0.6l-0.2,0.8h0l0,0.8l0.2,0.7l0.6,0.3l0.8,0.4l0.8-0.7l0.6-0.6l0.8-0.7l0.1-0.7
	l0.8-0.2l0.5,3.6l-1.2,0l-0.5-1l0,0.8l-0.7,0.4l-0.7,0l-0.8,0.1l-1.2-0.3l-0.7-0.8l-0.7-0.9l-0.5-1.2l0.8-1.2l0.6-0.9l1-0.7l1.2-0.5
	l0.7-0.6l0.4-0.6l0.5-0.4l0.5-0.7l-0.6-0.6l0.1-0.7l-0.4-0.5l-0.7,0.3l-0.6-0.2l-0.5,0.3l-0.5,0.4l-0.3,0.6l0,0.7l-0.3,0.3l-1.2,0.3
	L523.2,38.5z M518.4,33.7l-0.2,8.8l0.3,8.6l-0.2,8.6l0.6,8.6l-0.1,8.4l5.8,0.1l-1.3,8.9l-1,8.8l-0.9,7.5h6.9l0.8-7.5l0.7-8.9
	l1.5-8.8l2.6,0l0.1-8.6l-0.2-8.6l0.3-8.6l-0.5-8.6l0-8.4l-7.4-0.4L518.4,33.7z M812.1,60.2l2.4-0.1l-0.1,1.3l-0.8,0.2l0,8.4l0.8,0.2
	l0.1,1.1l-3.6-0.2l-0.2-1.1l1.4,0L812.1,60.2z M811.6,55.4l1.6-1.7l1.5,1.7h0.3l-1.7,1.7L811.6,55.4z M812.6,48.8l0.3-0.1l0.3-0.2
	l0.3,0.3l0.6-0.2l0.3,0.4l-0.4,0.5l-0.1,0.3l-0.2,0.2l-0.1,0.4l-0.4-0.1l-0.5,0.5l-0.4-0.3l-0.2-0.5l0.1-0.5l0-0.4l0,0L812.6,48.8z
	 M812.9,47.8l-0.6-9.4l1.9,0.1l-0.7,9.4L812.9,47.8z M805.5,33.7l-0.2,8.8l0.3,8.6l-0.2,8.6l0.6,8.6l-0.1,8.4l5.8,0.1l-1.3,8.9
	l-1,8.8l-0.9,7.5h6.9l0.8-7.5l0.7-8.9l1.5-8.8l2.6,0l0.1-8.6l-0.2-8.6l0.3-8.6l-0.5-8.6l0-8.4l-7.4-0.4L805.5,33.7z M1096.3,59.7
	l1.2-0.1l5.1,12l-1.1,0.1L1096.3,59.7z M1098.1,55.4l1.6-1.7l1.5,1.7h0.3l-1.7,1.7L1098.1,55.4z M1100.1,48.2l0.4,0.3l0.2,0.5
	l-0.1,0.5l0,0.4l0,0l-0.3,0.2l-0.3,0.1l-0.3,0.2l-0.3-0.3l-0.6,0.2l-0.3-0.4l0.4-0.5l0.1-0.3l0.2-0.2l0.1-0.4l0.4,0.1L1100.1,48.2z
	 M1099.1,47.9l-0.1-1.7l-1.5-0.5l-1.2-0.8l0-1.5l-0.2-1.4l0.2-1.3l0.5-1l0.7-1l1.4-0.5l0.8,0.2l0.4,0.6l0.8,0.1l0.2,0.8l0.1-1.3
	l1.3,0l-0.3,4.1l-1.1-0.2l-0.2-0.7l-0.2-1l-1-0.4l-0.8-0.2l-0.9-0.2l-0.5,0.7l-0.4,0.8l0.2,0.8l-0.1,1l0.9,0.7l0.5,0.7l0.7,0.4
	l0.7,0.1l-0.2,2.9L1099.1,47.9z M1091.9,33.7l-0.2,8.8l0.3,8.6l-0.2,8.6l0.6,8.6l-0.1,8.4l5.8,0.1l-1.3,8.9l-1,8.8l-0.9,7.5h6.9
	l0.8-7.5l0.7-8.9l1.5-8.8l2.6,0l0.1-8.6l-0.2-8.6l0.3-8.6l-0.5-8.6l0-8.4l-7.4-0.4L1091.9,33.7z M833.1,33l-0.5,0.3l-0.1,1.2
	l0.3,0.4l0.3,0.5l0.6-0.4l0.3,0l0.8,0.1l0.3-0.8l-0.4-1.2l-1.2-0.1l-0.5-0.1L833.1,33z M314.5,32.5l-0.2,0.5l-0.4,0.3l0.4,0.5l0,3.5
	l0,0.3l0.1,0.5l0.4,0.3l0.4,0.2l0.6,0l0.2-0.6l-0.2-0.7l0.6-0.6l-0.1,0l0.1-0.6l0.1-0.5l-0.2-0.5l0.2-0.6l-0.6-0.5l-0.3-0.5l0-0.7
	l-0.6-0.2L314.5,32.5z M1175.1,32.5l-0.2,0.5l-0.4,0.3l0.4,0.5l0,3.5l0,0.3l0.1,0.5l0.4,0.3l0.4,0.2l0.6,0l0.2-0.6l-0.2-0.7l0.6-0.6
	l-0.1,0l0.1-0.6l0.1-0.5L1177,35l0.2-0.6l-0.6-0.5l-0.3-0.5l0-0.7l-0.6-0.2L1175.1,32.5z M26.8,31.2l-0.5,0.2L26.2,32l0,0L26,32.5
	l0,0.6l0.3,0.6l0.2,0.7l0.7-0.2l0.3-0.2l0.7-0.2l0.2-0.6l0.1-0.6l-0.3-0.6l0-0.6l-0.7,0l-0.4-0.1L26.8,31.2z M887.4,31.2l-0.5,0.2
	l-0.1,0.5l0,0l-0.1,0.5l0,0.6l0.3,0.6l0.2,0.7l0.7-0.2l0.3-0.2l0.7-0.2l0.2-0.6l0.1-0.6l-0.3-0.6l0-0.6l-0.7,0l-0.4-0.1L887.4,31.2z
	 M546.4,29.4l-0.5,0.2l-0.1,0.5l0,0l-0.1,0.5l0,0.6l0.3,0.6l0.2,0.7l0.7-0.2l0.3-0.2l0.7-0.2l0.2-0.6l0.1-0.6l-0.3-0.5l0-0.6l-0.7,0
	l-0.4-0.1L546.4,29.4z M169.8,28.1l-0.5,0.5l0,0.7l-0.3,0.6l0.5,0.7l0,0.5l-0.1,0.5l-0.2,0.6l0.2,0.6l0.2,0.6l0.3,0.6l0.7,0l0.2-0.5
	l0.7,0l0.2-0.5l-0.1,0l0.2-0.5l0.1-1.6l-0.2-1.5l0.2-0.6l-0.6-0.2l-0.3-0.2l-0.4-0.5L169.8,28.1z M1030.4,28.1l-0.5,0.5l0,0.7
	l-0.3,0.6l0.5,0.7l0,0.5l-0.1,0.5l-0.2,0.6l0.2,0.6l0.2,0.6l0.3,0.6l0.7,0l0.2-0.5l0.7,0l0.2-0.5l-0.1,0l0.2-0.5l0.1-1.6l-0.2-1.5
	l0.2-0.6l-0.6-0.2l-0.3-0.2l-0.4-0.5L1030.4,28.1z M437.3,25.6l-0.2-0.2l-0.8,1l0.9,0.1l0.4-0.5l0.6-0.4l-0.1-0.6L437.3,25.6z
	 M111.4,62.7l-1.6-0.3l-0.9-0.8l-0.7-1.1l0.1-1.6l-0.5-8.1l2.7-0.1l-0.3,1.4l-1,0.1l-0.1,6.7l0.4,1.3l0.3,0.9l1-0.2l1.4,0.2
	l-0.1,1.5l-0.5-0.1L111.4,62.7L111.4,62.7z M109.4,47.9l0.4,0.2l-0.2,0.6l0.1,0.3l-0.1,0.3l0,0.4l-0.4,0l-0.3,0.6l-0.5-0.1l-0.3-0.4
	l0-0.5l-0.1-0.4h0l0.2-0.3l0.2-0.2l0.2-0.3l0.4,0.2L109.4,47.9z M110,42.5l1.6,1.7l-1.6,1.7l-1.5-1.7h-0.3L110,42.5z M110,38.9
	l-0.9-0.4l-0.2-1l-0.6-1.1l-0.1-7.4l-0.8-0.2l-0.1-1.2l4.1,0.2l0,1.2l-1.7-0.1l0.6,7.4l0,0.6l0,0.5l0.2,0.5l0.6,0.1l0.5-0.1l0.5-0.3
	l0-0.5l-0.3-0.4l0.5-1l-0.2-0.8l1.5,0.1l-0.1,0.8l0.3,1l0.1,1.1l-0.6,0.9l-0.9,0.3l0,0.1l-1,0.1L110,38.9z M102.2,22.5l-0.2,8.8
	l0.3,8.6l-0.2,8.6l0.6,8.6l0,8.5l2.4,0l1.1,9.5l1.4,9.4l1.3,9.4l1,8.1h6.9l-1.4-8.1l-0.8-9.5l-1.4-9.4l-1.4-9.4l5.9,0.1l0.1-8.7
	l-0.2-8.6l0.3-8.6l-0.5-8.6l0-8.4l-7.4-0.4L102.2,22.5z M395.8,60.8l-0.3-1.2l0.8,0l0.3-7.1l2.3,0.2l-0.1,1l-0.8,0.2l-0.1,5.6
	l0.6,0.1l0.2,1.3L395.8,60.8z M396.7,49.9l0.3-0.1l0.3-0.2l0.3,0.3l0.6-0.2l0.3,0.4l-0.4,0.5l-0.1,0.3l-0.2,0.2l-0.1,0.4l-0.4-0.1
	l-0.5,0.5l-0.4-0.3l-0.2-0.5l0.1-0.5l0-0.4l0,0L396.7,49.9z M395.5,44.1l1.6-1.7l1.5,1.7h0.3l-1.7,1.7L395.5,44.1z M396.4,29.1
	l-0.9-0.2l-0.1-1.2l3.1,0.2l0.2,1.3l-1.1,0l-0.1,8.5l1.1,0l-0.1,1.2l-3.4,0.4l-0.2-1.8l1.6,0.2L396.4,29.1z M389.3,22.5l-0.2,8.8
	l0.3,8.6l-0.2,8.6l0.6,8.6l0,8.5l2.4,0l1.1,9.5l1.4,9.4l1.3,9.4l1,8.1h6.9l-1.4-8.1l-0.8-9.5l-1.4-9.4l-1.4-9.4l5.9,0.1l0.1-8.7
	l-0.2-8.6l0.3-8.6l-0.5-8.6l0-8.4l-7.4-0.4L389.3,22.5z M686.7,50.7l2.6-0.1l-0.4,1.5l-0.9,0.3l-0.3,5.4l1.2-0.1l-0.3,1.3l-2.4,0.1
	l0.2-1l0.4-0.1l-0.1-1.9l-0.1-1.9l0-0.6l-0.1-0.7l-0.5-0.4l-0.5-0.3v0l-0.5,0.1l-0.3,0.3l0,0.5l-0.3,0.4l0.5,2.3l0.1,2.1l0.1,0.3
	l0.1,1l-2.3,0l-0.2-1l0.8,0.1l-0.5-2.4l0-2.2l0.1-0.4l0-0.5l-0.4-0.3l-0.5-0.2l-0.5,0l-0.1,0.5l0.3,0.5l-0.6,0.3l0.1,2.2l0,2.3
	l0.6,0l0.2,1.4l-2.8,0.1l-0.1-1.7l1,0.2l-0.5-2.3l0.3-2.2l0.2-0.9l-0.2-1l0.7-0.6l0.9-0.3l0.5,0.2l0.5,0.2l0.6,0.2l0.3,0.8l0.2-0.8
	l0.4-0.2l0.1-0.6l0.6,0l0.6,0.1l0.5,0.3l0.4,0.5l0.7,0.5L686.7,50.7z M682.4,44.1l1.7-1.5v-0.3l1.7,1.7l-1.7,1.6L682.4,44.1z
	 M677.9,27.1l3.6,0.5l2.2,8.4l1.6-8.3l3.8,0.1l0.1,1.2l-1.6,0.1l0,8.4l1.5,0l-0.1,1.1l-3.8,0.5l-0.1-1.8l1.4,0.2l-0.5-8l-1.8,8.7
	l-1.2,0l-2.1-8.8l0.2,8.1l1-0.1l-0.1,1.8l-3.4-0.2l0-1.5l0.9,0l0-8.8l-1.3,0.1L677.9,27.1z M676.4,22.5l-0.2,8.8l0.3,8.6l-0.2,8.6
	l0.6,8.6l0,8.5l2.4,0l1.1,9.5l1.4,9.4l1.3,9.4l1,8.1h6.9l-1.4-8.1l-0.8-9.5l-1.4-9.4l-1.4-9.4l5.9,0.1l0.1-8.7l-0.2-8.6l0.3-8.6
	l-0.5-8.6l0-8.4l-7.4-0.4L676.4,22.5z M972,62.7l-1.6-0.3l-0.9-0.8l-0.7-1.1l0.1-1.6l-0.5-8.1l2.7-0.1l-0.3,1.4l-1,0.1l-0.1,6.7
	l0.4,1.3l0.3,0.9l1-0.2l1.4,0.2l-0.1,1.5l-0.5-0.1L972,62.7L972,62.7z M970,47.9l0.4,0.2l-0.2,0.6l0,0.3l-0.1,0.3l0,0.4l-0.4,0
	l-0.3,0.6l-0.5-0.1l-0.3-0.4l0-0.5l-0.1-0.4h0l0.2-0.3l0.2-0.2l0.2-0.3l0.4,0.2L970,47.9z M970.6,42.5l1.6,1.7l-1.6,1.7l-1.5-1.7
	h-0.3L970.6,42.5z M970.6,38.9l-0.9-0.4l-0.2-1l-0.6-1.1l0-7.4l-0.8-0.2l-0.1-1.2l4.1,0.2l0,1.2l-1.7-0.1l0.6,7.4l0,0.6l0,0.5
	l0.2,0.5l0.6,0.1l0.5-0.1l0.5-0.3l0-0.5l-0.3-0.4l0.5-1l-0.2-0.8l1.5,0.1l-0.1,0.8l0.3,1l0.1,1.1l-0.6,0.9l-0.9,0.3l0,0.1l-1,0.1
	L970.6,38.9z M962.8,22.5l-0.2,8.8l0.3,8.6l-0.2,8.6l0.6,8.6l0,8.5l2.4,0l1.1,9.5l1.4,9.4l1.3,9.4l1,8.1h6.9l-1.4-8.1l-0.8-9.5
	l-1.4-9.4l-1.4-9.4l5.9,0.1l0.1-8.7l-0.2-8.6l0.3-8.6l-0.5-8.6l0-8.4l-7.4-0.4L962.8,22.5z M45.3,59.5L44.2,59l-0.5-1.1l-0.8-1.2
	l0.1-1l0.8-0.7l0.6-0.6l0.9-0.6l-0.9-0.6l-0.3-0.7l-0.8-0.5l-0.1-0.8l0.4-1.3l0.8-0.9l1-0.7l1.3-0.2l1.2,0.4l1.1,0.5l1,0.9l-0.3,1.4
	L49.5,52l-0.3,0.7l-0.4,0.5l-0.4,0.5l0.9,0.3l0.5,0.8l0,1l0.6,0.9l-0.6,1.4L49,59l-0.9,1l-0.1-0.4l-1.4,0.1L45.3,59.5z M45.1,42.3
	l1.7-1.5v-0.3l1.7,1.7l-1.7,1.6L45.1,42.3z M47.2,25.8l1.1,0.1l0.3,2.3l1.9-1.2l0.6,1.7l-2.2,0.8l1.6,1.8L49.5,32l-1.7-2L46,31.9
	l-1.2-0.6l1.6-1.8l-1.4-1l0.3-1l2.1,1.1L47.2,25.8z M39.1,20.3L38.9,29l0.3,8.6L39,46.2l0.6,8.6l0,8.5l2,0l0.6,10l0.9,10l0.8,10
	l0.6,8.7h6.8l-1-8.6l-0.3-10l-0.9-10l-0.9-10l6.4,0.1l0.1-8.7l-0.2-8.6l0.3-8.6L54.2,29l0-8.4l-7.4-0.4L39.1,20.3z M330.4,52.8
	l-0.1-1.3l5.1,0.1l0,1.2L330.4,52.8z M332.3,42.3l1.6-1.7l1.5,1.7h0.3l-1.7,1.7L332.3,42.3z M332,37.5l-0.1-1.1l5.1-0.1l0,1.4
	L332,37.5z M326.2,20.3L326,29l0.3,8.6l-0.2,8.6l0.6,8.6l0,8.5l2,0l0.6,10l0.9,10l0.8,10l0.6,8.7h6.8l-1-8.6l-0.3-10l-0.9-10
	l-0.9-10l6.4,0.1l0.1-8.7l-0.2-8.6l0.3-8.6l-0.5-8.6l0-8.4l-7.4-0.4L326.2,20.3z M619.4,58l-1-0.6l-0.4-1.2l-0.9-1.1l-0.3-1.3
	l0.4-1.3l0.1-1.1l0.3-1.3l0.2-1.4l0.8-1l0.5-1.2l1.3-0.3l1.4,0.4l0.9,0.9l0.7,1l0.4,1.3l0,1.4l0.3,1.3l0.3,1.3l-0.7,1.2l-0.4,1.3
	l-0.7,1l-0.9,0.7l0.1,0.1l-1.3,0.2L619.4,58z M619.4,42.3l1.6-1.7l1.5,1.7h0.3L621,44L619.4,42.3z M620.8,38.1l-0.7-1.4l-0.8-1.3
	l-0.5-1.5l-0.6-1.4l0.1-1.5l-0.4-1.5l0.4-1.6l0.7-1.4l1-1.2l1-1.1l1.2-0.8l0,1.1l-1,1.3l-0.6,1.8l-1,1.6l-0.1,1.8h0.1l0.1,1.8
	l0.5,1.8l1,1.6l1,1.2l0.1,1.4L620.8,38.1z M613.3,20.3l-0.2,8.8l0.3,8.6l-0.2,8.6l0.6,8.6l0,8.5l2,0l0.6,10l0.9,10l0.8,10l0.6,8.7
	h6.8l-1-8.6l-0.3-10l-0.9-10l-0.9-10l6.4,0.1l0.1-8.7l-0.2-8.6l0.3-8.6l-0.5-8.6l0-8.4l-7.4-0.4L613.3,20.3z M905.9,59.5l-1.1-0.5
	l-0.5-1.1l-0.8-1.2l0.1-1l0.8-0.7l0.6-0.6l0.9-0.6l-0.9-0.6l-0.3-0.7l-0.8-0.5l-0.1-0.8l0.4-1.3L905,49l1-0.7l1.3-0.2l1.2,0.4
	l1.1,0.5l1,0.9l-0.3,1.4l-0.1,0.7l-0.3,0.7l-0.4,0.5l-0.4,0.6l0.9,0.3l0.5,0.8l0,1l0.6,0.9l-0.6,1.4l-0.8,0.9l-0.9,1l-0.1-0.4
	l-1.4,0.1L905.9,59.5z M905.7,42.3l1.7-1.5v-0.3l1.7,1.7l-1.7,1.6L905.7,42.3z M907.8,25.8l1.1,0.1l0.3,2.3l1.9-1.2l0.6,1.7
	l-2.2,0.8l1.6,1.8l-0.9,0.6l-1.7-2l-1.8,1.9l-1.2-0.6l1.6-1.8l-1.5-1l0.3-1l2.1,1.1L907.8,25.8z M899.7,20.3l-0.2,8.8l0.3,8.6
	l-0.2,8.6l0.6,8.6l0,8.5l2,0l0.6,10l0.9,10l0.8,10l0.6,8.7h6.8l-1-8.6l-0.3-10l-0.9-10l-0.9-10l6.4,0.1l0.1-8.7l-0.2-8.6l0.3-8.6
	l-0.5-8.6l0-8.4l-7.4-0.4L899.7,20.3z M1191,52.8l-0.1-1.3l5.1,0.1l0,1.2L1191,52.8z M1192.9,42.3l1.6-1.7l1.5,1.7h0.3l-1.7,1.7
	L1192.9,42.3z M1192.6,37.5l-0.1-1.1l5.1-0.1l0,1.4L1192.6,37.5z M1186.8,20.3l-0.2,8.8l0.3,8.6l-0.2,8.6l0.6,8.6l0,8.5l2,0l0.6,10
	l0.9,10l0.8,10l0.6,8.7h6.8l-1-8.6l-0.3-10l-0.9-10l-0.9-10l4.2,0v-43l-5.5-0.3L1186.8,20.3z M435.2,17.1l-0.4,0.9l-0.5,0.9l0.4,1.1
	l-0.1,0.9l-0.1,0.7l-0.2,1l0.2,1.2l0.3,1.1l0.6,1.1l0.5-1.2l0.4-1.1l1.2-0.1l1-0.3l0-0.2l0.1-0.4l0.1-0.4l-0.2-0.9l0.2-1.2l-0.7-1.1
	l-0.4-1l-0.2-1l-1.1-0.3L435.2,17.1z M290.6,14.5l-0.6,0.3l0.2,0.8l-0.1,0.6l-0.6,0.5l0,0.5l-0.1,0.5l0.4,0.5l0,0.7l0.8,0.2l0.3,0.3
	l0.4,0.2l0.6,0.1l0.4-0.4l0.3-0.5l0.4-0.6l-0.1-0.6l-0.4-0.5l0.5-0.5l-0.1-0.6l-0.1-0.6l-0.3-0.6l-0.1,0.1l-0.4-0.5l-0.7-0.2
	L290.6,14.5z M1151.2,14.5l-0.6,0.3l0.2,0.8l-0.1,0.6l-0.6,0.5l0,0.5l-0.1,0.5l0.4,0.5l0,0.7l0.8,0.2l0.3,0.3l0.4,0.2l0.6,0.1
	l0.4-0.4l0.3-0.5l0.4-0.6l-0.1-0.6l-0.4-0.5l0.5-0.5l-0.1-0.6l-0.1-0.6l-0.3-0.6l-0.1,0.1l-0.4-0.5l-0.7-0.2L1151.2,14.5z
	 M151.1,47.6l-3.8-5.6l0.2-1.7l5,0.3l-0.2,2.3l-1-0.1l-0.1-0.9l-2.3,0.1l3.7,5.6l-0.1,1.6l-4.8-0.5l0.1-2l0.8,0.1l0.2,0.9
	L151.1,47.6z M147.9,32.9l1.7-1.5v-0.3l1.7,1.7l-1.7,1.6L147.9,32.9z M150.9,26l-4.3-8.6l-0.3-1.7l6.2,0.1l-0.1,3.8l-1.3-0.1
	l0.1-2.2l-3.4,0.2l4.3,8.7l0.3,1.6l-6.3-0.1l0.4-3.8l0.8,0.1l0,2.3L150.9,26z M141.9,11.3l-0.2,8.8l0.3,8.6l-0.2,8.6l0.6,8.6
	l-0.1,8.4l5.8,0.1l-1.4,9.8l-1.1,9.8l-1.2,9.8l-1.4,9.8l-0.8,8.5h6.5l1.5-8.4l1.1-9.8l1.2-9.8l1.2-9.8l1-9.8l2.6,0l0.1-8.6l-0.2-8.6
	l0.3-8.6l-0.5-8.6l0-8.4l-7.4-0.4L141.9,11.3z M433.9,50.9l0.2-1.5l0.8,0l0-9.2l-1-0.1l-0.2-1.1l2.3-0.4l-0.2,1.3l0.6-0.3l0.4-0.2
	l0.4-0.2l0.4-0.4l1,0l0.6,0.7l0.1,1l0.8,0.8l-0.2,1l-0.1,0.8l0.1,0.3l-0.1,0.8l-0.2,0.9l-0.1,0.9l-0.6,0.6l-0.3,0.9l-1,0.3l-0.3-0.5
	l-0.3-0.2l-0.2-0.3l-0.6-0.1l-0.1,2.9l1.3-0.2l-0.1,1.7L433.9,50.9z M435,32.9l1.7-1.5v-0.3l1.7,1.7l-1.7,1.6L435,32.9z M433.3,28.3
	l0.3-0.6l0.5-0.4l-0.5-0.7l-0.3-1l-0.3-1l-0.2-1.1l0.1-1.1l-0.2-1l-0.3-1.2l0.7-1.2l0.3-1.2l0.6-1l0.8-0.7l1.1-0.6l1.6,0.1l1.1,1
	l0.4,1.4l0.9,1.3l-0.2,1.6l-0.1,1.4h0.1l-0.1,1.2l-0.3,1.2l-0.2,1.2l-0.8,0.8l-0.6,1.1l-1.3,0.3l-0.4-0.5l-0.6,0l-0.8,1l-0.5,1
	L433.3,28.3z M429,11.3l-0.2,8.8l0.3,8.6l-0.2,8.6l0.6,8.6l-0.1,8.4l5.8,0.1l-1.4,9.8l-1.1,9.8l-1.2,9.8l-1.4,9.8l-0.8,8.5h6.5
	l1.5-8.4l1.1-9.8l1.2-9.8l1.2-9.8l1-9.8l2.6,0l0.1-8.6l-0.2-8.6l0.3-8.6l-0.5-8.6l0-8.4l-7.4-0.4L429,11.3z M725.2,47.6l-3.8-5.6
	l0.2-1.7l5,0.3l-0.2,2.3l-1-0.1l-0.1-0.9l-2.3,0.1l3.7,5.6l-0.1,1.6l-4.8-0.5l0.1-2l0.8,0.1l0.2,0.9L725.2,47.6z M722,32.9l1.7-1.5
	v-0.3l1.7,1.7l-1.7,1.6L722,32.9z M725.1,26l-4.3-8.6l-0.3-1.7l6.2,0.1l-0.1,3.8l-1.3-0.1l0.1-2.2l-3.4,0.2l4.3,8.7l0.3,1.6
	l-6.3-0.1l0.4-3.8l0.8,0.1l0,2.3L725.1,26z M716.1,11.3l-0.2,8.8l0.3,8.6l-0.2,8.6l0.6,8.6l-0.1,8.4l5.8,0.1l-1.4,9.8l-1.1,9.8
	l-1.2,9.8l-1.4,9.8l-0.8,8.5h6.5l1.5-8.4l1.1-9.8l1.2-9.8l1.2-9.8l1-9.8l2.6,0l0.1-8.6l-0.2-8.6l0.3-8.6l-0.5-8.6l0-8.4l-7.4-0.4
	L716.1,11.3z M1011.7,47.6l-3.8-5.6l0.2-1.7l5,0.3l-0.2,2.3l-1-0.1l-0.1-0.9l-2.3,0.1l3.7,5.6l-0.1,1.6l-4.8-0.5l0.1-2l0.8,0.1
	l0.2,0.9L1011.7,47.6z M1008.5,32.9l1.7-1.5v-0.3l1.7,1.7l-1.7,1.6L1008.5,32.9z M1011.5,26l-4.3-8.6l-0.3-1.7l6.2,0.1l-0.1,3.8
	l-1.3-0.1l0.1-2.2l-3.4,0.2l4.3,8.7l0.3,1.6l-6.3-0.1l0.4-3.8l0.8,0.1l0,2.3L1011.5,26z M1002.5,11.3l-0.2,8.8l0.3,8.6l-0.2,8.6
	l0.6,8.6l-0.1,8.4l5.8,0.1l-1.4,9.8l-1.1,9.8l-1.2,9.8l-1.4,9.8l-0.8,8.5h6.5l1.5-8.4l1.1-9.8l1.2-9.8l1.2-9.8l1-9.8l2.6,0l0.1-8.6
	l-0.2-8.6l0.3-8.6l-0.5-8.6l0-8.4l-7.4-0.4L1002.5,11.3z M6.3,10.8L6,11.3L5.4,12l0.3,1.2l0.7,0.8l1.1,0l1.1,0.2V14L9,13.9l0-3.7
	l-1.5,0l-0.9-0.1L6.3,10.8z M866.9,10.8l-0.3,0.5L866,12l0.3,1.2l0.7,0.8l1.1,0l1.1,0.2V14l0.6-0.1l0-3.7l-1.5,0l-0.9-0.1
	L866.9,10.8z M296.9,9.4l-0.6,0.4l-0.1,0.7l-0.4,0.6l0.5,0.7l0,0.5l-0.1,0.5l-0.1,0.6l0.2,0.6l0.3,0.5l0.3,0.5l0.7,0l0.4-0.5
	l0.7,0.1l0.3-0.6l0.2-0.6l0.1-0.6l-0.2,0l0.1-0.5l0.1-0.5l-0.2-0.6l0.1-0.7l-0.7-0.3l-0.4-0.3l-0.5-0.6L296.9,9.4z M1157.5,9.4
	l-0.6,0.4l-0.1,0.7l-0.4,0.6l0.5,0.7l0,0.5l-0.1,0.5l-0.1,0.6l0.2,0.6l0.3,0.5l0.3,0.5l0.7,0l0.4-0.5l0.7,0.1l0.3-0.6l0.2-0.6
	l0.1-0.6l-0.2,0l0.1-0.5l0.1-0.5l-0.2-0.6l0.1-0.7l-0.7-0.3l-0.4-0.3l-0.5-0.6L1157.5,9.4z M832.9,12.3l1.9,0l-1-5.3L832.9,12.3z
	 M169.7,7.3l-0.3,0.6l-0.6,0.7l0.3,1.3l0.7,0.8l1.1,0.1l1.1,0.3v-0.2l0.6-0.1l0-4.2l-1.5,0l-0.9-0.1L169.7,7.3z M1030.3,7.3
	l-0.3,0.6l-0.6,0.7l0.3,1.3l0.7,0.8l1.1,0.1l1.1,0.3v-0.2l0.6-0.1l0-4.2l-1.5,0l-0.9-0.1L1030.3,7.3z M313.2,7.1l-0.4,0.6L312,8.3
	l-0.3,0.9l-0.2,0.9l0.2,0.7l-0.2,0.1l0.6,0.8l0.1,0.9l0.1,1l0.1,1l0.6,0.7l0.8,0.4l0.9,0.2l0.3-0.2l0,0l0.5-0.1l0-8.9l-0.7-0.1
	l-1-0.3L313.2,7.1z M1173.8,7.1l-0.4,0.6l-0.8,0.6l-0.3,0.9l-0.2,0.9l0.2,0.7l-0.2,0.1l0.6,0.8l0.1,0.9l0.1,1l0.1,1l0.6,0.7l0.8,0.4
	l0.9,0.2l0.3-0.2l0,0l0.5-0.1l0-8.9l-0.7-0.1l-1-0.3L1173.8,7.1z M7.9,33.8l2.4,0.2l-0.4,1.6L9,35.7l0,5.4l1.4,0l0.1,1.2l-4,0.4
	l-0.1-1.9l1.4,0l0.1-1.5l-0.1-1.6l-0.1-0.7l-0.3-0.7l-0.7-0.2l-1-0.2l0.4-1.9l0.4,0.3L7,34.7l0.6,0.2l0.8,0.3L7.9,33.8z M6.3,26.5
	L8,24.9l1.7,1.6L8,28v0.3L6.3,26.5z M6.4,15.2l-0.9-0.7l-0.8-0.6l-0.8-0.8l0.4-1.1l0.2-1.3l0.8-0.9l1.1-0.6l1.3-0.5l1.9-0.2l1.9,0.2
	l-0.1,0.2l-0.1,1.5l-1,0l0.1,8.9l0.8,0.2l0.2,1.5l-3.3,0l0.2-1.6l1,0l0.1-4l-1.6,0.1l-1.3,3.9l1.2,0l-0.4,1.8L4,20.6l0.1-1.6l1.1,0
	L6.4,15.2z M0.3,4.6l-0.2,8.8l0.3,8.6l-0.2,8.6l0.6,8.6l-0.1,8.4l5.8,0.1l-1.3,9.3L4,66.2l-1.1,9.3l-1.3,9.3L0.7,94L0,102h6.6
	l0.9-7.9l1.2-9.3l1.1-9.3l0.8-9.3l0.9-9.3l1.5-9.2l2.6,0l0.1-8.6l-0.2-8.6l0.3-8.6l-0.5-8.6l0-8.4L8,4.5L0.3,4.6z M292.8,31.8
	l5.2-0.4l0.6,5.5l-1.6,0.8l-0.6-0.4l-0.6,0l-1,0.1l-0.8,0.4l-0.2,0.9l0.2,1l-0.5,0.8l0.3,0.8l0.5,0.7l0.9,0.3l0.8-0.6l0.2-0.7
	l0.3-0.8l0.3-0.7l1.6-0.6l-0.1,0.6l-0.3,1.4l-0.2,1.5l-1.2,0.7l-1.4,0.3l-1.4-0.4l-0.9-0.8l-0.7-1.2l0.3-1.5h-0.2l0.3-1.3l0.8-1
	l1-0.8l1.4,0l0.5-0.5l0.3,0.3l0.2-3.3l-2.8,0l-0.1,1.7l-1.1,0.2L292.8,31.8z M293.4,26.5l1.7-1.6l1.7,1.6l-1.7,1.5v0.3L293.4,26.5z
	 M290.2,20.8l-0.7-0.6l-0.3-0.8l-0.3-0.7l-0.1-0.8l0.1-0.7l-0.2-0.7l-0.2-0.9l0.8-0.6l0.4-0.7l0.6-0.4l0.8-0.1v-0.2l0.9,0.2l0.6,0.5
	l0.6,0.5l0.1,0.8l0.6,0.7l0.1,0.8l-0.5,0.7l-0.1,0.8l-0.4,0.7l-0.2,0.7l-0.7,0.3l-0.8,0.7L290.2,20.8z M296.7,15.9l-0.4-0.8
	l-0.4-0.6l-0.2-0.8l-0.4-0.7l0.1-0.7l-0.5-0.7l0.2-0.8l0.4-0.8l0.6-0.6l0.6-0.5l0.8-0.2l0.9,0.3l0.8,0.2l0.8,0.5l-0.2,1l0.2,0.8
	l0,0.8l-0.1,0.7l0.2,0l-0.2,0.8l-0.3,0.7l-0.3,0.7l-0.8,0.2l-0.8,0.6L296.7,15.9z M297,20.6l-5.8-12l0.9-0.1l5.5,12.1L297,20.6z
	 M287.3,4.6l-0.2,8.8l0.3,8.6l-0.2,8.6l0.6,8.6l-0.1,8.4l5.8,0.1l-1.3,9.3l-1.1,9.3l-1.1,9.3l-1.3,9.3l-0.9,9.3l-0.7,8h6.6l0.9-7.9
	l1.2-9.3l1.1-9.3l0.8-9.3l0.9-9.3l1.5-9.2l2.6,0l0.1-8.6l-0.2-8.6l0.3-8.6l-0.5-8.6l0-8.4l-7.4-0.4L287.3,4.6z M579.4,31.9l0.3,0.1
	l0.3,0.1l1.6,0.1l0.8,0.9l1,1l0.1,1.4l0.9,0.4l0,1.1l-1.4,0.1l0.2,5.6l1,0.2l0.3,1.5l-3.7,0l-0.1-1.7l1.2,0.1l0-5.6l-1,0l0.1-1.4
	l0.9-0.1l-0.5-1.2l0-1l-0.9-0.3l-1,0L579.4,31.9z M580.5,26.5l1.7-1.6l1.7,1.6l-1.7,1.5v0.3L580.5,26.5z M578.8,12.3l0-3.3l6.6,0.1
	l0,1.5l-1.1,0l-0.1,8.5l1.1,0l-0.1,1.3l-3.5,0.4l-0.1-1.8l1.6,0.2l0-3.6l-2.5-0.3l-0.1-0.8l2.7,0.1l-0.4-3.8l-2.6,0l-0.1,1.7
	L578.8,12.3z M574.4,4.6l-0.2,8.8l0.3,8.6l-0.2,8.6l0.6,8.6l-0.1,8.4l5.8,0.1l-1.3,9.3l-1.1,9.3l-1.1,9.3l-1.3,9.3l-0.9,9.3l-0.7,8
	h6.6l0.9-7.9l1.2-9.3l1.1-9.3l0.8-9.3l0.9-9.3l1.5-9.2l2.6,0l0.1-8.6l-0.2-8.6l0.3-8.6l-0.5-8.6l0-8.4l-7.4-0.4L574.4,4.6z
	 M868.5,33.8l2.4,0.2l-0.4,1.6l-0.9,0.1l0,5.4l1.4,0l0.1,1.2l-4,0.4l-0.1-1.9l1.4,0l0.1-1.5l-0.1-1.6l-0.1-0.7l-0.3-0.7l-0.7-0.2
	l-1-0.2l0.4-1.9l0.4,0.3l0.5,0.3l0.6,0.2l0.8,0.3L868.5,33.8z M866.9,26.5l1.7-1.6l1.7,1.6l-1.7,1.5v0.3L866.9,26.5z M867,15.2
	l-0.9-0.7l-0.8-0.6l-0.8-0.8l0.4-1.1l0.2-1.3l0.8-0.9l1.1-0.6l1.3-0.5l1.9-0.2l1.9,0.2l-0.1,0.2l-0.1,1.5l-1,0l0.1,8.9l0.8,0.2
	l0.2,1.5l-3.3,0l0.2-1.6l1,0l0.1-4l-1.6,0.1l-1.3,3.9l1.2,0l-0.4,1.8l-3.2-0.4l0.1-1.6l1.1,0L867,15.2z M860.9,4.6l-0.2,8.8l0.3,8.6
	l-0.2,8.6l0.6,8.6l-0.1,8.4l5.8,0.1l-1.3,9.3l-1.1,9.3l-1.1,9.3l-1.3,9.3l-0.9,9.3l-0.7,8h6.6l0.9-7.9l1.2-9.3l1.1-9.3l0.8-9.3
	l0.9-9.3l1.5-9.2l2.6,0l0.1-8.6l-0.2-8.6l0.3-8.6l-0.5-8.6l0-8.4l-7.4-0.4L860.9,4.6z M1153.4,31.8l5.2-0.4l0.6,5.5l-1.6,0.8
	l-0.6-0.4l-0.6,0l-1,0.1l-0.8,0.4l-0.2,0.9l0.2,1l-0.5,0.8l0.3,0.8l0.5,0.7l0.9,0.3l0.8-0.6l0.2-0.7l0.3-0.8l0.3-0.7l1.6-0.6
	l-0.1,0.6l-0.3,1.4l-0.2,1.5l-1.2,0.7l-1.4,0.3l-1.4-0.4l-0.9-0.8l-0.7-1.2l0.3-1.5h-0.2l0.3-1.3l0.8-1l1-0.8l1.4,0l0.5-0.5l0.3,0.3
	l0.2-3.3l-2.8,0l-0.1,1.7l-1.1,0.2L1153.4,31.8z M1154,26.5l1.7-1.6l1.7,1.6l-1.7,1.5v0.3L1154,26.5z M1150.8,20.8l-0.7-0.6
	l-0.3-0.8l-0.3-0.7l-0.1-0.8l0.1-0.7l-0.2-0.7l-0.2-0.9l0.8-0.6l0.4-0.7l0.6-0.4l0.8-0.1v-0.2l0.9,0.2l0.6,0.5l0.6,0.5l0.1,0.8
	l0.6,0.7l0.1,0.8l-0.5,0.7l-0.2,0.8l-0.4,0.7l-0.2,0.7l-0.7,0.3l-0.8,0.7L1150.8,20.8z M1157.3,15.9l-0.4-0.8l-0.4-0.6l-0.2-0.8
	l-0.4-0.7l0.1-0.7l-0.5-0.7l0.2-0.8l0.4-0.8l0.6-0.6l0.6-0.5l0.8-0.2L1159,9l0.8,0.2l0.8,0.5l-0.2,1l0.2,0.8l0,0.8l-0.1,0.7l0.2,0
	l-0.2,0.8l-0.3,0.7l-0.3,0.7l-0.8,0.2l-0.8,0.6L1157.3,15.9z M1157.6,20.6l-5.8-12l0.9-0.1l5.5,12.1L1157.6,20.6z M1147.9,4.6
	l-0.2,8.8l0.3,8.6l-0.2,8.6l0.6,8.6l-0.1,8.4l5.8,0.1l-1.3,9.3l-1.1,9.3l-1.1,9.3l-1.3,9.3l-0.9,9.3l-0.7,8h6.6l0.9-7.9l1.2-9.3
	l1.1-9.3l0.8-9.3l0.9-9.3l1.5-9.2l2.6,0l0.1-8.6l-0.2-8.6l0.3-8.6l-0.5-8.6l0-8.4l-7.4-0.4L1147.9,4.6z M89.2,28.8l2.6,0.1l0,1.3
	l-1,0.1l-0.5,9.1l1,0l-0.1,1.2L88.5,41l0.2-1.2l0.7,0.1L89.4,38l0.2-1.8L89,35.8l-0.1-0.5l0.3-0.7l-0.3-0.5l-0.4-0.5l-0.6,0.1
	l-0.6,0l0.2,0.7l-0.1,0.3l-0.2,0.4L87,37.4l0.1,2.3l0.7,0.1l-0.1,1.1l-2.6,0.3l-0.5-1.4l1.3,0.2l0-2.5l0-2.3l0-0.6l-0.2-0.7
	l-0.1-0.7l0.4-0.5l0.7-0.1l0.6-0.6l0.6,0.4l0.5,0.3l0.8,0l0.1,0.7L89.2,28.8z M86.7,24.7l1.7-1.5V23l1.7,1.7l-1.7,1.6L86.7,24.7z
	 M84.2,9.5l-0.6,0L83.5,8L87,8l-0.2,1.3l-0.9,0.2l0.3,4l3.7,0.5l0-4.3l-0.8,0l-0.1-1.3l3.4-0.3l0.3,1.7l-1.2-0.1l-0.3,8.3l1.1,0.1
	l0,1.2l-3.5,0.2l0.3-1.3l0.5-0.2l0-2.7L85.8,15l0,3.4l1.1,0.1l0.2,1.2l-3.5-0.1l-0.3-1.4l0.9,0.1L84.2,9.5z M80.7,3.1l-0.2,8.8
	l0.3,8.6L80.6,29l0.6,8.6l0,8.5l2.1,0l1.9,9.6l2.1,9.5l2,9.5l1.9,9.6l2.3,9.5l2.1,8.2h6.7l-1.8-8.2l-2-9.5l-2.1-9.5l-2.4-9.5
	l-2.3-9.5l-1.7-9.6l6.1,0.1l0.1-8.7L96,29l0.3-8.6l-0.5-8.6l0-8.4L88.4,3L80.7,3.1z M375.9,32.2l2.5,0.3l0.1,1.5l-1.3,0l-0.1,5.4
	l1,0l-0.3,1.3l-2.7,0.2l0.2-1.2l0.7,0.1l-0.1-2l0.2-1.9l-0.6-0.6l-0.3-0.6l-0.1-0.8l-0.8-0.3l-0.6,0.1l-0.1,0.5l-0.3,0.4l0.5,0.5
	l0,2.2l-0.1,2.2l0.5,0.2l0,1.2l-2.7,0.1l0-1.1l0.6-0.2l-0.4-2.3l0.5-2.3l0-0.6l0.1-0.6l0.2-0.5l0-0.6l0.4-0.6l0.8,0l0.6,0.5l0.8-0.2
	l0.3,0.7l0.5,0.5L375.9,32.2z M373.8,24.7l1.7-1.5V23l1.7,1.7l-1.7,1.6L373.8,24.7z M376.4,8l2.8,0.2l0.1,1.5l-1.1,0l-0.3,8.5l1.2,0
	l0,1.5l-3.5-0.2l0.1-1.2l1-0.1l-0.1-7.6l-3.4,9.4l-1.8-0.1l0.2-10.3l-1-0.2l0-1l3.2-0.2l-0.1,1.4l-0.5,0.2l-0.4,7.1L376.4,8z
	 M367.8,3.1l-0.2,8.8l0.3,8.6l-0.2,8.6l0.6,8.6l0,8.5l2.1,0l1.9,9.6l2.1,9.5l2,9.5l1.9,9.6l2.3,9.5l2.1,8.2h6.7l-1.8-8.2l-2-9.5
	l-2.1-9.5l-2.4-9.5l-2.3-9.5l-1.7-9.6l6.1,0.1l0.1-8.7l-0.2-8.6l0.3-8.6l-0.5-8.6l0-8.4L375.5,3L367.8,3.1z M663.3,29.1l2.6-0.3
	l-0.3,1.6l-1,0.1l-0.1,9l0.7,0.1l0.2,1.4l-3,0l0.1-1.2l1,0l-0.2-1.7l-0.7-0.8l-1.3,2.5l0.6-0.2l-0.3,1.2l-2.6,0l0.2-1l0.4-0.1
	l2.6-3.1l-2.5-2.5l-1-0.1l0.2-1.6l3.2,0.3l-0.1,1.1l-0.7,0.1l2.1,2.4L663.3,29.1z M660.8,24.7l1.7-1.5V23l1.7,1.7l-1.7,1.6
	L660.8,24.7z M658.6,19.5l0.3-1l0.7-0.1l3.4-4.7l-3.8-3.9l-0.9-0.1l0-1.8l3.5,0.1l0.1,1.3l-1.1,0.2l3,4l0-3.8l-1.3,0.1l0.5-1.5
	l3.1,0l0,1.3l-1.1,0l0.3,8.5l1.2-0.2l-0.3,1.6l-3.3-0.2l0-1.2l1-0.1l-0.1-4.4l-2.7,4.7l1-0.2l-0.4,1.4L658.6,19.5z M654.9,3.1
	l-0.2,8.8l0.3,8.6l-0.2,8.6l0.6,8.6l0,8.5l2.1,0l1.9,9.6l2.1,9.5l2,9.5l1.9,9.6l2.3,9.5l2.1,8.2h6.7l-1.8-8.2l-2-9.5l-2.1-9.5
	l-2.4-9.5l-2.3-9.5l-1.7-9.6l6.1,0.1l0.1-8.7l-0.2-8.6l0.3-8.6l-0.5-8.6l0-8.4L662.6,3L654.9,3.1z M949.8,28.8l2.6,0.1l0,1.3l-1,0.1
	l-0.5,9.1l1,0l-0.1,1.2l-2.7,0.2l0.2-1.2l0.7,0.1L950,38l0.2-1.8l-0.5-0.4l-0.1-0.5l0.3-0.7l-0.3-0.5l-0.4-0.5l-0.6,0.1l-0.6,0
	l0.2,0.7l-0.1,0.3l-0.2,0.4l-0.2,2.3l0.1,2.3l0.7,0.1l-0.1,1.1l-2.6,0.3l-0.5-1.4l1.3,0.2l0-2.5l0-2.3l0-0.6l-0.2-0.7l-0.1-0.7
	l0.4-0.5l0.7-0.1l0.6-0.6l0.6,0.4l0.5,0.3l0.8,0l0.1,0.7L949.8,28.8z M947.3,24.7l1.7-1.5V23l1.7,1.7l-1.7,1.6L947.3,24.7z
	 M944.8,9.5l-0.6,0L944.1,8l3.5,0l-0.2,1.3l-0.9,0.2l0.3,4l3.7,0.5l0-4.3l-0.8,0l-0.1-1.3l3.4-0.3l0.3,1.7L952,9.8l-0.3,8.3l1.1,0.1
	l0,1.2l-3.5,0.2l0.3-1.3l0.5-0.2l0-2.7l-3.8-0.4l0,3.4l1.1,0.1l0.2,1.2l-3.5-0.1l-0.3-1.4l0.9,0.1L944.8,9.5z M941.3,3.1l-0.2,8.8
	l0.3,8.6l-0.2,8.6l0.6,8.6l0,8.5l2.1,0l1.9,9.6l2.1,9.5l2,9.5l1.9,9.6l2.3,9.5l2.1,8.2h6.7l-1.8-8.2l-2-9.5l-2.1-9.5l-2.4-9.5
	l-2.3-9.5l-1.7-9.6l6.1,0.1l0.1-8.7l-0.2-8.6l0.3-8.6l-0.5-8.6l0-8.4L949,3L941.3,3.1z M26.1,35.4l-0.8-0.7l-0.4-0.9l-0.1-1.1l0.3-1
	l-0.2-1l0.2,0L24,29.5l0.8-0.7l1,1.1l0.5,0.1l0.1-0.6l0.3-0.1l0.4,0.5l1.1,0.2l0.6,0.6l0.6,0.8l0,1.2l0.5,0.8l-0.2,0.8l-0.5,0.7
	l-0.7,0.5l0.5,0.4l0.1,0.5l-0.3,0.4l-0.1,0.6l1.1,0.7l-0.3,1.3l-0.1,0.9l-0.5,0.6l-0.7,0.4l-0.9,0.5l-1.1,0l-1-0.7l-0.4-1L24,39.1
	l0.6-1.1l0.7-0.6l0.8-0.8l1.2,0.2l0.1-0.1l0.2-0.1l0.1-0.2l-0.1-0.2l0.4-0.3l-0.3-0.1l0-0.3l-0.3,0.3L26.1,35.4z M25.5,21.7l1.7-1.6
	l1.7,1.6l-1.7,1.5v0.3L25.5,21.7z M23.7,5.1l1.3-0.2l0,1.4l0.3-0.6l0.5-0.4l0.6-0.2l0.7,0.1l1.4-0.1l1.2,0.6l0.2,1.4l0.7,1.2l0,1.4
	l0.5,1.3h-0.2l-0.2,1.2l-0.3,1.3l-0.3,1.3l-0.9,0.9l-0.7,1.1l-1.4,0.4l-1.4-0.8l-1-1l-0.6-1.4l-0.5-1.5l0.2-0.9l-0.2-1.2l3.8,0.1
	l0,1.5L24.7,12l0,0.3l0,0.7l0,0.8l0.5,0.7l0.7,0.4l0.2,0.8l0.8,0.1l1-0.2l0.7-0.7l0.2-1l0-1l0.2-0.9l0.4-0.8l-0.5-0.8l0.2-1l-0.1-1
	l-0.8-0.6l-0.4-0.7l-0.9-0.2L26,6.8l-0.6,0.7l-0.2,0.9l-0.4,0.6l-1.2,0.3L23.7,5.1z M27.2,0l-7.7,0.1l-0.2,8.8l0.3,8.6L19.3,26
	l0.6,8.6L19.8,43l6.4,0.1l-0.5,8.7l-0.2,8.6l-0.3,8.6l-0.5,8.6l-0.1,8.6l0.1,8.6l-0.7,7.3H31l0.3-7.3l0.3-8.6l0-8.6l0.1-8.6l0.4-8.6
	l0.7-8.6l0.2-8.6l2,0l0.1-8.6L34.8,26l0.3-8.6l-0.5-8.6l0-8.4L27.2,0z M169.3,35.3l-0.4-0.9l-0.4-0.7l-0.2-0.9l-0.4-0.9l0.2-0.9
	l-0.5-0.8l0.1-1l0.4-0.9l0.6-0.7l0.5-0.6l0.8-0.2l0.4,0.3l0.5,0l0.7,0l0.3,0.7l0-0.9l2,0.1l-0.1,1l-0.8,0.1l0.3,9.1l0.7-0.1
	l-0.2,1.4l-3.1,0.1l0.1-1.2l0.8,0l-0.1-2.9l-0.8,0.3l-0.6,0.7L169.3,35.3z M169.3,21.7l1.7-1.5V20l1.7,1.7l-1.7,1.6L169.3,21.7z
	 M170.1,12.2l-1.2-1l-0.8-1l-0.2-1.6l0-1.4l0.9-0.9l0.8-1.2l1.5-0.3L173,5l1.7,0.2l0,1.5l-1,0l-0.2,8.7l1.2,0l0,1.5l-3.3-0.2l0-1.2
	l1-0.1l0.2-3.3l-0.8,0.2L170.1,12.2z M171,0l-7.7,0.1l-0.2,8.8l0.3,8.6l-0.2,8.6l0.6,8.6l0,8.5l2.5,0l0.2,8.6l0.4,8.6l0.4,8.6
	l0.2,8.6l0.6,8.6l0.8,8.6l-0.1,7.3h6.8l-0.2-7.3l-0.4-8.6l-0.7-8.6l-0.6-8.6l-0.3-8.6l0-8.6l-0.5-8.6l5.9,0.1l0.1-8.7l-0.2-8.6
	l0.3-8.6l-0.5-8.6l0-8.4L171,0z M257.7,28.2l2.8-0.5l0,1.7l-0.7,0l0.8,5l1.4-5.1l-0.7-0.1l0.1-1.1l2.6-0.2l0,1.3l-0.8,0l-2.2,7.3
	l0.6,2.1l0.6,0.2l0.3,1.3l-3,0l0.3-1.5l0.7-0.2l-1.9-9l-1,0L257.7,28.2z M257.9,22.2l1.7-1.5v-0.3l1.7,1.7l-1.7,1.6L257.9,22.2z
	 M257.9,17.5l0.2-1.5l1.2,0l0.1-2.9l-2.6-5.8l-0.9-0.2l-0.2-1.7l3.6,0.1l0.1,1.9l-1.2-0.1l1.7,4.5l1.5-4.5l-0.8-0.2l-0.1-1.3
	l3.5-0.3l-0.1,1.9l-1.1-0.1l-2.3,5.8l0.1,2.8l0.8,0.1l0.3,1.5L257.9,17.5z M259.8,0l-7.7,0.1L252,8.8l0.3,8.6L252,26l0.6,8.6l0,8.5
	l5.3,0.1l-0.5,8.7l-0.2,8.6l-0.3,8.6l-0.5,8.6l-0.1,8.6l0.1,8.6l-0.7,7.3h6.8l0.3-7.3l0.3-8.6l0-8.6l0.1-8.6l0.4-8.6l0.7-8.6
	l0.2-8.6l3.1,0l0.1-8.6l-0.2-8.6l0.3-8.6l-0.5-8.6l0-8.4L259.8,0z M311.7,38.7l0.6-0.2l-0.1-10.7l3.3-0.1l-0.1,1.5l-1.5,0l0,2.7
	l0.8-0.3l0.6-0.4l1.1-0.1l0.3,1l0.5,0.8l0.3,0.9l0.2,0.9l0.4,0.8h-0.1l-0.1,0.8l-0.2,0.9l-0.1,0.9l-0.6,0.6l-0.3,0.9l-1,0.3
	l-0.9-0.7l-1.1-0.6l0,0.7l-2,0.2L311.7,38.7z M312.5,21.7l1.7-1.5V20l1.7,1.7l-1.7,1.6L312.5,21.7z M314.3,16.9l-0.9-0.1l-0.7-0.5
	l-1.2-0.8l-0.5-1.4l-0.9-1.4l-0.1-1.5l0.2-1.3l0.4-1.3l0.4-1.3l0.7-1.1l1-0.6l1.2-0.5l0.9-0.4l1.4,0.6l1.4,0l-0.1,1.4l-1,0l0.1,8.7
	l0.8,0.2l0.3,1.5l-3.4,0.1L314.3,16.9z M314.2,0l-7.7,0.1l-0.2,8.8l0.3,8.6l-0.2,8.6l0.6,8.6l-0.1,8.4l6.4,0.1l-0.5,8.7l-0.2,8.6
	l-0.3,8.6l-0.5,8.6l-0.1,8.6l0.1,8.6l-0.7,7.3h6.8l0.3-7.3l0.3-8.6l0-8.6l0.1-8.6l0.4-8.6l0.7-8.6l0.2-8.6l2,0l0.1-8.6l-0.2-8.6
	l0.3-8.6l-0.5-8.6l0-8.4L314.2,0z M456.2,39.3l-0.5-1.3l0.1-1.6l-0.1-8l2.3,0.1l-0.1,1.1l-0.8,0.1l-0.3,6.7l0.6,1.2l0.4,0.6l0.6,0.8
	l1-0.1l-0.1,1.3l-0.3-0.2l-1.7,0.3L456.2,39.3z M457,25.2l0.4,0.2l-0.2,0.6l0.1,0.3l-0.1,0.3l0,0.4l-0.4,0l-0.3,0.6l-0.5-0.1
	l-0.3-0.4l0-0.5l-0.1-0.4h0l0.2-0.3l0.2-0.2l0.2-0.3l0.4,0.2L457,25.2z M456.5,21.7l1.7-1.6l1.7,1.6l-1.7,1.5v0.3L456.5,21.7z
	 M457.2,16.9l-0.6-0.8l-0.9-0.7l-0.2-1.3l0.5-7.5l-1.3-0.1l-0.1-1.1l4.1-0.1l-0.2,1.3l-1,0.2l0,7.3l-0.1,0.6l-0.1,0.6l0.4,0.4
	l0.6,0.2l0.6,0l0.2-0.5l-0.2-0.5l0.6-0.4l-0.1-1l-0.2-0.7l1.4,0l0.2,0.8l0.2,1l-0.3,1.1l-0.7,0.7l0.1,0.1l-0.7,0.5l-0.9,0.1
	L457.2,16.9z M458.1,0l-7.7,0.1l-0.2,8.8l0.3,8.6l-0.2,8.6l0.6,8.6l0,8.5l2.5,0l0.2,8.6l0.4,8.6l0.4,8.6l0.2,8.6l0.6,8.6l0.8,8.6
	l-0.1,7.3h6.8l-0.3-7.3l-0.4-8.6l-0.7-8.6l-0.6-8.6l-0.3-8.6l0-8.6l-0.5-8.6l5.9,0.1l0.1-8.7l-0.2-8.6l0.3-8.6l-0.5-8.6l0-8.4
	L458.1,0z M545.7,33.6l-0.8-0.7l-0.4-0.9l-0.1-1.1l0.3-1l-0.2-1l0.2,0l-1.2-1.1l0.8-0.7l1,1.1l0.5,0.1l0.1-0.6l0.3-0.1l0.4,0.5
	l1.1,0.2l0.6,0.6l0.6,0.7l0,1.2l0.5,0.8l-0.2,0.8l-0.5,0.7l-0.7,0.5l0.5,0.4l0.1,0.5l-0.3,0.4l-0.1,0.6l1.1,0.7l-0.3,1.3l-0.1,0.9
	l-0.5,0.6l-0.7,0.4l-0.9,0.5l-1.1,0l-1-0.7l-0.4-1l-0.7-0.9l0.6-1.1l0.7-0.6l0.8-0.8l1.2,0.2l0.1-0.1l0.2-0.1l0.1-0.2l-0.1-0.2
	l0.4-0.3l-0.3-0.1l0-0.3l-0.3,0.3L545.7,33.6z M545.1,22.2l1.7-1.6l1.7,1.6l-1.7,1.5V24L545.1,22.2z M543.2,5.6l1.3-0.2l0,1.4
	l0.3-0.6l0.5-0.4l0.6-0.2l0.7,0.1l1.4-0.1l1.2,0.6l0.2,1.4l0.7,1.2l0,1.4l0.5,1.3h-0.2l-0.2,1.2l-0.3,1.3l-0.3,1.3l-0.9,0.9
	l-0.7,1.1l-1.4,0.4l-1.4-0.8l-1-1l-0.6-1.4l-0.5-1.5l0.2-0.9l-0.2-1.2l3.8,0.1l0,1.5l-2.4-0.1l0,0.3l0,0.7l0,0.8l0.5,0.7l0.7,0.4
	l0.2,0.8l0.8,0.1l1-0.2l0.7-0.7l0.2-1l0-1l0.2-0.9l0.4-0.8l-0.5-0.8l0.2-1l-0.1-1L547.7,8l-0.4-0.7L546.4,7l-0.9,0.2l-0.6,0.7
	l-0.2,0.9l-0.4,0.6l-1.2,0.3L543.2,5.6z M546.9,0l-7.7,0.1L539,8.8l0.3,8.6l-0.2,8.6l0.6,8.6l0,8.5l5.3,0.1l-0.5,8.7l-0.2,8.6
	l-0.3,8.6l-0.5,8.6l-0.1,8.6l0.1,8.6l-0.7,7.3h6.8l0.3-7.3l0.3-8.6l0-8.6l0.1-8.6l0.4-8.6l0.7-8.6l0.2-8.6l3.1,0l0.1-8.6l-0.2-8.6
	l0.3-8.6l-0.5-8.6l0-8.4L546.9,0z M601.2,27.1l1.3-0.1l-0.1,3l1.7-0.3l0,1.7l-1.6-0.4l-0.1,2.5l-0.1,2.3l0.1,0.9l-0.6,0.6l-0.4,1
	l-1.1,0.2l-0.9-0.3l0.2-1.5l0,0.1l0.1,0l0.5,0.1l0.3-0.4l0-0.5l0.6-0.3l-0.1-2.2l-0.1-2.4l-1.4,0l-0.1-1.3l1.5,0V27.1z M601.3,20.1
	l1.6,1.7l-1.6,1.7l-1.5-1.7h-0.3L601.3,20.1z M597.8,8.8l0.4-3.8l6.8,0.5l0.1,3.5l-1.2-0.1l0.1-2.1l-1.8,0l-0.3,8.7l1.5-0.1
	l-0.1,1.8l-3.4-0.5l0-1.1l1.3-0.1l-0.3-8.7l-1.7-0.2l0.4,2.5L597.8,8.8z M601.3,0l-7.7,0.1l-0.2,8.8l0.3,8.6l-0.2,8.6l0.6,8.6
	L594,43l6.4,0.1l-0.5,8.7l-0.2,8.6l-0.3,8.6l-0.5,8.6l-0.1,8.6l0.1,8.6l-0.7,7.3h6.8l0.3-7.3l0.3-8.6l0-8.6l0.1-8.6l0.4-8.6l0.7-8.6
	l0.2-8.6l2,0l0.1-8.6l-0.2-8.6l0.3-8.6l-0.5-8.6l0-8.4L601.3,0z M746,26.1l2.6,0.1l0,1.3l-1,0.1l-0.5,9.1l1,0l-0.1,1.2l-2.7,0.2
	l0.2-1.2l0.7,0.1l-0.1-1.9l0.2-1.8l-0.5-0.4l-0.1-0.5l0.3-0.7l-0.3-0.5l-0.4-0.5l-0.6,0.1l-0.6,0l0.2,0.7l-0.1,0.3l-0.2,0.4
	l-0.2,2.3l0.1,2.3l0.7,0.1l-0.1,1.1l-2.6,0.3l-0.5-1.4l1.3,0.2l0-2.5l0-2.3l0-0.6l-0.2-0.7l-0.1-0.7l0.4-0.5l0.7-0.1l0.6-0.6
	l0.6,0.4l0.5,0.3l0.8,0l0.1,0.7L746,26.1z M743.5,21.7l1.7-1.5V20l1.7,1.7l-1.7,1.6L743.5,21.7z M741,6.8l-0.6,0l-0.1-1.5l3.5,0
	l-0.2,1.3l-0.9,0.2l0.3,4l3.7,0.5l0-4.3l-0.8,0l-0.1-1.3l3.4-0.3l0.3,1.7l-1.2-0.1l-0.3,8.3l1.1,0.1l0,1.2l-3.5,0.2l0.3-1.3l0.5-0.2
	l0-2.7l-3.8-0.4l0,3.4l1.1,0.1l0.2,1.2l-3.5-0.1l-0.3-1.4l0.9,0.1L741,6.8z M745.2,0l-7.7,0.1l-0.2,8.8l0.3,8.6l-0.2,8.6l0.6,8.6
	l0,8.5l2.5,0l0.2,8.6l0.4,8.6l0.4,8.6l0.2,8.6l0.6,8.6l0.8,8.6l-0.1,7.3h6.8l-0.2-7.3l-0.4-8.6l-0.7-8.6l-0.6-8.6l-0.3-8.6l0-8.6
	l-0.5-8.6l5.9,0.1l0.1-8.7l-0.2-8.6l0.3-8.6l-0.5-8.6l0-8.4L745.2,0z M834.6,27.9l1.8,0.1l-0.2,3.2l-1.5-0.1l-0.1-0.2l-0.1-0.4
	l0-0.5l-0.4-0.3l-0.5,0l-0.1-0.6l-0.4,0.2l-0.2,0.3l-0.1,0.4l0.2,0.5l0.2,0.4l-0.1,0.2l-0.4,0.3l0.3-0.1l0.3,0.2l0.4,0.1l1.1-0.3
	l0.7,0.8l0.5,0.8l0.1,1l-0.1,0.9l-0.1,0.9l-0.8,0.2l-0.7,0.4l-0.5-0.3l-0.7,0.2l-0.5-0.4l-0.3-0.4l-0.1,1l-1.7-0.2l0-1.2l0.9,0.1
	l0-2.4l-0.2-2.2l0.3-1l-0.2-1l0.6-0.6l1.1,0.3l0.4,0.1l0.3,0.3l0.5,0.2l0.6,0.4L834.6,27.9z M832.1,22.2l1.7-1.6l1.7,1.6l-1.7,1.5
	V24L832.1,22.2z M831.8,5.6l4.2,0L835.9,7l-1,0l2,8.8l1,0l-0.1,1.4l-3.2-0.1l-0.2-1.2l1.2,0l-0.8-2.1l-1.9-0.1l-0.8,2.3l1,0l0,1.1
	l-3.2,0.3l0.1-1.3l0.5-0.3l1.9-9l-0.7,0.1L831.8,5.6z M834,0l-7.7,0.1l-0.2,8.8l0.3,8.6l-0.2,8.6l0.6,8.6l0,8.5l5.3,0.1l-0.5,8.7
	l-0.2,8.6l-0.3,8.6l-0.5,8.6l-0.1,8.6l0.1,8.6l-0.7,7.3h6.8l0.3-7.3l0.3-8.6l0-8.6l0.1-8.6l0.4-8.6l0.7-8.6l0.2-8.6l3.1,0l0.1-8.6
	l-0.2-8.6l0.3-8.6l-0.5-8.6l0-8.4L834,0z M886.7,35.4l-0.8-0.7l-0.4-0.9l-0.1-1.1l0.3-1l-0.2-1l0.2,0l-1.2-1.1l0.8-0.7l1,1.1
	l0.5,0.1l0.1-0.6l0.3-0.1l0.4,0.5l1.1,0.2l0.6,0.6l0.6,0.8l0,1.2l0.5,0.8l-0.2,0.8l-0.5,0.7l-0.7,0.5l0.5,0.4l0.1,0.5l-0.3,0.4
	l-0.1,0.6l1.1,0.7l-0.3,1.3l-0.1,0.9l-0.5,0.6l-0.7,0.4l-0.9,0.5l-1.1,0l-1-0.7l-0.4-1l-0.7-0.9l0.6-1.1l0.7-0.6l0.8-0.8l1.2,0.2
	l0.1-0.1l0.2-0.1l0.1-0.2l-0.1-0.2l0.4-0.3l-0.3-0.1l0-0.3l-0.3,0.3L886.7,35.4z M886.1,21.7l1.7-1.6l1.7,1.6l-1.7,1.5v0.3
	L886.1,21.7z M884.3,5.1l1.3-0.2l0,1.4l0.3-0.6l0.5-0.4l0.6-0.2l0.7,0.1l1.4-0.1l1.2,0.6l0.2,1.4l0.7,1.2l0,1.4l0.5,1.3h-0.2
	l-0.2,1.2l-0.3,1.3l-0.3,1.3l-0.9,0.9l-0.7,1.1l-1.4,0.4l-1.4-0.8l-1-1l-0.6-1.4l-0.5-1.5l0.2-0.9l-0.2-1.2l3.8,0.1l0,1.5l-2.4-0.1
	l0,0.3l0,0.7l0,0.8l0.5,0.7l0.7,0.4l0.2,0.8l0.8,0.1l1-0.2l0.7-0.7l0.2-1l0-1l0.2-0.9l0.4-0.8l-0.5-0.8l0.2-1l-0.1-1l-0.8-0.6
	l-0.4-0.7l-0.9-0.2l-0.9,0.2L886,7.4l-0.2,0.9l-0.4,0.6l-1.2,0.3L884.3,5.1z M887.8,0L880,0.1l-0.2,8.8l0.3,8.6l-0.2,8.6l0.6,8.6
	l-0.1,8.4l6.4,0.1l-0.5,8.7l-0.2,8.6l-0.3,8.6l-0.5,8.6l-0.1,8.6l0.1,8.6l-0.7,7.3h6.8l0.3-7.3l0.3-8.6l0-8.6l0.1-8.6l0.4-8.6
	l0.7-8.6l0.2-8.6l2,0l0.1-8.6l-0.2-8.6l0.3-8.6l-0.5-8.6l0-8.4L887.8,0z M1029.9,35.3l-0.4-0.9l-0.4-0.7l-0.2-0.9l-0.4-0.9l0.2-0.9
	l-0.5-0.8l0.1-1l0.4-0.9l0.6-0.7l0.5-0.6l0.8-0.2l0.4,0.3l0.5,0l0.7,0l0.3,0.7l0-0.9l2,0.1l-0.1,1l-0.8,0.1l0.3,9.1l0.7-0.1
	l-0.2,1.4l-3.1,0.1l0.1-1.2l0.8,0l-0.1-2.9l-0.8,0.3l-0.6,0.7L1029.9,35.3z M1029.9,21.7l1.7-1.5V20l1.7,1.7l-1.7,1.6L1029.9,21.7z
	 M1030.7,12.2l-1.2-1l-0.8-1l-0.2-1.6l0-1.4l0.9-0.9l0.8-1.2l1.5-0.3l1.8,0.1l1.7,0.2l0,1.5l-1,0l-0.2,8.7l1.2,0l0,1.5l-3.3-0.2
	l0-1.2l1-0.1l0.2-3.3l-0.8,0.2L1030.7,12.2z M1031.6,0l-7.7,0.1l-0.2,8.8l0.3,8.6l-0.2,8.6l0.6,8.6l0,8.5l2.5,0l0.2,8.6l0.4,8.6
	l0.4,8.6l0.2,8.6l0.6,8.6l0.8,8.6l-0.1,7.3h6.8l-0.2-7.3l-0.4-8.6l-0.7-8.6l-0.6-8.6l-0.3-8.6l0-8.6l-0.5-8.6l5.9,0.1l0.1-8.7
	l-0.2-8.6l0.3-8.6l-0.5-8.6l0-8.4L1031.6,0z M1118.3,28.2l2.8-0.5l0,1.7l-0.7,0l0.8,5l1.4-5.1l-0.7-0.1l0.1-1.1l2.6-0.2l0,1.3
	l-0.8,0l-2.2,7.3l0.6,2.1l0.6,0.2l0.3,1.3l-3,0l0.3-1.5l0.7-0.2l-1.9-9l-1,0L1118.3,28.2z M1118.5,22.2l1.7-1.5v-0.3l1.7,1.7
	l-1.7,1.6L1118.5,22.2z M1118.5,17.5l0.2-1.5l1.2,0l0.1-2.9l-2.6-5.8l-0.9-0.2l-0.2-1.7l3.6,0.1l0.1,1.9l-1.2-0.1l1.7,4.5l1.5-4.5
	l-0.8-0.2l-0.1-1.3l3.5-0.3l-0.1,1.9l-1.1-0.1l-2.3,5.8l0.1,2.8l0.8,0.1l0.3,1.5L1118.5,17.5z M1120.4,0l-7.7,0.1l-0.2,8.8l0.3,8.6
	l-0.2,8.6l0.6,8.6l0,8.5l5.3,0.1l-0.5,8.7l-0.2,8.6l-0.3,8.6l-0.5,8.6l-0.1,8.6l0.1,8.6l-0.7,7.3h6.8l0.3-7.3l0.3-8.6l0-8.6l0.1-8.6
	l0.4-8.6l0.7-8.6l0.2-8.6l3.1,0l0.1-8.6l-0.2-8.6l0.3-8.6l-0.5-8.6l0-8.4L1120.4,0z M1172.3,38.7l0.6-0.2l-0.1-10.7l3.3-0.1
	l-0.1,1.5l-1.5,0l0,2.7l0.8-0.3l0.6-0.4l1.1-0.1l0.3,1l0.5,0.8l0.3,0.9l0.1,0.9l0.4,0.8h-0.1l-0.1,0.8l-0.2,0.9l-0.1,0.9l-0.6,0.6
	l-0.3,0.9l-1,0.3l-0.9-0.7l-1.1-0.6l0,0.7l-2,0.2L1172.3,38.7z M1173.1,21.7l1.7-1.5V20l1.7,1.7l-1.7,1.6L1173.1,21.7z M1174.9,16.9
	l-0.9-0.1l-0.7-0.5l-1.2-0.8l-0.5-1.4l-0.9-1.4l-0.1-1.5l0.2-1.3l0.4-1.3l0.4-1.3l0.7-1.1l1-0.6l1.2-0.5l0.9-0.4l1.4,0.6l1.4,0
	l-0.1,1.4l-1,0l0.1,8.7l0.8,0.2l0.3,1.5l-3.4,0.1L1174.9,16.9z M1174.8,0l-7.7,0.1l-0.2,8.8l0.3,8.6L1167,26l0.6,8.6l-0.1,8.4
	l6.4,0.1l-0.5,8.7l-0.2,8.6l-0.3,8.6l-0.5,8.6l-0.1,8.6l0.1,8.6l-0.7,7.3h6.8l0.3-7.3l0.3-8.6l0-8.6l0.1-8.6l0.4-8.6l0.7-8.6
	l0.2-8.6l2,0l0.1-8.6l-0.2-8.6l0.3-8.6l-0.5-8.6l0-8.4L1174.8,0z"/>
</svg>
