<svg xmlns="http://www.w3.org/2000/svg" viewBox="0 0 320 63">
<style type="text/css">
	.st0{fill:#FFFFFF;}
</style>
<path class="st0" d="M29.8,44.1l-0.3,0.3l0.2,0.4l-0.2,0l-0.1,0.3l0.1,0.6l1.3-0.1l0.2-0.3L30.8,45l-0.1-0.3l0.1-0.4L30.6,44
	l-0.4-0.2L29.8,44.1z M126.6,37.7l-0.1,0l0-0.2l-0.2,0.1l0,0.4l0.2,0.2l0.1,0.2l0.2-0.3l0.1,0l0.3,0.2l0.2-0.4l0-0.3l-0.3-0.1
	l-0.2-0.2L126.6,37.7z M295.8,36.2l0.3,1.3l1.3,0.1l-0.3-1.4L295.8,36.2z M282.6,33.9l-0.4,1.1l0.3,0.5l0.2,0.5l0.6-0.1l0.4,0.1
	l0.4,0l0,0.1l0.4-0.2l0.3-0.4l0-0.5l0.1-0.6l-0.5-0.3l-0.4-0.2l-0.5-0.4L282.6,33.9z M161.9,34.7l0.6,0.4l0.5,0.1l1.1-0.1L164,35
	l0.4-1.1l-0.2-1l-0.8-0.6L161.9,34.7z M80.3,48.1L80,48l-0.1-0.6l1.7-0.2l0.2,1l-0.5,0l-1.1,1.7l1,1.9l0.4,0.1l0.1,0.7l-1.6-0.2
	l-0.2-0.7l0.4,0l-0.4-1.1L79,51.7l0.4,0.2l0.2,0.7l-1.7-0.1l-0.2-0.7l0.5-0.1l1.1-1.8l-0.9-1.8l-0.5,0l0-0.8l1.7,0.1l0,0.7l-0.2,0
	l0.4,1.2L80.3,48.1z M78.3,43.8l1-0.9v-0.2l1,1.1l-1,1L78.3,43.8z M78.6,37.1l-1.4-2.7l-0.5-0.1l-0.1-0.9l2.1-0.2l-0.1,1.1L78,34.5
	l1,2l1-2l-0.7,0l0-1.1l2.1,0.1l0,1.1l-0.6-0.1l-1.4,2.7l1.4,2.7l0.4,0.1l0.2,0.9l-2.2,0l0.1-1l0.7-0.1l-1-2.1l-0.9,2.2l0.5,0.1
	l0.2,1l-2.2-0.1l-0.1-1.1l0.8,0.1L78.6,37.1z M74.8,30.6L74.7,36l0.2,5.3l-0.1,5.3l0.3,5.3l0,5.2l2.8,0.1L77.1,63h4l0.7-5.9l2.1,0
	l0.1-5.3l-0.1-5.3l0.1-5.3L83.7,36l0-5.2l-4.4-0.2L74.8,30.6z M127.7,53.5l-0.1-0.7l-0.3-0.5l-0.5-0.3l-0.4-0.5l-0.7-0.2l-0.5-0.5
	l-0.1-0.8l-0.1-0.8l0.1-0.7l0.1-0.7l0.6-0.3l0.7-0.5l0.5,0.1l0.4,0.2l0.2,0.4l0.3,0.3l0-0.8l0.7,0l0,2.5l-0.8,0.2l0.1-0.8l-0.3-0.5
	l-0.4-0.4l-0.6-0.2l-0.4,0.3l-0.1,0.3l-0.2,0.3l-0.2,0.4L126,50l0.1,0.6l0.4,0.4l0.7,0.2l0.4,0.6l0.5,0.6l0.3,0.9l0.1,1.1l-3.7,0.2
	l0.2-1.9l0.6-0.1l0,1.1L127.7,53.5z M125.9,43.9l1-1l1,1l-1,0.9V45L125.9,43.9z M125.4,38.6l-0.7-0.3l-0.4-0.7l-0.2-0.8l0.2-1.2
	l0.6-0.9l0.8-0.6l1.1,0l1.1,0.2l0.7,0.8l0.5,0.9l0.3,1.1h0l-0.2,1.1l-0.6,0.9l-0.8,0.7l-1.1,0.1l-0.8,0.2l-0.9-0.4l0.5-0.3l0.5,0.3
	l0.7,0.1l1-0.4l0.8-0.5l0.2-1l0.2-0.9l0-0.9l-0.2-0.9l-0.7-0.5l-0.9-0.2l-1.6,0.5l-0.4,1.7l0.3,0.4l-0.2,0.5l0.2,0.3l0.3,0.3
	l0.2,0.1l0.2-0.1l-0.2-0.8l0.1-0.8l0.3-0.4l-0.1-0.4l0.4,0l0.4,0l0.3-0.2l0.1,0.3l0.1,0.1l0.1,0.2l0-0.4l0.6-0.1l-0.3,1.1l-0.4,0.1
	l0.1-0.2l-0.3-0.1l-0.1-0.2l-0.1-0.1l-0.1,0.1l-0.1,0.2l-0.2,0.2l0.2,0.2l0.1,0.1l0,0.2l0.2-0.2l0.4,0.2l0.4,0l0,0.5l0.2,0.3
	l-0.1,0.3l0,0.3l-0.2,0.2l-0.3,0.1l-0.4-0.1l-0.4-0.3l0,0.4L125.4,38.6z M122.3,30.6l-0.1,5.4l0.2,5.3l-0.1,5.3l0.3,5.3l0,5.2
	l2.8,0.1l-0.8,5.9h4l0.7-5.9l2.1,0l0.1-5.3l-0.1-5.3l0.1-5.3l-0.3-5.3l0-5.2l-4.4-0.2L122.3,30.6z M250.8,48.1l-0.3,0l0.1-0.8l1.5,0
	l0,0.8l-0.6,0l-0.5,4.5l-1.3,0.1l-0.2-3.7l-0.5,3.6l-0.9,0l-0.6-4.4l-0.5,0l0.1-0.7l1.3,0.1l0.1,0.7l-0.5,0l0.6,3.3L249,48l0.1,0
	l0-0.6l1.1,0l0.1,0.6l-0.3,0l0.6,3.3L250.8,48.1z M248.8,43.8l1-1l1,1l-1,0.9v0.2L248.8,43.8z M247.1,34.4l-0.4-0.1l0-0.8l1.6,0.1
	l0.1,0.7l-0.5,0.1l0.6,5l0.6-4.8l-0.3-0.1l0.2-0.8l1.5,0l0,0.8l-0.4,0.1l0.9,5.1l0.1-5.2l-0.1-0.1l0-0.8l1.7,0l0,0.8l-0.5,0.1
	l-0.6,6.2l-1.1-0.1l-0.8-4.8l-0.7,4.9l-1.2,0L247.1,34.4z M245.2,30.6l-0.1,5.4l0.2,5.3l-0.1,5.3l0.3,5.3l0,5.2l2.8,0.1l-0.8,5.9h4
	l0.7-5.9l2.1,0l0.1-5.3l-0.1-5.3l0.2-5.3l-0.3-5.3l0-5.2l-4.4-0.2L245.2,30.6z M295.5,54l-0.7-1.4l0.4-0.5l0.1-0.5l0.4-0.3l0.4-0.4
	l0-0.1l-0.8-0.7l-0.2-1l0-0.8l0.5-0.5l0.4-0.6l0.8-0.2l0.4,0.3l0.3,0.1l0.2,0.3l0.5,0.3l0.1-0.7l0.9-0.2l-0.1,2.7l-0.9,0l0-0.5
	l-0.1-0.4l-0.1-0.4l-0.2-0.4l-0.4-0.1l-0.4,0.2l-0.4-0.2l-0.3,0.3l-0.2,0.4l-0.1,0.4l0.3,0.5l0.3,0.3l0.3,0.3l0.4,0.3l0.6-0.2
	l-0.2,0.9l-0.4-0.1l-0.4,0.4l-0.5,0.2l-0.3,0.4l-0.2,0.5l0,0.5l0.3,0.3l0.2,0.4l0.5,0l0.7,0l0.2-0.6l0.2-0.5l0.1-0.6l0.8,0l0,0.2
	l-0.1,0.2l0.1,0.9l-0.3,0.8l-0.8,0.2l-0.7,0.4L295.5,54z M296,43.9l1-1l1,1l-1,0.9V45L296,43.9z M296.9,35.6l-0.6-1.7l0.8,0.1
	l0.4,1.7l1.4,0.1l0.1,0.5l-1.3,0.1l0.4,1l1.3,0.1l0.1,0.8l-1.4-0.1l0.4,2l-0.5,0.1l-0.4-2.2l-1.3,0.1l0.5,2l-0.7,0l-0.5-2.2
	l-1.5-0.1l-0.2-0.5l1.6,0.1l-0.5-1.2l-1.4,0l-0.2-1l1.5,0.2l-0.4-1.6l0.7,0l0.3,1.7L296.9,35.6z M292.4,30.6l-0.1,5.4l0.2,5.3
	l-0.1,5.3l0.3,5.3l0,5.2l2.8,0.1l-0.8,5.9h4l0.7-5.9l2.1,0l0.1-5.3l-0.1-5.3l0.2-5.3l-0.3-5.3l0-5.2l-4.4-0.2L292.4,30.6z
	 M283.6,30.5l-0.3,0.1l-0.5,0l-0.2,0.4l-0.1,0.5l0.2,0.5l0.1,0.5l0.5,0l0.3,0.1l0.4,0l0.4-0.1l0.2-0.4l0,0l0.1-0.5l0-0.5l-0.3-0.4
	l-0.2-0.4L283.6,30.5z M162.8,29.8l-0.3,0.2l-0.4,0.4l0.1,0.4l0.2,0.4l0.4,0.1l0.4,0.3l0-0.7l0.2,0.1l0.2-0.5l0-0.3l-0.2-0.2
	l-0.1-0.3L162.8,29.8z M113,29.8l-0.3,0.3l-0.3,0.5l-0.3,0.6l0,0.6l0,0.5l-0.1,0.5l0.2,0.6l0.4,0.5l0,0.7l0.4,0.4l0.5,0.2L114,35
	l-0.1-0.1l0.4-0.4l0.3-0.5l0.1-0.6l0.2-0.6l-0.3-0.5l0-0.5l0.2-0.6l-0.1-0.6l-0.2-0.6l-0.5-0.3l-0.5-0.3L113,29.8z M28.7,45.5
	L28.7,45.5l0.2-0.9l0.2-0.6l0.4-0.5l0.8,0l0.6-0.2l0.5,0.3l0,0.6l0.2,0.5l0,0.5l0.2,0.5l-0.1,0.6l0.3,0.7l-0.2,0.6l-0.4,0.5
	l-0.5,0.3l-0.6,0.2l-0.6-0.2L29.3,48L29,47.5l-0.2-0.8l0.9,0.3l0,0.2l0.1,0.3l0.2,0.3l0.3-0.1l0.1-0.2l0.2-0.1l0.3-0.2l-0.2-0.4
	l0.2-0.3l0-0.3l-2.1,0.2L28.7,45.5z M29,39.6l1-1l1,1l-1,0.9v0.2L29,39.6z M28.3,31.5l0.1-1.8l3.9-0.1l0,0.9l-0.7,0l-0.1,5.4l0.7,0
	l0,0.7l-4,0.2l0-2.2l0.7,0.1l0,1.2l2.1,0.1l-0.1-2.4l-1.5-0.2l-0.1-0.7l1.4,0.1l0-2.1L29,30.5l-0.1,1.1L28.3,31.5z M25.4,26.3
	l-0.1,5.4l0.2,5.3l-0.1,5.3l0.3,5.3l0,5.2l3.3,0.1l-0.7,5.4L27.8,63h4l0.6-4.8l0.4-5.4l1.6,0l0.1-5.3l-0.1-5.3l0.1-5.3l-0.3-5.3
	l0-5.2L30,26.2L25.4,26.3z M45.2,47.3l0.2,0.1l-0.1,0.4l0,0.2l-0.1,0.2l0,0.2l-0.2,0l-0.2,0.4l-0.3-0.1l-0.2-0.2l0-0.3L44.3,48h0
	l0.1-0.2l0.1-0.1l0.1-0.2l0.2,0.1L45.2,47.3z M45.3,38.6l0.9,1l-0.9,1.1l-0.9-1.1h-0.2L45.3,38.6z M42.6,33.5l-0.1-0.7l4-2.5
	l0.3,0.7l-3.2,2.1l3.5,1.7l-0.5,1L42.6,33.5z M40.7,26.3l-0.1,5.4l0.2,5.3l-0.1,5.3l0.3,5.3l0,5.2l1.7,0l0.3,5.4l0.4,4.8h4l-0.3-4.8
	l-0.5-5.4l3.2,0l0.1-5.3l-0.1-5.3L50,37l-0.3-5.3l0-5.2l-4.4-0.2L40.7,26.3z M164.7,42.2l0.1,2l-0.9-0.1l0-1l-2.2,0.1l1.7,5.2
	l0.5,0.1l0.2,0.9l-2.1,0l0.1-0.9l0.7-0.1l-1.6-5.2l-0.1-0.8l3.5,0.1L164.7,42.2z M161.8,39.6l1-0.9v-0.2l1,1.1l-1,1L161.8,39.6z
	 M162.7,32.1l-0.6-0.4l-0.5-0.2l0-0.6l-0.1-0.5l0.1-0.6l0.3-0.4l0.3-0.5l0.6-0.3l0.9,0.4l0.3,0.9l0.4,0.5l-0.3,0.6l-0.4,0.6l0.8,0.2
	l0.4,0.7l0.3,0.6l0.1,0.7l-0.4,1.3l0,0l-1.1,0.8l-0.4,0.1l-0.4,0.1l-0.4-0.2l-0.5,0.2l-0.4-0.2l-0.3-0.5l-0.3,0.6l-0.6-0.5l0.4-0.8
	l-0.1-0.5l-0.5-0.5l-0.2-0.6l0-0.6l0.9-0.2l0.1,0.8l0.3,0.8L162.7,32.1z M158.2,26.3l-0.1,5.4l0.2,5.3l-0.1,5.3l0.3,5.3l0,5.2l1.7,0
	l0.3,5.4l0.4,4.8h4l-0.3-4.8l-0.5-5.4l3.2,0l0.1-5.3l-0.1-5.3l0.2-5.3l-0.3-5.3l0-5.2l-4.4-0.2L158.2,26.3z M199,43.3l0.8-0.1
	l0.1,0.5l0.3-0.2l0.4-0.2l0.5,0.1l0.3,0.4l0.4,0.4l0.4,0.5l-0.2,0.6l0.1,0.5l-0.1,0.6l-0.1,0.6l0,0.6l-0.2,0.6l-0.5,0.3l-0.6-0.1
	l-0.8,0.1l-0.3-0.7l-0.2-0.7l-0.2-0.9l0.8,0.2l0.1,0.4l0.1,0.4l0.2,0.4l0.4,0l0.4,0.1l0.1-0.4l0.2-0.3l-0.2-0.4l0.1-0.4l0-0.3h0.1
	l0-0.3l0-0.4l-0.2-0.4l0-0.5l-0.4-0.1l-0.2,0l-0.4-0.1l-0.2,0.4l-0.2,0.4l0.2,0.3l-0.6,0L199,43.3z M199.4,39.6l1-1l1,1l-1,0.9v0.2
	L199.4,39.6z M198.3,29.5l0.8,0l0.1,0.8l0.6-0.4l0.7-0.3l0.7,0.3L202,30l0.4,0.7l0.3,0.8l0.1,0.8l0,0.8h0l-0.1,0.7l-0.2,0.8
	l-0.2,0.8l-0.5,0.6l-0.4,0.7l-0.8,0.2l-0.9-0.5l-0.6-0.6l-0.3-0.8l-0.3-0.9l0.7,0.1l0.3,0.4l0.2,0.5l0.3,0.4l0.6,0.3l0.5-0.2
	l0.4-0.4l0.4-0.5l0-0.7l-0.1-0.6l0.3-0.5l0-0.5L202,32l-0.2-0.6l-0.4-0.4l-0.4-0.2l-0.4-0.2l-0.4-0.1l-0.1,0.5l-0.4,0.1l-0.2,0.3
	l0.1,0.5l-0.3,0.4l-0.8,0L198.3,29.5z M195.8,26.3l-0.1,5.4l0.2,5.3l-0.1,5.3l0.3,5.3l0,5.2l3.3,0.1l-0.7,5.4l-0.5,4.8h4l0.6-4.8
	l0.4-5.4l1.6,0l0.1-5.3l-0.1-5.3l0.2-5.3l-0.3-5.3l0-5.2l-4.4-0.2L195.8,26.3z M216.7,47.2l0.1-0.3l0-1.8l-0.2-1.8l1.4-0.2l0.1,1
	l-0.7-0.1l0.3,1.5l-0.2,1.4l-0.1,0.4l0.2,0.4l-0.3,0.3l-0.2,0.3l-0.3,0.2l0,0l-0.4,0l-0.3-0.1l-0.4-0.1l-0.2-0.4l-0.3-0.1l-0.1,0.9
	l-1.4-0.3l0-0.6l0.8-0.1l-0.2-4.3l1.2,0.2l0.2,0.8l-0.5,0l0,1l-0.1,1.1l0.1,0.4l0.1,0.4l0.2,0.4l0.5,0l0.1-0.3l0.4,0.1L216.7,47.2z
	 M214.7,39.6l1-0.9v-0.2l1,1.1l-1,1L214.7,39.6z M215.3,36.9l-0.4-0.7l-0.3-0.7l-0.2-0.8l-0.2-0.8l0.1-0.8l-0.3-2.7l-0.5,0l0.2-1.1
	l2,0.1l0,0.9l-0.6,0l-0.1,2.7l0.1,0.5l0.3,0.6l-0.2,0.7l0.2,0.6l0.3,0.5l0.6,0.2l0.4-0.3l0.2-0.4l0.2-0.4l0.3-0.5l-0.3-0.5l0.2-0.4
	l0-1.6l-0.3-1.4l-0.5-0.2l0.1-1l2,0.1l0,0.9l-0.5,0.1l-0.2,1.4l0.2,1.5l-0.2,0.7l0.1,0l-0.1,0.7l-0.2,0.7l-0.2,0.6l-0.6,0.3
	l-0.6,0.4L215.3,36.9z M211.2,26.3l-0.1,5.4l0.2,5.3l-0.1,5.3l0.3,5.3l0,5.2l1.7,0l0.3,5.4l0.4,4.8h4l-0.3-4.8l-0.5-5.4l3.2,0
	l0.1-5.3l-0.1-5.3l0.1-5.3l-0.3-5.3l0-5.2l-4.4-0.2L211.2,26.3z M4.3,24.8L4,24.9l0,0.4l-0.2,0.3l0.3,1l0,1l0,0.3l0,0.3l0.2,0.2
	l0.3,0.1l0.4,0l0.1-0.3L5,27.7l0.4-0.3l0-0.4l-0.1,0l0.1-0.3l0-0.3l-0.1-0.4l0.1-0.5L5,25.3l-0.2-0.2l-0.2-0.4L4.3,24.8z
	 M271.5,23.5l-0.4,0.1l0.2,0.4l0.1,0.2l0,0.4l0.3,0.2l0.3,0.1l0.3-0.2l0.3,0l0-0.4l0.1-0.2l-0.1-0.5l0.1-0.1l-0.5-0.3l-0.3,0
	L271.5,23.5z M68.9,22.4l-0.4,0.1l0.2,0.4l0.1,0.2l0,0.4l0.3,0.2l0.3,0.1l0.3-0.2l0.3,0l0-0.4l0.1-0.2L70,22.6l0.1-0.1l-0.5-0.3
	l-0.3,0L68.9,22.4z M56.4,39l0.5-0.2l0.2,0.5l0.3-0.1l0.4-0.1l0.4,0.1l0.5,0.1l0.2,0.4l0.4,0.4l0,0.6l-0.2,0.4l-0.4,0.3l-0.4,0.3
	l-0.3,0.2l-0.4,0.2l-0.2,0.4l0.1,0.4L57,43.1l0.1,0.2l0.1,0.2l0.2,0.1l0.2-0.2l0-0.2l0.1-0.1l0.2-0.2l-0.3-0.1l0.2-0.1l0.9,0
	l0.3,1.7l-0.8,0l-0.1-0.4l-0.3,0.3l-0.4,0.1l-0.5,0l-0.3-0.5l-0.4-0.3l0-0.5l-0.2-0.5l0.2-0.4l0.3-0.3l0.4-0.3l0.4-0.2l0.4-0.2
	l0.1-0.5l0-0.4l0.3-0.2l-0.3-0.1l-0.1-0.2l-0.2,0.2l-0.3-0.2l-0.1,0.3L57,40.1l0.1,0.3h0l0,0.1l-0.8,0.1L56.4,39z M56.3,34.1l1-1
	l1,1l-1,0.9v0.2L56.3,34.1z M55.6,23.7l0.7-0.1l0,0.9l0.2-0.4l0.3-0.3l0.4-0.1l0.4,0.1l0.8-0.1L59,24l0,0.8l0.3,0.7l-0.2,0.6l0,0.6
	l-0.5,0.1l-0.3,0.4l-0.5,0.2l-0.5,0.3L57,28l-0.3,0.3l-0.3,0.4l-0.1,0.5h0l0,0.5l0.1,0.4l0.4,0.2l0.4,0.2l0.5-0.4l0.3-0.4l0.5-0.4
	l0-0.5l0.5-0.1l0.3,2.2l-0.7,0l-0.3-0.6l0,0.5L58,31l-0.4,0l-0.5,0.1l-0.7-0.2L56,30.4l-0.4-0.5l-0.3-0.8l0.5-0.7l0.4-0.6l0.6-0.4
	l0.7-0.3l0.4-0.4l0.3-0.4l0.3-0.3l0.3-0.5l-0.3-0.3l0-0.4L58,24.6l-0.4,0.2l-0.4-0.1l-0.3,0.2l-0.3,0.3l-0.2,0.4l0,0.4l-0.2,0.2
	l-0.7,0.2L55.6,23.7z M52.7,20.8l-0.1,5.4l0.2,5.3l-0.1,5.3L53,42l0,5.2l3.4,0l-0.8,5.5L55,58.2L54.5,63h4.1l0.5-4.8l0.4-5.5
	l0.9-5.4l1.5,0l0.1-5.3l-0.1-5.3l0.1-5.3l-0.3-5.3l0-5.2l-4.4-0.2L52.7,20.8z M227.1,37.1l1.4,0l-0.1,0.8L228,38l0,5.2l0.5,0.1
	l0,0.7l-2.1-0.1l-0.1-0.7l0.8,0L227.1,37.1z M226.9,34.1l0.9-1.1l0.9,1.1h0.2l-1,1L226.9,34.1z M227.4,30.1l0.2-0.1l0.2-0.1L228,30
	l0.4-0.1l0.2,0.2l-0.2,0.3l0,0.2l-0.1,0.1L228,31l-0.2-0.1l-0.3,0.3l-0.2-0.2l-0.1-0.3l0.1-0.3l0-0.2l0,0L227.4,30.1z M227.6,29.4
	l-0.3-5.8l1.2,0l-0.4,5.8L227.6,29.4z M223.2,20.8l-0.1,5.4l0.2,5.3l-0.1,5.3l0.3,5.3l0,5.2l3.4,0l-0.8,5.5l-0.6,5.4l-0.6,4.8h4.1
	l0.5-4.8l0.4-5.5l0.9-5.4l1.5,0l0.1-5.3l-0.1-5.3l0.1-5.3l-0.3-5.3l0-5.2l-4.4-0.2L223.2,20.8z M239.6,20.3l-0.3,0.2l0,0.7l0.2,0.2
	l0.2,0.3l0.3-0.2l0.2,0l0.5,0.1l0.2-0.5l-0.2-0.7l-0.7-0.1l-0.3-0.1L239.6,20.3z M271.9,19.2l-0.3,0.2l-0.1,0.3l0,0l-0.1,0.3l0,0.4
	l0.2,0.3l0.1,0.4l0.4-0.1l0.2-0.1l0.4-0.1l0.1-0.4l0.1-0.3l-0.2-0.3l0-0.4l-0.4,0l-0.2-0.1L271.9,19.2z M69.3,18.1L69,18.3L69,18.6
	l0,0l-0.1,0.3l0,0.4l0.2,0.3l0.1,0.4l0.4-0.1l0.2-0.1l0.4-0.1l0.1-0.4l0.1-0.3l-0.2-0.3l0-0.4l-0.4,0l-0.2-0.1L69.3,18.1z M4.6,15.7
	l-0.1-0.1L4,16.2l0.5,0L4.8,16l0.3-0.3L5,15.4L4.6,15.7z M316.6,13.9l-0.1,5.4l0.2,5.3l-0.1,5.3l0.3,5.3l0,5.2l1.5,0l0.6,5.8
	l0.8,5.8l0.2,1.5V32.3l-0.1-1l0.1,0v-1.1l0,0h0V17.8l-0.3-0.1l-0.1-0.7l0.3,0v-3.2L316.6,13.9z M152.7,31.2l1.6-0.1l-0.2,0.9
	l-0.6,0.2l-0.2,3.3l0.7,0l-0.2,0.8l-1.5,0.1l0.1-0.6l0.3,0l-0.1-1.2l0-1.1l0-0.4l-0.1-0.4l-0.3-0.3l-0.3-0.2v0l-0.3,0l-0.2,0.2
	l0,0.3l-0.2,0.2l0.3,1.4l0,1.3l0.1,0.2l0.1,0.6l-1.3,0l-0.1-0.6l0.5,0l-0.3-1.5l0-1.3l0-0.2l0-0.3l-0.2-0.2l-0.3-0.1l-0.3,0
	l-0.1,0.3l0.2,0.3l-0.3,0.2l0,1.3l0,1.4l0.4,0l0.1,0.9l-1.7,0l-0.1-1l0.6,0.1l-0.3-1.4l0.2-1.3l0.1-0.5l-0.1-0.6l0.4-0.4l0.5-0.2
	l0.3,0.1l0.3,0.1l0.3,0.1l0.2,0.5l0.1-0.5l0.2-0.1l0.1-0.4l0.4,0l0.4,0.1l0.3,0.2l0.2,0.3l0.4,0.3L152.7,31.2z M150.1,27.2l1-0.9
	v-0.2l1,1.1l-1,1L150.1,27.2z M147.5,16.7l2.1,0.3l1.3,5.2l0.9-5.1l2.2,0.1l0,0.8l-0.9,0.1l0,5.2l0.9,0l0,0.7l-2.2,0.3l-0.1-1.1
	l0.8,0.1l-0.3-4.9l-1.1,5.3l-0.7,0l-1.2-5.4l0.1,5l0.6-0.1l-0.1,1.1l-2-0.1l0-0.9l0.5,0l0-5.4l-0.8,0L147.5,16.7z M146.6,13.9
	l-0.1,5.4l0.2,5.3l-0.1,5.3l0.3,5.3l0,5.2l1.4,0l0.6,5.8l0.8,5.8l0.8,5.8l0.6,5.2h4.1l-0.9-5.2l-0.5-5.8l-0.8-5.8l-0.8-5.8l3.5,0
	l0.1-5.3l-0.1-5.3l0.1-5.3l-0.3-5.3l0-5.2l-4.4-0.2L146.6,13.9z M112.7,35.7l-0.6-0.4l-0.3-0.7l-0.5-0.7l-0.2-0.8l0.2-0.8l0-0.7
	l0.2-0.8l0.1-0.8l0.5-0.6l0.3-0.7l0.8-0.2l0.9,0.3l0.5,0.6l0.4,0.6l0.2,0.8l0,0.8l0.2,0.8l0.2,0.8l-0.4,0.8l-0.2,0.8l-0.4,0.6
	l-0.5,0.4l0,0.1l-0.8,0.1L112.7,35.7z M112.7,26.1l0.9-1.1l0.9,1.1h0.2l-1,1L112.7,26.1z M113.5,23.5l-0.4-0.9l-0.4-0.8l-0.3-0.9
	l-0.3-0.9l0.1-0.9l-0.3-0.9l0.2-1l0.4-0.9l0.6-0.7l0.6-0.7l0.7-0.5l0,0.7l-0.6,0.8l-0.3,1.1l-0.6,1l-0.1,1.1h0.1l0.1,1.1l0.3,1.1
	l0.6,1l0.6,0.8l0.1,0.8L113.5,23.5z M109.1,12.5l-0.1,5.4l0.2,5.3l-0.1,5.3l0.3,5.3l0,5.3l1.2,0l0.4,6.2l0.5,6.1l0.5,6.2l0.4,5.5
	h4.1l-0.6-5.5l-0.2-6.2l-0.5-6.2l-0.5-6.1l3.8,0l0.1-5.3l-0.1-5.3l0.2-5.3l-0.3-5.3l0-5.2l-4.4-0.2L109.1,12.5z M282.8,36.6
	l-0.7-0.3l-0.3-0.7l-0.5-0.7l0-0.6l0.5-0.4l0.3-0.4l0.6-0.4l-0.5-0.3l-0.2-0.4l-0.5-0.3l-0.1-0.5l0.2-0.8l0.5-0.6l0.6-0.4l0.8-0.1
	l0.7,0.3l0.6,0.3l0.6,0.5l-0.2,0.9l0,0.4l-0.2,0.4l-0.3,0.3l-0.2,0.3l0.5,0.2l0.3,0.5l0,0.6l0.4,0.5l-0.4,0.9l-0.5,0.6l-0.6,0.6
	l-0.1-0.2l-0.8,0.1L282.8,36.6z M282.7,26.1l1-0.9V25l1,1.1l-1,1L282.7,26.1z M284,15.9l0.7,0.1l0.2,1.4l1.1-0.7l0.3,1l-1.3,0.5
	l0.9,1.1l-0.6,0.4l-1-1.2l-1,1.2l-0.7-0.4l1-1.1l-0.9-0.6l0.2-0.6l1.3,0.7L284,15.9z M279.2,12.5l-0.1,5.4l0.2,5.3l-0.1,5.3l0.3,5.3
	l0,5.3l1.2,0l0.4,6.2l0.5,6.1l0.5,6.2l0.4,5.5h4.1l-0.6-5.5l-0.2-6.2l-0.5-6.2l-0.5-6.1l3.8,0l0.1-5.3l-0.1-5.3l0.1-5.3l-0.3-5.3
	l0-5.2l-4.4-0.2L279.2,12.5z M3.3,10.5l-0.2,0.5l-0.3,0.5L3,12.3l0,0.6l-0.1,0.5L2.8,14l0.1,0.7L3,15.4l0.4,0.7l0.3-0.7l0.3-0.6
	l0.7-0.1l0.6-0.2l0-0.1l0.1-0.3l0-0.2l-0.1-0.6l0.1-0.7l-0.4-0.7l-0.2-0.6l-0.1-0.6l-0.6-0.2L3.3,10.5z M2.6,31.4l0.1-0.9l0.5,0
	l0-5.6l-0.6-0.1L2.4,24l1.4-0.3l-0.1,0.8l0.4-0.2l0.2-0.1l0.3-0.1l0.3-0.2l0.6,0l0.4,0.5L5.8,25l0.5,0.5l-0.1,0.6l0,0.5l0,0.2
	l-0.1,0.5L6,27.8l-0.1,0.6l-0.4,0.3l-0.2,0.5l-0.6,0.2l-0.2-0.3L4.4,29l-0.1-0.2l-0.4-0.1l-0.1,1.8l0.7-0.1l-0.1,1L2.6,31.4z
	 M3.2,20.3l1-0.9v-0.2l1,1.1l-1,1L3.2,20.3z M2.2,17.4l0.2-0.3l0.3-0.3l-0.3-0.4l-0.2-0.6L2,15.1L2,14.5L2,13.8l-0.1-0.6l-0.2-0.7
	l0.4-0.8L2.3,11l0.4-0.6l0.5-0.4l0.7-0.3l1,0.1l0.6,0.6l0.2,0.9l0.5,0.8l-0.1,1l0,0.9h0L6,14.4l-0.2,0.8l-0.1,0.8l-0.5,0.5l-0.3,0.7
	l-0.8,0.2L3.9,17l-0.4,0l-0.4,0.6l-0.3,0.6L2.2,17.4z M0,7v26.5l3.3,0.1l-0.8,6l-0.7,6l-0.7,6l-0.8,6L0,60.5V63h3.6l0.9-5.4l0.7-6
	l0.7-6l0.7-6l0.6-6l1.5,0l0-5.3l-0.1-5.3l0.2-5.3l-0.3-5.3l0-5.2L4.2,6.9L0,7z M175.5,29.3l-2.2-3.5l0.1-1l2.9,0.2l-0.1,1.4
	l-0.6-0.1l-0.1-0.5l-1.4,0.1l2.2,3.4l-0.1,1l-2.8-0.3l0.1-1.2l0.5,0.1l0.1,0.6L175.5,29.3z M173.7,20.3l1-0.9v-0.2l1,1.1l-1,1
	L173.7,20.3z M175.4,16l-2.6-5.3l-0.2-1.1l3.7,0l-0.1,2.3l-0.8,0l0-1.3l-2,0.1l2.5,5.4l0.2,1l-3.7,0l0.3-2.3l0.5,0.1l0,1.4L175.4,16
	z M170.1,7l-0.1,5.4l0.2,5.3l-0.1,5.3l0.3,5.3l0,5.2l3.4,0.1l-0.8,6l-0.7,6l-0.7,6l-0.8,6l-0.5,5.4h3.8l0.9-5.4l0.7-6l0.7-6l0.7-6
	l0.6-6l1.5,0l0-5.3l-0.1-5.3l0.2-5.3l-0.3-5.3l0-5.2l-4.4-0.2L170.1,7z M259.7,6.7L259.5,7l-0.4,0.4l0.2,0.7l0.4,0.5l0.6,0l0.6,0.1
	V8.6l0.3,0l0-2.3l-0.9,0l-0.5-0.1L259.7,6.7z M239.5,7.6l1.2,0l-0.6-3.3L239.5,7.6z M89,19.6l0.2,0.1l0.2,0l1,0.1l0.5,0.5l0.6,0.6
	l0.1,0.9l0.5,0.2l0,0.7l-0.8,0.1l0.1,3.4l0.6,0.1l0.2,0.9l-2.2,0l0-1l0.7,0.1l0-3.5l-0.6,0l0-0.9l0.5-0.1l-0.3-0.7l0-0.6l-0.5-0.2
	l-0.6,0L89,19.6z M89.6,16.3l1-1l1,1l-1,0.9v0.2L89.6,16.3z M88.6,7.6l0-2l3.9,0.1l0,0.9l-0.7,0l-0.1,5.2l0.7,0l-0.1,0.8l-2.1,0.2
	l-0.1-1.1l0.9,0.1l0-2.2l-1.5-0.2l-0.1-0.5l1.6,0L91,6.6l-1.5,0l-0.1,1.1L88.6,7.6z M86,2.8l-0.1,5.4l0.2,5.3l-0.1,5.3l0.3,5.3
	l0,5.2l3.4,0.1l-0.8,5.7l-0.6,5.7l-0.7,5.7l-0.8,5.7l-0.5,5.7L85.8,63h3.9l0.6-5.1l0.7-5.7l0.7-5.7l0.5-5.7l0.5-5.7l0.9-5.7l1.5,0
	l0-5.3l-0.1-5.3l0.2-5.3l-0.3-5.3l0-5.2l-4.4-0.2L86,2.8z M260.6,20.8l1.4,0.1l-0.2,1l-0.5,0l0,3.3l0.8,0l0.1,0.8l-2.4,0.3l-0.1-1.2
	l0.8,0l0.1-0.9l0-1l-0.1-0.4l-0.1-0.4l-0.4-0.1l-0.6-0.1l0.2-1.2l0.2,0.2l0.3,0.2l0.3,0.1l0.5,0.2L260.6,20.8z M259.7,16.3l1-1l1,1
	l-1,0.9v0.2L259.7,16.3z M259.8,9.3l-0.5-0.4l-0.5-0.4L258.3,8l0.2-0.7l0.1-0.8l0.5-0.6l0.6-0.3l0.8-0.3l1.1-0.1l1.1,0.1l0,0.1
	l-0.1,0.9l-0.6,0l0.1,5.5l0.5,0.1l0.1,0.9l-2,0l0.1-1l0.6,0l0-2.5l-0.9,0l-0.8,2.4l0.7,0l-0.2,1.1l-1.9-0.2l0-1l0.7,0L259.8,9.3z
	 M256.1,2.8L256,8.2l0.2,5.3l-0.1,5.3l0.3,5.3l0,5.2l3.4,0.1l-0.8,5.7l-0.6,5.7l-0.7,5.7l-0.8,5.7l-0.5,5.7l-0.4,5.1h3.9l0.6-5.1
	l0.7-5.7l0.7-5.7l0.5-5.7l0.5-5.7l0.9-5.7l1.5,0l0-5.3l-0.1-5.3l0.1-5.3L265,8.2l0-5.2l-4.4-0.2L256.1,2.8z M138.8,17.9l1.6-0.2
	l-0.2,1l-0.6,0.1l0,5.5l0.4,0.1l0.1,0.9l-1.8,0l0-0.8l0.6,0l-0.1-1l-0.4-0.5l-0.8,1.5l0.4-0.1l-0.2,0.7l-1.5,0l0.1-0.6l0.3-0.1
	l1.6-1.9l-1.5-1.5l-0.6-0.1l0.1-1l1.9,0.2l-0.1,0.7l-0.4,0l1.2,1.5L138.8,17.9z M137.3,15.2l1-0.9v-0.2l1,1.1l-1,1L137.3,15.2z
	 M136,12l0.2-0.6l0.4-0.1l2-2.9L136.3,6l-0.5,0l0-1.1l2.1,0.1l0.1,0.8l-0.6,0.1l1.8,2.5l0-2.4L138.3,6l0.3-0.9l1.9,0l0,0.8l-0.6,0
	l0.2,5.2l0.7-0.1l-0.2,1l-2-0.1l0-0.7l0.6-0.1l-0.1-2.7l-1.6,2.9l0.6-0.1l-0.2,0.9L136,12z M133.8,1.9l-0.1,5.4l0.2,5.3l-0.1,5.3
	l0.3,5.3l0,5.2l1.2,0l1.1,5.9l1.3,5.9l1.2,5.9l1.1,5.9l1.4,5.8l1.3,5.2h4l-1.1-5.3l-1.2-5.9L143,46l-1.4-5.8l-1.4-5.8l-1-5.9l3.6,0
	l0.1-5.3l-0.1-5.3l0.2-5.3l-0.3-5.3l0-5.2l-4.4-0.2L133.8,1.9z M308.9,17.7l1.5,0.1l0,0.8l-0.6,0.1l-0.3,5.6l0.6,0l0,0.8l-1.6,0.1
	l0.1-0.7l0.4,0.1l-0.1-1.2l0.1-1.1l-0.3-0.2l-0.1-0.3l0.2-0.4l-0.2-0.3l-0.2-0.3l-0.4,0l-0.3,0l0.1,0.4l-0.1,0.2l-0.1,0.2l-0.1,1.4
	l0.1,1.4l0.4,0l-0.1,0.7l-1.6,0.2l-0.3-0.9l0.8,0.1l0-1.5l0-1.4l0-0.4l-0.1-0.4l0-0.4l0.3-0.3l0.4,0l0.3-0.4l0.3,0.3l0.3,0.2l0.4,0
	l0,0.4L308.9,17.7z M307.4,15.2l1-0.9v-0.2l1,1.1l-1,1L307.4,15.2z M305.9,5.9l-0.4,0l0-0.9l2.1,0l-0.1,0.8l-0.6,0.1l0.2,2.5
	l2.2,0.3l0-2.7l-0.5,0l-0.1-0.8l2-0.2l0.2,1.1l-0.7,0l-0.2,5.1l0.7,0l0,0.7l-2.1,0.1l0.2-0.8l0.3-0.1l0-1.7l-2.3-0.2l0,2.1l0.7,0
	l0.1,0.7l-2.1-0.1l-0.2-0.9l0.5,0.1L305.9,5.9z M303.8,1.9l-0.1,5.4l0.2,5.3l-0.1,5.3l0.3,5.3l0,5.2l1.2,0l1.1,5.9l1.3,5.9l1.2,5.9
	l1.1,5.9l1.4,5.8l1.3,5.2h4l-1.1-5.3l-1.2-5.9l-1.2-5.9l-1.4-5.8l-1.4-5.8l-1-5.9l3.6,0l0.1-5.3l-0.1-5.3l0.2-5.3l-0.3-5.3l0-5.2
	l-4.4-0.2L303.8,1.9z M15.8,24.2l-0.3-0.8l0-1l-0.1-4.9l1.4,0.1l0,0.7l-0.5,0l-0.2,4.1l0.4,0.7l0.2,0.4l0.4,0.5l0.6-0.1l0,0.8
	l-0.2-0.1l-1,0.2L15.8,24.2z M16.3,15.5l0.3,0.1L16.4,16l0,0.2l-0.1,0.2l0,0.2l-0.2,0L16,17L15.7,17l-0.2-0.2l0-0.3l-0.1-0.2h0
	l0.1-0.2l0.1-0.1l0.1-0.2l0.2,0.1L16.3,15.5z M15.9,13.4l1-1l1,1l-1,0.9v0.2L15.9,13.4z M16.4,10.4L16,9.9l-0.5-0.4l-0.1-0.8
	l0.3-4.6L14.9,4l-0.1-0.7l2.5-0.1l-0.1,0.8l-0.6,0.1l0,4.5L16.5,9l0,0.4l0.2,0.2L17,9.7l0.3,0l0.1-0.3l-0.1-0.3l0.3-0.2l0-0.6
	l-0.1-0.5l0.9,0l0.1,0.5l0.1,0.6l-0.2,0.6L18,10l0.1,0l-0.4,0.3l-0.6,0.1L16.4,10.4z M16.9,0l-4.6,0l-0.1,5.4l0.2,5.3L12.3,16
	l0.3,5.3l0,5.2l1.5,0l0.1,5.3l0.3,5.3l0.2,5.3l0.1,5.3l0.4,5.3l0.5,5.3L15.5,63h4.1l-0.2-4.7L19.2,53l-0.4-5.3l-0.4-5.3l-0.2-5.3
	l0-5.3L18,26.6l3.5,0l0.1-5.3L21.4,16l0.2-5.3l-0.3-5.3l0-5.2L16.9,0z M68.9,20.7l-0.5-0.4l-0.3-0.6l0-0.7l0.2-0.6l-0.1-0.6l0.1,0
	l-0.7-0.7l0.5-0.5l0.6,0.7l0.3,0.1l0.1-0.3l0.2-0.1l0.2,0.3l0.6,0.1l0.4,0.4l0.4,0.5l0,0.7l0.3,0.5L71,19.9l-0.3,0.4l-0.4,0.3
	l0.3,0.3l0.1,0.3l-0.2,0.3l0,0.4l0.7,0.4l-0.2,0.8l-0.1,0.6L70.6,24l-0.4,0.2l-0.5,0.3l-0.7,0l-0.6-0.4l-0.2-0.6L67.6,23l0.4-0.7
	l0.4-0.4l0.5-0.5l0.7,0.1l0-0.1l0.1-0.1l0.1-0.1l-0.1-0.1L70,21l-0.2,0l0-0.2l-0.2,0.2L68.9,20.7z M68.6,13.7l1-1l1,1l-1,0.9v0.2
	L68.6,13.7z M67.5,3.4l0.8-0.1l0,0.9l0.2-0.4l0.3-0.3L69,3.4l0.4,0.1l0.8-0.1L71,3.8l0.1,0.9l0.4,0.7l0,0.9l0.3,0.8h-0.1l-0.1,0.7
	l-0.2,0.8l-0.2,0.8L70.6,10l-0.4,0.7l-0.8,0.2l-0.9-0.5l-0.6-0.6L67.6,9L67.3,8l0.1-0.5l-0.1-0.7l2.2,0.1l0,0.9l-1.4-0.1l0,0.2
	l0,0.4l0,0.5l0.3,0.4l0.4,0.2l0.1,0.5l0.5,0.1l0.6-0.1l0.4-0.4l0.1-0.6l0-0.6l0.1-0.6L70.8,7l-0.3-0.5l0.1-0.6l-0.1-0.6l-0.5-0.4
	l-0.2-0.5l-0.5-0.1l-0.5,0.1l-0.4,0.4l-0.1,0.6l-0.2,0.3L67.5,6L67.5,3.4z M69.7,0l-4.6,0L65,5.4l0.2,5.3L65,16l0.3,5.3l0,5.2l3.1,0
	l-0.3,5.3L68,37.2l-0.2,5.3l-0.3,5.3l0,5.3l0.1,5.3L67.2,63h4.1l0.2-4.7l0.2-5.3l0-5.3l0-5.3l0.2-5.3l0.4-5.3l0.1-5.3l1.8,0l0-5.3
	L74.2,16l0.1-5.3L74,5.4l0-5.2L69.7,0z M101.9,16.7l0.8,0l-0.1,1.8l1-0.2l0,1.1l-0.9-0.2l-0.1,1.6l0,1.4l0.1,0.6l-0.3,0.4l-0.2,0.6
	l-0.6,0.1l-0.6-0.2l0.1-0.9l0,0l0.1,0l0.3,0.1l0.2-0.3l0-0.3l0.4-0.2l0-1.4l-0.1-1.5l-0.8,0l-0.1-0.8l0.9,0V16.7z M102,12.4l0.9,1
	l-0.9,1.1l-0.9-1.1h-0.2L102,12.4z M99.9,5.4l0.2-2.3l4,0.3l0,2.1l-0.7,0l0.1-1.3l-1,0l-0.2,5.3l0.9-0.1l-0.1,1.1l-2-0.3l0-0.7
	l0.8,0l-0.2-5.4l-1-0.1l0.2,1.6L99.9,5.4z M102,0l-4.6,0l-0.1,5.4l0.2,5.3L97.3,16l0.3,5.3l0,5.2l3.8,0l-0.3,5.3l-0.1,5.3l-0.2,5.3
	l-0.3,5.3l0,5.3l0.1,5.3l-0.4,4.7h4.1l0.2-4.7l0.2-5.3l0-5.3l0-5.3l0.2-5.3l0.4-5.3l0.1-5.3l1.2,0l0-5.3l-0.1-5.3l0.2-5.3l-0.3-5.3
	l0-5.2L102,0z M187.9,16l1.5,0.1l0,0.8l-0.6,0.1l-0.3,5.6l0.6,0l0,0.8l-1.6,0.1l0.1-0.7l0.4,0.1l-0.1-1.2l0.1-1.1l-0.3-0.2l-0.1-0.3
	l0.2-0.4l-0.2-0.3l-0.2-0.3l-0.4,0l-0.3,0l0.1,0.4l-0.1,0.2l-0.1,0.2l-0.1,1.4l0.1,1.4l0.4,0.1l-0.1,0.6l-1.6,0.2l-0.3-0.9l0.8,0.1
	l0-1.5l0-1.4l0-0.4l-0.1-0.4l0-0.4l0.3-0.3l0.4,0l0.3-0.4l0.3,0.3l0.3,0.2l0.4,0l0,0.4L187.9,16z M186.4,13.4l1-0.9v-0.2l1,1.1l-1,1
	L186.4,13.4z M184.9,4.2l-0.4,0l0-0.9l2.1,0L186.5,4l-0.6,0.1l0.2,2.5l2.2,0.3l0-2.7l-0.5,0l-0.1-0.8l2-0.2l0.2,1.1l-0.7,0L189,9.5
	l0.7,0l0,0.7l-2.1,0.1l0.2-0.8l0.3-0.1l0-1.7l-2.3-0.2l0,2.1l0.7,0l0.1,0.7l-2.1-0.1l-0.2-0.9l0.6,0.1L184.9,4.2z M187.4,0l-4.6,0
	l-0.1,5.4l0.2,5.3l-0.1,5.3l0.3,5.3l0,5.2l1.5,0l0.1,5.3l0.3,5.3l0.2,5.3l0.1,5.3l0.4,5.3l0.5,5.3L186,63h4.1l-0.2-4.7l-0.2-5.3
	l-0.4-5.3l-0.4-5.3l-0.2-5.3l0-5.3l-0.3-5.3l3.5,0l0.1-5.3l-0.1-5.3l0.2-5.3l-0.3-5.3l0-5.2L187.4,0z M240.5,17.2l1.1,0.1l-0.1,2
	l-0.9-0.1l0-0.1l-0.1-0.2l0-0.3l-0.3-0.2l-0.3,0l-0.1-0.4l-0.2,0.1l-0.1,0.2l-0.1,0.3l0.1,0.3l0.1,0.2l-0.1,0.1l-0.2,0.2l0.2,0
	l0.2,0.1l0.3,0.1l0.7-0.2l0.4,0.5l0.3,0.5l0.1,0.6l-0.1,0.5l-0.1,0.5l-0.5,0.1l-0.4,0.2l-0.3-0.2l-0.4,0.1l-0.3-0.2l-0.2-0.2
	l-0.1,0.6l-1-0.1l0-0.8l0.6,0l0-1.5l-0.1-1.4l0.2-0.6l-0.1-0.6l0.4-0.4l0.7,0.2l0.2,0.1l0.2,0.2l0.3,0.1l0.4,0.3L240.5,17.2z
	 M239,13.7l1-1l1,1l-1,0.9v0.2L239,13.7z M238.8,3.5l2.5,0l-0.1,0.8l-0.6,0l1.2,5.4l0.6,0l-0.1,0.9l-1.9,0l-0.1-0.8l0.7,0l-0.5-1.3
	l-1.1,0L239,9.9l0.6,0l0,0.7l-1.9,0.2l0.1-0.8l0.3-0.2l1.1-5.6l-0.4,0L238.8,3.5z M240.1,0l-4.6,0l-0.1,5.4l0.2,5.3l-0.1,5.3
	l0.3,5.3l0,5.2l3.1,0l-0.3,5.3l-0.1,5.3l-0.2,5.3l-0.3,5.3l0,5.3l0.1,5.3l-0.4,4.7h4.1l0.2-4.7l0.2-5.3l0-5.3l0-5.3l0.2-5.3l0.4-5.3
	l0.1-5.3l1.8,0l0.1-5.3l-0.1-5.3l0.1-5.3l-0.3-5.3l0-5.2L240.1,0z M271.5,21.8l-0.5-0.4l-0.3-0.6l0-0.7l0.2-0.6l-0.1-0.6l0.1,0
	l-0.7-0.7l0.5-0.5l0.6,0.7l0.3,0.1l0.1-0.3l0.2-0.1l0.2,0.3l0.6,0.1l0.4,0.4l0.4,0.5l0,0.7l0.3,0.5l-0.1,0.5l-0.3,0.4l-0.4,0.3
	l0.3,0.3l0.1,0.3l-0.2,0.3l0,0.4l0.7,0.4l-0.2,0.8l-0.1,0.6l-0.3,0.4l-0.4,0.2l-0.5,0.3l-0.7,0l-0.6-0.4l-0.2-0.6l-0.4-0.6l0.4-0.7
	l0.4-0.4l0.5-0.5l0.7,0.1l0-0.1l0.1-0.1l0.1-0.1l-0.1-0.1l0.2-0.2l-0.2,0l0-0.2l-0.2,0.2L271.5,21.8z M271.1,13.4l1-1l1,1l-1,0.9
	v0.2L271.1,13.4z M270,3.2l0.8-0.1l0,0.9l0.2-0.4l0.3-0.3l0.3-0.1l0.4,0.1l0.8-0.1l0.7,0.4l0.1,0.9l0.4,0.7l0,0.9l0.3,0.8h-0.1
	L274,7.6l-0.2,0.8l-0.2,0.8l-0.5,0.6l-0.4,0.7l-0.8,0.2l-0.9-0.5l-0.6-0.6l-0.3-0.8l-0.3-0.9l0.1-0.5l-0.1-0.7l2.2,0.1l0,0.9
	l-1.4-0.1l0,0.2l0,0.4l0,0.5l0.3,0.4l0.4,0.2l0.1,0.5l0.5,0.1l0.6-0.1l0.4-0.4l0.1-0.6l0-0.6l0.1-0.6l0.2-0.5L273,6.3l0.1-0.6
	L273.1,5l-0.5-0.4l-0.2-0.5l-0.5-0.1l-0.5,0.1L271,4.6l-0.1,0.6l-0.2,0.3L270,5.7L270,3.2z M272.1,0l-4.6,0l-0.1,5.4l0.2,5.3
	l-0.1,5.3l0.3,5.3l0,5.2l3.8,0l-0.3,5.3l-0.1,5.3l-0.2,5.3l-0.3,5.3l0,5.3l0.1,5.3l-0.4,4.7h4.1l0.2-4.7l0.2-5.3l0-5.3l0-5.3
	l0.2-5.3l0.4-5.3l0.1-5.3l1.2,0l0-5.3l-0.1-5.3l0.2-5.3l-0.3-5.3l0-5.2L272.1,0z"/>
</svg>
